<svg width="287" height="265" viewBox="0 0 287 265" fill="none" xmlns="http://www.w3.org/2000/svg">
<path d="M282.27 254.149L266.605 244.543L265.997 235.143L280.294 223.6L285.194 230.952L272.729 237.363L272.995 241.475L286.182 246.227L282.27 254.149ZM264.535 215.573L264.055 233.991L256.134 239.223L238.988 232.564L242.907 224.74L254.699 232.236L258.188 229.946L255.729 216.241L264.535 215.573ZM240.153 250.581L256.299 241.769L264.827 245.936L267.676 264.139L258.858 264.611L259.531 250.704L255.775 248.882L245.047 257.835L240.153 250.581Z" fill="white"/>
<path d="M50.2702 251.149L34.6053 241.543L33.9973 232.143L48.2941 220.6L53.1943 227.952L40.7286 234.363L40.9946 238.475L54.1823 243.227L50.2702 251.149ZM32.5347 212.573L32.0546 230.991L24.1338 236.223L6.98807 229.564L10.9065 221.74L22.6987 229.236L26.1885 226.946L23.7288 213.241L32.5347 212.573ZM8.15348 247.581L24.2985 238.769L32.8273 242.936L35.6763 261.139L26.8577 261.611L27.5312 247.704L23.7754 245.882L13.0473 254.835L8.15348 247.581Z" fill="white"/>
<path d="M118.478 63.1178L117.714 63.196L116.965 63.2811L116.244 63.38L115.566 63.4992L114.942 63.6446L114.384 63.8215L113.901 64.0345L113.501 64.2872L113.189 64.5824L112.969 64.9216L112.842 65.3054L112.807 65.7333L112.86 66.2035L112.996 66.7135L113.207 67.2596L113.483 67.8373L113.814 68.4411L114.188 69.0652L114.59 69.7031L115.007 70.3479L115.423 70.9928L115.826 71.6306L116.199 72.2547L116.53 72.8586L116.807 73.4362L117.018 73.9823L117.154 74.4923L117.207 74.9626L117.171 75.3904L117.044 75.7742L116.824 76.1134L116.513 76.4086L116.112 76.6613L115.63 76.8743L115.071 77.0513L114.448 77.1966L113.769 77.3158L113.049 77.4147L112.3 77.4998L111.536 77.578L110.772 77.6562L110.023 77.7413L109.302 77.8402L108.624 77.9594L108 78.1048L107.442 78.2817L106.959 78.4947L106.559 78.7474L106.247 79.0426L106.027 79.3818L105.9 79.7656L105.865 80.1934L105.918 80.6637L106.054 81.1737L106.265 81.7198L106.541 82.2974L106.873 82.9013L107.246 83.5254L107.648 84.1632L108.065 84.8081L108.482 85.4529L108.884 86.0908L109.257 86.7149L109.588 87.3188L109.865 87.8964L110.076 88.4425L110.212 88.9525L110.265 89.4228L110.23 89.8506L110.103 90.2344L109.883 90.5736L109.571 90.8688L109.171 91.1215L108.688 91.3345L108.13 91.5114L107.506 91.6568L106.828 91.776L106.107 91.8749L105.358 91.96L104.594 92.0382L103.83 92.1163L103.081 92.2015L102.361 92.3004L101.682 92.4196L101.058 92.5649L100.5 92.7418L100.017 92.9548L99.6174 93.2076L99.3056 93.5027L99.0856 93.8419L98.9585 94.2257L98.9232 94.6536L98.9762 95.1239L99.112 95.6339L99.323 96.18L99.5996 96.7576L99.9309 97.3614L100.304 97.9855L100.706 98.6234L101.123 99.2683L101.54 99.9131L101.942 100.551L102.315 101.175L102.647 101.779L102.923 102.357L103.134 102.903L103.27 103.413L103.323 103.883L103.288 104.311L103.161 104.695L102.941 105.034L102.629 105.329L102.229 105.582L101.746 105.795L101.188 105.972L100.564 106.117L99.8858 106.236L99.1653 106.335L98.4161 106.42L97.6523 106.498L96.8885 106.577L96.1393 106.662L95.4187 106.761L94.7404 106.88L94.1166 107.025L93.5586 107.202L93.0757 107.415L92.6756 107.668L92.3638 107.963L92.1438 108.302L92.0167 108.686L91.9814 109.114L92.0344 109.584L92.1702 110.094L92.3812 110.64L92.6579 111.218L92.9891 111.822L93.3626 112.446L93.7647 113.084L94.1814 113.728L94.5981 114.373L95.0002 115.011L95.3737 115.635L95.7049 116.239L95.9816 116.817L96.1926 117.363L96.3284 117.873L96.3814 118.343L96.3461 118.771L96.219 119.155L95.999 119.494L95.6872 119.789L95.2871 120.042L94.8042 120.255L94.2462 120.432L93.6224 120.577L92.9441 120.696L92.2235 120.795L91.4743 120.88L90.7105 120.959L89.9467 121.037L89.1975 121.122L88.477 121.221L87.7986 121.34L87.1749 121.485L86.6168 121.662L86.1339 121.875L85.7338 122.128L85.422 122.423L85.2021 122.762L85.075 123.146L85.0396 123.574L85.0927 124.044L85.2285 124.554L85.4394 125.1L85.7161 125.678L86.0473 126.282L86.4208 126.906L86.8229 127.544L87.2396 128.189L87.6563 128.833L88.0585 129.471L88.4319 130.095L88.7632 130.699L89.0398 131.277L89.2508 131.823L89.3866 132.333L89.4396 132.803L89.4043 133.231L89.2772 133.615L89.0572 133.954L88.7454 134.249L88.3453 134.502L87.8624 134.715L87.3044 134.892L86.6806 135.037L86.0023 135.156L85.2818 135.255L84.5325 135.341L83.7687 135.419L83.005 135.497L82.2557 135.582L81.5352 135.681L80.8568 135.8L80.2331 135.945L79.675 136.122L79.1921 136.335L78.792 136.588L78.4803 136.883L78.2603 137.222L78.1332 137.606L78.0979 138.034L78.1509 138.504L78.2867 139.014L78.4976 139.56L78.7743 140.138L79.1056 140.742L79.479 141.366L79.8812 142.004L80.2979 142.649L80.7145 143.294L81.1167 143.932L81.4901 144.556L81.8214 145.159L82.0981 145.737L82.309 146.283L82.4448 146.793L82.4979 147.263L82.4625 147.691L82.3354 148.075L82.1154 148.414L81.8037 148.709L81.4036 148.962L80.9207 149.175L80.3626 149.352L79.7389 149.498L79.0605 149.617L78.34 149.716L77.5907 149.801L76.827 149.879L76.0632 149.957L75.3139 150.042L74.5934 150.141L73.9151 150.26L73.2913 150.406L72.7333 150.583L72.2504 150.796L71.8503 151.048L71.5385 151.343L71.3185 151.683L71.1914 152.066L71.1561 152.494L71.2091 152.965L71.3449 153.475L71.5559 154.021L71.8325 154.598L72.1638 155.202L72.5372 155.826L72.9394 156.464L73.3561 157.109L73.7728 157.754L74.1749 158.392L74.5484 159.016L74.8796 159.62L75.1563 160.197L75.3672 160.743L75.5031 161.253L75.5561 161.724L75.5207 162.151L75.3937 162.535L75.1737 162.874L74.8619 163.17L74.4618 163.422L73.9789 163.635L73.4208 163.812L72.7971 163.958L72.1187 164.077L71.3982 164.176L70.649 164.261L69.8852 164.339L69.1214 164.417L68.3722 164.502L67.6516 164.601L66.9733 164.72L66.3495 164.866L65.7915 165.043L65.3086 165.256L64.9085 165.508L64.5967 165.804L64.3767 166.143L64.2496 166.527L64.2143 166.954L64.2673 167.425L64.4031 167.935L64.6141 168.481L64.8908 169.058L65.222 169.662L65.5955 170.286L65.9976 170.924L66.4143 171.569L66.831 172.214L67.2331 172.852L67.6066 173.476L67.9379 174.08L68.2145 174.657L68.4255 175.204L68.5613 175.714L68.6143 176.184L68.579 176.612L68.4519 176.995L68.2319 177.335L67.9201 177.63L67.52 177.883L67.0371 178.096L66.4791 178.272L65.8553 178.418L65.177 178.537L64.4564 178.636L63.7072 178.721L62.9434 178.799L62.1796 178.877L61.4304 178.963L60.7099 179.061L60.0315 179.181L59.4078 179.326L58.8497 179.503L58.3668 179.716L57.9667 179.969L57.655 180.264L57.435 180.603L57.3079 180.987L57.2725 181.415L57.3256 181.885L57.4614 182.395L57.6723 182.941L57.949 183.519L58.2802 184.122L58.6537 184.747L59.0558 185.384L59.4725 186.029L59.8892 186.674L60.2914 187.312L60.6648 187.936L60.9961 188.54L61.2727 189.118L61.4837 189.664L61.6195 190.174L61.6725 190.644L61.6372 191.072L61.5101 191.456L61.2901 191.795L60.9784 192.09L60.5782 192.343L60.0953 192.556L59.5373 192.733L58.9135 192.878L58.2352 192.997L57.5147 193.096L56.7654 193.181L56.0016 193.259L55.2379 193.338L54.4886 193.423L53.7681 193.522L53.0897 193.641L52.466 193.786L51.9079 193.963L51.4251 194.176L51.0249 194.429L50.7132 194.724L50.4932 195.063L50.3661 195.447L50.3308 195.875L50.3838 196.345L50.5196 196.855L50.7306 197.401L51.0072 197.979L51.3385 198.583L51.7119 199.207L52.1141 199.845L52.5308 200.489L52.9474 201.134L53.3496 201.772L53.723 202.396L54.0543 203L54.331 203.578L54.5419 204.124L54.6777 204.634L54.7308 205.104L54.6954 205.532L54.5683 205.916L54.3483 206.255L54.0366 206.55L53.6365 206.803L53.1536 207.016L52.5955 207.193L51.9718 207.338L51.2934 207.457L50.5729 207.556L49.8236 207.641" stroke="white" stroke-width="4" stroke-miterlimit="10" stroke-linecap="round"/>
<path d="M242.468 207.362L242.885 206.718L243.287 206.08L243.66 205.456L243.992 204.852L244.268 204.274L244.479 203.728L244.615 203.218L244.668 202.748L244.633 202.32L244.506 201.936L244.286 201.597L243.974 201.302L243.574 201.049L243.091 200.836L242.533 200.659L241.91 200.514L241.231 200.394L240.511 200.296L239.761 200.21L238.998 200.132L238.234 200.054L237.485 199.969L236.764 199.87L236.086 199.751L235.462 199.605L234.904 199.428L234.421 199.215L234.021 198.962L233.709 198.667L233.489 198.328L233.362 197.944L233.327 197.516L233.38 197.046L233.516 196.536L233.727 195.99L234.004 195.412L234.335 194.809L234.708 194.184L235.111 193.547L235.527 192.902L235.944 192.257L236.346 191.619L236.72 190.995L237.051 190.391L237.328 189.814L237.539 189.268L237.675 188.758L237.728 188.287L237.692 187.859L237.565 187.476L237.345 187.136L237.034 186.841L236.633 186.588L236.151 186.375L235.592 186.198L234.969 186.053L234.29 185.934L233.57 185.835L232.821 185.75L232.057 185.671L231.293 185.593L230.544 185.508L229.823 185.409L229.145 185.29L228.521 185.144L227.963 184.968L227.48 184.755L227.08 184.502L226.769 184.207L226.549 183.867L226.421 183.484L226.386 183.056L226.439 182.585L226.575 182.075L226.786 181.529L227.063 180.952L227.394 180.348L227.768 179.724L228.17 179.086L228.586 178.441L229.003 177.796L229.405 177.158L229.779 176.534L230.11 175.931L230.387 175.353L230.598 174.807L230.734 174.297L230.787 173.827L230.751 173.399L230.624 173.015L230.404 172.676L230.093 172.381L229.693 172.128L229.21 171.915L228.652 171.738L228.028 171.592L227.35 171.473L226.629 171.374L225.88 171.289L225.116 171.211L224.352 171.133L223.603 171.047L222.883 170.948L222.204 170.829L221.58 170.684L221.022 170.507L220.54 170.294L220.139 170.041L219.828 169.746L219.608 169.407L219.481 169.023L219.445 168.595L219.498 168.125L219.634 167.615L219.845 167.069L220.122 166.491L220.453 165.887L220.827 165.263L221.229 164.625L221.646 163.981L222.062 163.336L222.465 162.698L222.838 162.074L223.169 161.47L223.446 160.892L223.657 160.346L223.793 159.836L223.846 159.366L223.811 158.938L223.684 158.554L223.464 158.215L223.152 157.92L222.752 157.667L222.269 157.454L221.711 157.277L221.087 157.132L220.409 157.013L219.688 156.914L218.939 156.828L218.175 156.75L217.412 156.672L216.662 156.587L215.942 156.488L215.263 156.369L214.64 156.223L214.082 156.046L213.599 155.833L213.199 155.58L212.887 155.285L212.667 154.946L212.54 154.562L212.505 154.134L212.558 153.664L212.693 153.154L212.904 152.608L213.181 152.03L213.512 151.427L213.886 150.803L214.288 150.165L214.705 149.52L215.122 148.875L215.524 148.237L215.897 147.613L216.229 147.009L216.505 146.432L216.716 145.886L216.852 145.376L216.905 144.905L216.87 144.478L216.743 144.094L216.523 143.754L216.211 143.459L215.811 143.207L215.328 142.994L214.77 142.817L214.146 142.671L213.468 142.552L212.747 142.453L211.998 142.368L211.234 142.29L210.471 142.211L209.721 142.126L209.001 142.027L208.323 141.908L207.699 141.763L207.141 141.586L206.658 141.373L206.258 141.12L205.946 140.825L205.726 140.485L205.599 140.102L205.564 139.674L205.617 139.203L205.753 138.693L205.964 138.147L206.24 137.57L206.572 136.966L206.945 136.342L207.347 135.704L207.764 135.059L208.181 134.414L208.583 133.777L208.957 133.153L209.288 132.549L209.565 131.971L209.776 131.425L209.911 130.915L209.964 130.445L209.929 130.017L209.802 129.633L209.582 129.294L209.27 128.999L208.87 128.746L208.387 128.533L207.829 128.356L207.206 128.21L206.527 128.091L205.807 127.992L205.057 127.907L204.294 127.829L203.53 127.751L202.781 127.666L202.06 127.567L201.382 127.447L200.758 127.302L200.2 127.125L199.717 126.912L199.317 126.659L199.005 126.364L198.785 126.025L198.658 125.641L198.623 125.213L198.676 124.743L198.812 124.233L199.023 123.687L199.3 123.109L199.631 122.505L200.004 121.881L200.407 121.243L200.823 120.599L201.24 119.954L201.642 119.316L202.016 118.692L202.347 118.088L202.624 117.51L202.835 116.964L202.971 116.454L203.024 115.984L202.988 115.556L202.861 115.172L202.641 114.833L202.33 114.538L201.929 114.285L201.447 114.072L200.889 113.895L200.265 113.75L199.586 113.631L198.866 113.532L198.117 113.446L197.353 113.368L196.589 113.29L195.84 113.205L195.119 113.106L194.441 112.987L193.817 112.841L193.259 112.664L192.776 112.451L192.376 112.199L192.065 111.903L191.845 111.564L191.717 111.18L191.682 110.752L191.735 110.282L191.871 109.772L192.082 109.226L192.359 108.649L192.69 108.045L193.064 107.421L193.466 106.783L193.883 106.138L194.299 105.493L194.701 104.855L195.075 104.231L195.406 103.627L195.683 103.05L195.894 102.504L196.03 101.994L196.083 101.523L196.048 101.096L195.92 100.712L195.7 100.373L195.389 100.077L194.989 99.8246L194.506 99.6116L193.948 99.4346L193.324 99.2892L192.646 99.17L191.925 99.071L191.176 98.9858L190.412 98.9076L189.648 98.8294L188.899 98.7442L188.179 98.6453L187.5 98.5261L186.876 98.3806L186.318 98.2037L185.836 97.9907L185.435 97.7379L185.124 97.4427L184.904 97.1035L184.777 96.7197L184.741 96.2918L184.794 95.8216L184.93 95.3116L185.141 94.7655L185.418 94.1879L185.749 93.5841L186.123 92.96L186.525 92.3221L186.942 91.6773L187.358 91.0325L187.761 90.3946L188.134 89.7706L188.465 89.1668L188.742 88.5891L188.953 88.0431L189.089 87.5331L189.142 87.0628L189.107 86.6349L188.98 86.2511L188.76 85.9119L188.448 85.6167L188.048 85.364L187.565 85.1509L187.007 84.974L186.383 84.8286L185.705 84.7094L184.984 84.6104L184.235 84.5252L183.471 84.447L182.708 84.3688L181.958 84.2836L181.238 84.1846L180.559 84.0654L179.936 83.92L179.378 83.7431L178.895 83.53L178.495 83.2773L178.183 82.9821L177.963 82.6429L177.836 82.259L177.801 81.8312L177.854 81.3609L177.989 80.8509L178.201 80.3048L178.477 79.7272L178.809 79.1234L179.182 78.4993L179.584 77.8615L180.001 77.2167L180.418 76.5719L180.82 75.934L181.193 75.3099L181.525 74.7061L181.801 74.1285L182.012 73.5824L182.148 73.0724L182.201 72.6022L182.166 72.1743L182.039 71.7905L181.819 71.4513L181.507 71.1561L181.107 70.9033L180.624 70.6903L180.066 70.5133L179.442 70.3679L178.764 70.2487L178.044 70.1498L177.294 70.0646L176.531 69.9864L175.767 69.9081L175.018 69.823L174.297 69.724L173.619 69.6048L172.995 69.4594L172.437 69.2824L171.954 69.0694L171.554 68.8166L171.242 68.5214L171.022 68.1822L170.895 67.7984L170.86 67.3706L170.913 66.9003L171.049 66.3903L171.26 65.8442L171.536 65.2666L171.868 64.6628L172.241 64.0387L172.643 63.4009" stroke="white" stroke-width="4" stroke-miterlimit="10" stroke-linecap="round"/>
<path d="M66.4604 235.964L66.8615 236.849L67.2625 237.712L67.6635 238.532L68.0645 239.289L68.4655 239.964L68.8665 240.54L69.2675 241.004L69.6685 241.344L70.0695 241.551L70.4705 241.621L70.8715 241.551L71.2725 241.344L71.6735 241.004L72.0745 240.54L72.4755 239.964L72.8765 239.289L73.2775 238.532L73.6785 237.712L74.0795 236.849L74.4805 235.964L74.8815 235.079L75.2825 234.216L75.6835 233.395L76.0845 232.638L76.4855 231.963L76.8865 231.387L77.2875 230.923L77.6885 230.583L78.0895 230.376L78.4905 230.307L78.8915 230.376L79.2925 230.583L79.6935 230.923L80.0945 231.387L80.4955 231.963L80.8965 232.638L81.2975 233.395L81.6985 234.216L82.0995 235.079L82.5005 235.964L82.9016 236.849L83.3026 237.712L83.7036 238.532L84.1046 239.289L84.5056 239.964L84.9066 240.54L85.3076 241.004L85.7086 241.344L86.1096 241.551L86.5106 241.621L86.9116 241.551L87.3126 241.344L87.7136 241.004L88.1146 240.54L88.5156 239.964L88.9166 239.289L89.3176 238.532L89.7186 237.712L90.1196 236.849L90.5206 235.964L90.9216 235.079L91.3226 234.216L91.7236 233.395L92.1246 232.638L92.5256 231.963L92.9266 231.387L93.3276 230.923L93.7286 230.583L94.1296 230.376L94.5306 230.307L94.9316 230.376L95.3326 230.583L95.7336 230.923L96.1346 231.387L96.5356 231.963L96.9366 232.638L97.3376 233.395L97.7386 234.216L98.1396 235.079L98.5406 235.964L98.9417 236.849L99.3427 237.712L99.7437 238.532L100.145 239.289L100.546 239.964L100.947 240.54L101.348 241.004L101.749 241.344L102.15 241.551L102.551 241.621L102.952 241.551L103.353 241.344L103.754 241.004L104.155 240.54L104.556 239.964L104.957 239.289L105.358 238.532L105.759 237.712L106.16 236.849L106.561 235.964L106.962 235.079L107.363 234.216L107.764 233.395L108.165 232.638L108.566 231.963L108.967 231.387L109.368 230.923L109.769 230.583L110.17 230.376L110.571 230.307L110.972 230.376L111.373 230.583L111.774 230.923L112.175 231.387L112.576 231.963L112.977 232.638L113.378 233.395L113.779 234.216L114.18 235.079L114.581 235.964L114.982 236.849L115.383 237.712L115.784 238.532L116.185 239.289L116.586 239.964L116.987 240.54L117.388 241.004L117.789 241.344L118.19 241.551L118.591 241.621L118.992 241.551L119.393 241.344L119.794 241.004L120.195 240.54L120.596 239.964L120.997 239.289L121.398 238.532L121.799 237.712L122.2 236.849L122.601 235.964L123.002 235.079L123.403 234.216L123.804 233.395L124.205 232.638L124.606 231.963L125.007 231.387L125.408 230.923L125.809 230.583L126.21 230.376L126.611 230.307L127.012 230.376L127.413 230.583L127.814 230.923L128.215 231.387L128.616 231.963L129.017 232.638L129.418 233.395L129.819 234.216L130.22 235.079L130.621 235.964L131.022 236.849L131.423 237.712L131.824 238.532L132.225 239.289L132.626 239.964L133.027 240.54L133.428 241.004L133.829 241.344L134.23 241.551L134.631 241.621L135.032 241.551L135.433 241.344L135.834 241.004L136.235 240.54L136.636 239.964L137.037 239.289L137.438 238.532L137.839 237.712L138.24 236.849L138.641 235.964L139.042 235.079L139.443 234.216L139.844 233.395L140.245 232.638L140.646 231.963L141.047 231.387L141.448 230.923L141.849 230.583L142.25 230.376L142.651 230.307L143.052 230.376L143.453 230.583L143.854 230.923L144.255 231.387L144.656 231.963L145.057 232.638L145.458 233.395L145.859 234.216L146.26 235.079L146.661 235.964L147.062 236.849L147.463 237.712L147.864 238.532L148.265 239.289L148.666 239.964L149.067 240.54L149.468 241.004L149.869 241.344L150.27 241.551L150.671 241.621L151.072 241.551L151.473 241.344L151.874 241.004L152.275 240.54L152.676 239.964L153.077 239.289L153.478 238.532L153.879 237.712L154.28 236.849L154.681 235.964L155.082 235.079L155.483 234.216L155.884 233.395L156.285 232.638L156.686 231.963L157.087 231.387L157.488 230.923L157.889 230.583L158.29 230.376L158.691 230.307L159.092 230.376L159.493 230.583L159.894 230.923L160.295 231.387L160.696 231.963L161.097 232.638L161.498 233.395L161.899 234.216L162.3 235.079L162.701 235.964L163.102 236.849L163.503 237.712L163.904 238.532L164.305 239.289L164.706 239.964L165.107 240.54L165.508 241.004L165.909 241.344L166.31 241.551L166.711 241.621L167.112 241.551L167.513 241.344L167.914 241.004L168.315 240.54L168.716 239.964L169.117 239.289L169.518 238.532L169.919 237.712L170.32 236.849L170.721 235.964L171.122 235.079L171.523 234.216L171.924 233.395L172.325 232.638L172.726 231.963L173.127 231.387L173.528 230.923L173.929 230.583L174.33 230.376L174.731 230.307L175.132 230.376L175.533 230.583L175.934 230.923L176.335 231.387L176.736 231.963L177.137 232.638L177.538 233.395L177.939 234.216L178.34 235.079L178.741 235.964L179.142 236.849L179.543 237.712L179.944 238.532L180.345 239.289L180.746 239.964L181.147 240.54L181.548 241.004L181.949 241.344L182.35 241.551L182.751 241.621L183.152 241.551L183.553 241.344L183.954 241.004L184.355 240.54L184.756 239.964L185.157 239.289L185.558 238.532L185.959 237.712L186.36 236.849L186.761 235.964L187.162 235.079L187.563 234.216L187.964 233.395L188.365 232.638L188.766 231.963L189.167 231.387L189.568 230.923L189.969 230.583L190.37 230.376L190.771 230.307L191.172 230.376L191.573 230.583L191.974 230.923L192.375 231.387L192.776 231.963L193.177 232.638L193.578 233.395L193.979 234.216L194.38 235.079L194.781 235.964L195.182 236.849L195.583 237.712L195.984 238.532L196.385 239.289L196.786 239.964L197.187 240.54L197.588 241.004L197.989 241.344L198.39 241.551L198.791 241.621L199.192 241.551L199.593 241.344L199.994 241.004L200.395 240.54L200.796 239.964L201.197 239.289L201.598 238.532L201.999 237.712L202.4 236.849L202.801 235.964L203.202 235.079L203.603 234.216L204.004 233.395L204.405 232.638L204.806 231.963L205.207 231.387L205.608 230.923L206.009 230.583L206.41 230.376L206.811 230.307L207.212 230.376L207.613 230.583L208.014 230.923L208.415 231.387L208.816 231.963L209.217 232.638L209.618 233.395L210.019 234.216L210.42 235.079L210.821 235.964L211.222 236.849L211.623 237.712L212.024 238.532L212.425 239.289L212.826 239.964L213.227 240.54L213.628 241.004L214.029 241.344L214.43 241.551L214.831 241.621L215.232 241.551L215.633 241.344L216.034 241.004L216.435 240.54L216.836 239.964L217.237 239.289L217.638 238.532L218.039 237.712L218.44 236.849L218.841 235.964L219.242 235.079L219.643 234.216L220.044 233.395L220.445 232.638L220.846 231.963L221.247 231.387L221.648 230.923L222.049 230.583L222.45 230.376L222.851 230.307L223.252 230.376L223.653 230.583L224.054 230.923L224.455 231.387L224.856 231.963L225.257 232.638L225.658 233.395L226.059 234.216L226.46 235.079" stroke="white" stroke-width="4" stroke-miterlimit="10" stroke-linecap="round"/>
<path d="M144.205 38.1797L128.735 55.4031L121.275 47.1875L135.357 36.8041L134.151 31.6998L116.913 28.3554L120.095 17.8304L141.495 26.5622L144.205 38.1797ZM174.969 46.1247L158.829 39.0709L155.034 42.5946L160.874 59.2122L150.051 61.6904L146.974 38.8055L155.648 30.7521L178.242 35.5154L174.969 46.1247ZM155.228 27.9448L143.844 24.3814L136.72 2.39404L147.452 -0.000403259L149.51 17.4382L154.512 19.0188L165.91 5.7442L173.55 13.7924L155.228 27.9448Z" fill="white"/>
<path d="M144.205 38.1797L128.735 55.4031L121.275 47.1875L135.357 36.8041L134.151 31.6998L116.913 28.3554L120.095 17.8304L141.495 26.5622L144.205 38.1797ZM174.969 46.1247L158.829 39.0709L155.034 42.5946L160.874 59.2122L150.051 61.6904L146.974 38.8055L155.648 30.7521L178.242 35.5154L174.969 46.1247ZM155.228 27.9448L143.844 24.3814L136.72 2.39404L147.452 -0.000403259L149.51 17.4382L154.512 19.0188L165.91 5.7442L173.55 13.7924L155.228 27.9448Z" stroke="white"/>
</svg>
