<svg xmlns="http://www.w3.org/2000/svg" viewBox="0 0 500 500"><g id="freepik--Graphics--inject-253"><path d="M396.49,95a.49.49,0,0,0,.15-.35V53.11l-1-.31V94.45l-11.32,11.32a.51.51,0,0,0-.14.36v10.08a2.49,2.49,0,1,0,1,0v-9.88Z" style="fill:#306EE8"></path><path d="M418.56,62.79v88.05a2.48,2.48,0,0,0-2.09,2.44v0a2.5,2.5,0,1,0,3.09-2.43V63.39Z" style="fill:#306EE8"></path><path d="M391.46,155.33V134l15.26-15.27a.47.47,0,0,0,.15-.35V56.8l-1-.42v61.79l-15.26,15.27a.49.49,0,0,0-.15.35v21.6a2.48,2.48,0,1,0,1-.06Z" style="fill:#306EE8"></path><g style="opacity:0.3"><path d="M396.49,95a.49.49,0,0,0,.15-.35V53.11l-1-.31V94.45l-11.32,11.32a.51.51,0,0,0-.14.36v10.08a2.49,2.49,0,1,0,1,0v-9.88Z"></path><path d="M418.56,62.79v88.05a2.48,2.48,0,0,0-2.09,2.44v0a2.5,2.5,0,1,0,3.09-2.43V63.39Z"></path><path d="M391.46,155.33V134l15.26-15.27a.47.47,0,0,0,.15-.35V56.8l-1-.42v61.79l-15.26,15.27a.49.49,0,0,0-.15.35v21.6a2.48,2.48,0,1,0,1-.06Z"></path></g><path d="M256.86,307.48l15.26-15.27a.51.51,0,0,0,.15-.35v-21.6a2.51,2.51,0,1,0-1,.05v21.34L256,306.92a.47.47,0,0,0-.15.35v51.5l1-.06Z" style="fill:#306EE8"></path><path d="M267.09,331.2l11.32-11.32a.54.54,0,0,0,.14-.36V309.44a2.49,2.49,0,1,0-1,0v9.88l-11.31,11.31a.47.47,0,0,0-.15.35V358l1-.1Z" style="fill:#306EE8"></path><path d="M243.17,359.07h1V274.81a2.48,2.48,0,0,0,2.09-2.44v0a2.5,2.5,0,1,0-3.09,2.42Z" style="fill:#306EE8"></path><g style="opacity:0.3"><path d="M256.86,307.48l15.26-15.27a.51.51,0,0,0,.15-.35v-21.6a2.51,2.51,0,1,0-1,.05v21.34L256,306.92a.47.47,0,0,0-.15.35v51.5l1-.06Z"></path><path d="M267.09,331.2l11.32-11.32a.54.54,0,0,0,.14-.36V309.44a2.49,2.49,0,1,0-1,0v9.88l-11.31,11.31a.47.47,0,0,0-.15.35V358l1-.1Z"></path><path d="M243.17,359.07h1V274.81a2.48,2.48,0,0,0,2.09-2.44v0a2.5,2.5,0,1,0-3.09,2.42Z"></path></g><path d="M305.4,84.52a15.13,15.13,0,1,0,10.69,18.54h0A15.15,15.15,0,0,0,305.4,84.52Zm10.16,18.39a14.58,14.58,0,0,1-28.16-7.56h0a14.58,14.58,0,1,1,28.16,7.56Z" style="fill:#306EE8"></path><path d="M320,84.07l2.22-4.66a.26.26,0,0,0-.07-.33l-4.56-3.82a.26.26,0,0,0-.33,0l-4.2,3a23.24,23.24,0,0,0-5.14-2.1L307.09,71a.27.27,0,0,0-.25-.23l-5.92-.54a.28.28,0,0,0-.29.18l-1.73,4.93a24.08,24.08,0,0,0-5.36,1.22l-3.73-3.77a.27.27,0,0,0-.33,0l-5.15,3a.27.27,0,0,0-.13.32l1.44,5.11a23.77,23.77,0,0,0-5.76,7.58l-5.39-.08a.27.27,0,0,0-.26.2l-1.55,5.75a.29.29,0,0,0,.13.31l4.74,2.65a23.68,23.68,0,0,0,.24,5.32l-4.5,3.06a.27.27,0,0,0-.09.32l2,5.59a.26.26,0,0,0,.29.18l5.43-.55a23.56,23.56,0,0,0,3.22,4.22l-1.95,5.09a.29.29,0,0,0,.1.33l4.87,3.41a.29.29,0,0,0,.34,0l4.11-3.55a25,25,0,0,0,3.61,1.29c.46.12.93.23,1.48.34l1.33,5.25a.28.28,0,0,0,.26.21h5.95a.26.26,0,0,0,.27-.2l1.32-5.18a24.49,24.49,0,0,0,5.16-1.6l4,3.47a.27.27,0,0,0,.33,0l4.88-3.43a.26.26,0,0,0,.09-.32l-1.84-4.92a23.38,23.38,0,0,0,3.38-4.35l5.24.49a.28.28,0,0,0,.29-.18l2-5.59a.25.25,0,0,0-.12-.25l-4.26-2.94a23.9,23.9,0,0,0,.27-5.54L329.83,95a.26.26,0,0,0,.13-.3L328.42,89a.27.27,0,0,0-.27-.21l-5.13,0A24.41,24.41,0,0,0,320,84.07Zm9.37,10.51-4.46,2.52a.3.3,0,0,0-.14.27,23.17,23.17,0,0,1-.28,5.76.26.26,0,0,0,.11.27l4.24,2.91-1.89,5.2-5.15-.52a.28.28,0,0,0-.27.14,23.75,23.75,0,0,1-3.5,4.5.28.28,0,0,0-.08.29l1.84,4.89L315.28,124l-4-3.45a.26.26,0,0,0-.29,0,23.58,23.58,0,0,1-5.38,1.65.28.28,0,0,0-.22.2l-1.28,5.17h-5.53l-1.31-5.21a.32.32,0,0,0-.21-.21,15.12,15.12,0,0,1-1.61-.36,23.86,23.86,0,0,1-3.69-1.33.26.26,0,0,0-.29,0l-4.1,3.52-4.53-3.17,1.94-5.06a.31.31,0,0,0-.06-.29,23.52,23.52,0,0,1-3.36-4.4.28.28,0,0,0-.26-.13l-5.41.55-1.88-5.19,4.49-3a.29.29,0,0,0,.12-.27,22.84,22.84,0,0,1-.25-5.54.27.27,0,0,0-.14-.26l-4.71-2.63,1.44-5.34,5.35.07a.26.26,0,0,0,.25-.15,23.31,23.31,0,0,1,5.82-7.67.29.29,0,0,0,.08-.29l-1.43-5.08,4.79-2.76,3.66,3.74a.28.28,0,0,0,.29.08,22.92,22.92,0,0,1,5.55-1.26.26.26,0,0,0,.23-.18l1.73-4.9,5.5.49.85,5.08a.3.3,0,0,0,.2.22A23.42,23.42,0,0,1,313,78.76a.27.27,0,0,0,.3,0l4.16-3,4.23,3.55L319.46,84a.28.28,0,0,0,0,.29,24.25,24.25,0,0,1,3.11,4.89.26.26,0,0,0,.24.16l5.11,0Z" style="fill:#306EE8"></path><path d="M356.13,125.42,358.4,122a.29.29,0,0,0,0-.36l-4.72-4a.29.29,0,0,0-.37,0l-3,2.83a19.54,19.54,0,0,0-4.18-1.71l-.11-4.14a.27.27,0,0,0-.25-.27l-6.16-.54a.27.27,0,0,0-.3.22l-.84,4.09a19.73,19.73,0,0,0-4.35,1l-2.51-3.39a.28.28,0,0,0-.35-.09l-5.36,3.09a.27.27,0,0,0-.1.35l1.69,3.91a19.92,19.92,0,0,0-4.73,6.23l-4.27-.63a.29.29,0,0,0-.31.2l-1.6,6a.28.28,0,0,0,.16.33l4,1.61a20,20,0,0,0,.19,4.31L317,143a.27.27,0,0,0-.14.34l2.12,5.83a.26.26,0,0,0,.32.17l4.26-1a19.41,19.41,0,0,0,2.61,3.43l-2.08,3.84a.29.29,0,0,0,.08.36l5.07,3.56a.27.27,0,0,0,.36-.05l2.89-3.26a19.66,19.66,0,0,0,3,1.05c.36.1.74.19,1.18.28l.5,4.3a.27.27,0,0,0,.27.25h6.19a.29.29,0,0,0,.28-.25l.49-4.25a20.08,20.08,0,0,0,4.21-1.29l2.82,3.18a.28.28,0,0,0,.37.05l5.07-3.55a.28.28,0,0,0,.09-.35l-2-3.7a19.51,19.51,0,0,0,2.75-3.52l4.06,1a.27.27,0,0,0,.32-.17l2.09-5.82v0A.26.26,0,0,0,364,143l-3.7-1.86a20,20,0,0,0,.22-4.51l3.83-1.51a.27.27,0,0,0,.16-.33l-1.59-6a.29.29,0,0,0-.31-.2l-4.06.6A20.06,20.06,0,0,0,356.13,125.42Zm7.83,9.32-3.79,1.49a.28.28,0,0,0-.17.28,19.62,19.62,0,0,1-.23,4.78.27.27,0,0,0,.14.3l3.66,1.83-2,5.35-4-1a.25.25,0,0,0-.29.13,19.15,19.15,0,0,1-2.92,3.73.27.27,0,0,0,0,.32l2,3.69L351.63,159l-2.79-3.15a.28.28,0,0,0-.32-.09,19.37,19.37,0,0,1-4.46,1.38.28.28,0,0,0-.23.24l-.49,4.21h-5.69l-.49-4.26a.29.29,0,0,0-.22-.24,11.3,11.3,0,0,1-1.34-.3,19.58,19.58,0,0,1-3.06-1.1.27.27,0,0,0-.32.06l-2.86,3.22-4.66-3.27,2.07-3.8a.27.27,0,0,0,0-.32,19.72,19.72,0,0,1-2.79-3.65.26.26,0,0,0-.3-.13l-4.21,1-1.95-5.35,3.87-1.94a.28.28,0,0,0,.15-.29,18.65,18.65,0,0,1-.21-4.6.26.26,0,0,0-.18-.27l-4-1.6,1.47-5.47,4.24.62a.29.29,0,0,0,.29-.16,19.06,19.06,0,0,1,4.83-6.36A.28.28,0,0,0,328,123l-1.67-3.86,4.91-2.86,2.49,3.35a.28.28,0,0,0,.31.08,19.23,19.23,0,0,1,4.62-1,.27.27,0,0,0,.24-.22l.83-4,5.68.49.11,4.1a.27.27,0,0,0,.2.26,19.41,19.41,0,0,1,4.43,1.82.27.27,0,0,0,.32,0l3-2.8,4.37,3.66-2.25,3.4a.29.29,0,0,0,0,.33,19.35,19.35,0,0,1,2.59,4,.29.29,0,0,0,.29.16l4-.6Z" style="fill:#306EE8"></path><path d="M343.92,125.77a12.63,12.63,0,1,0,8.92,15.48h0A12.65,12.65,0,0,0,343.92,125.77Zm8.39,15.35A12.09,12.09,0,1,1,329,134.84h0a12.09,12.09,0,0,1,14.79-8.53h0A12.09,12.09,0,0,1,352.31,141.12Z" style="fill:#306EE8"></path><path d="M300.89,139.91l-.94-3.52a.14.14,0,0,0-.17-.11l-2.39.35a11.71,11.71,0,0,0-1.44-2.24l1.34-2a.18.18,0,0,0,0-.22l-2.78-2.33a.15.15,0,0,0-.21,0l-1.76,1.66a11.69,11.69,0,0,0-2.46-1L290,128a.15.15,0,0,0-.14-.15l-3.63-.32a.16.16,0,0,0-.17.13l-.5,2.4a11.66,11.66,0,0,0-2.55.59l-1.48-2a.16.16,0,0,0-.21-.06l-3.15,1.82a.15.15,0,0,0,0,.2l1,2.3a11.58,11.58,0,0,0-2.78,3.66l-2.51-.36a.17.17,0,0,0-.18.11l-.95,3.52a.16.16,0,0,0,.1.19l2.37.95a12,12,0,0,0,.12,2.54l-2.3,1.14a.16.16,0,0,0-.08.2l1.24,3.43a.16.16,0,0,0,.19.1l2.51-.59a11.47,11.47,0,0,0,1.53,2l-1.22,2.26a.16.16,0,0,0,.05.21l3,2.09a.15.15,0,0,0,.21,0l1.7-1.92a12,12,0,0,0,1.74.62c.21.05.43.11.7.16l.29,2.53a.16.16,0,0,0,.16.15h3.64a.16.16,0,0,0,.16-.14l.29-2.5a11.8,11.8,0,0,0,2.47-.77l1.66,1.88a.18.18,0,0,0,.22,0l3-2.09a.18.18,0,0,0,.06-.21L295.26,150a12,12,0,0,0,1.61-2.07l2.39.57a.17.17,0,0,0,.19-.1l1.23-3.42v0a.16.16,0,0,0-.09-.2l-2.18-1.09a11.17,11.17,0,0,0,.13-2.65l2.26-.89A.14.14,0,0,0,300.89,139.91Zm-2.56.83a.16.16,0,0,0-.1.17,11.5,11.5,0,0,1-.14,2.81.15.15,0,0,0,.09.17l2.15,1.08-1.15,3.15-2.37-.57a.18.18,0,0,0-.18.08,11.39,11.39,0,0,1-1.71,2.2.17.17,0,0,0,0,.19l1.16,2.16-2.74,1.92-1.65-1.85a.14.14,0,0,0-.18-.05,12,12,0,0,1-2.63.81.16.16,0,0,0-.13.14l-.29,2.47h-3.34l-.29-2.51a.17.17,0,0,0-.13-.14,6,6,0,0,1-.79-.17,12.45,12.45,0,0,1-1.8-.65.16.16,0,0,0-.19,0l-1.68,1.89-2.74-1.92,1.22-2.24a.17.17,0,0,0,0-.19,11,11,0,0,1-1.63-2.15.16.16,0,0,0-.18-.07l-2.48.59L273.23,145l2.27-1.14a.17.17,0,0,0,.09-.17,11.62,11.62,0,0,1-.13-2.7.14.14,0,0,0-.1-.16l-2.35-.94.86-3.22,2.5.36a.14.14,0,0,0,.16-.09,11.36,11.36,0,0,1,2.85-3.74.18.18,0,0,0,.05-.19l-1-2.27,2.89-1.68,1.46,2a.19.19,0,0,0,.19.05,11.35,11.35,0,0,1,2.71-.62.15.15,0,0,0,.14-.13l.49-2.38,3.34.3.07,2.41a.15.15,0,0,0,.11.15,10.79,10.79,0,0,1,2.61,1.07.17.17,0,0,0,.19,0l1.74-1.64,2.56,2.15-1.32,2a.18.18,0,0,0,0,.19,11.3,11.3,0,0,1,1.53,2.39.17.17,0,0,0,.17.09l2.36-.35.87,3.23Z" style="fill:#306EE8"></path><path d="M288.77,134.59a7.43,7.43,0,1,0,5.25,9.1h0A7.44,7.44,0,0,0,288.77,134.59Zm4.94,9A7.11,7.11,0,0,1,280,139.92h0a7.11,7.11,0,0,1,8.7-5h0A7.1,7.1,0,0,1,293.71,143.61Z" style="fill:#306EE8"></path><path d="M197.19,148.9a.32.32,0,0,0-.29-.27l-6-.46a28,28,0,0,0-3-5.62l3.09-5.29a.33.33,0,0,0-.05-.39L186.09,132a.3.3,0,0,0-.39,0l-5.28,3.14a27.37,27.37,0,0,0-10.2-4.16l-1.52-6a.32.32,0,0,0-.31-.24h-6.88a.32.32,0,0,0-.31.24L159.66,131a28,28,0,0,0-5.87,1.86L149,128.73a.33.33,0,0,0-.4,0l-5.63,4a.31.31,0,0,0-.12.37l2.25,5.9a28.18,28.18,0,0,0-3.75,4.87l-6.27-.65a.33.33,0,0,0-.34.21l-2.35,6.46a.31.31,0,0,0,.12.37l5.2,3.53a27.26,27.26,0,0,0-.36,4.42c0,.55,0,1.11.06,1.76L132,163a.31.31,0,0,0-.15.36l1.76,6.64a.31.31,0,0,0,.32.24l6.18-.08a28.2,28.2,0,0,0,3.33,5.29L140.74,181a.31.31,0,0,0,.09.38l5.28,4.43a.32.32,0,0,0,.39,0l4.95-3.53a27.55,27.55,0,0,0,5.87,2.47l1,6a.34.34,0,0,0,.29.27l6.85.58a.32.32,0,0,0,.25-.21l2-5.64a27.62,27.62,0,0,0,6.28-1.36l4.19,4.25a.33.33,0,0,0,.38.06l6-3.45a.34.34,0,0,0,.15-.36l-1.58-5.73a28.41,28.41,0,0,0,4.35-4.75l5.88,1.08a.31.31,0,0,0,.34-.18l2.91-6.24a.33.33,0,0,0-.09-.38l-4.59-3.79a27.39,27.39,0,0,0,.81-6.37l5.46-2.49a.33.33,0,0,0,.19-.34Zm-32.11,26.15a16.86,16.86,0,0,1,0-33.72h0a16.87,16.87,0,0,1,0,33.73Z" style="fill:#306EE8;stroke:#263238;stroke-linecap:round;stroke-linejoin:round"></path><path d="M160.09,205.14a.33.33,0,0,0-.34-.26l-4.82.29a22.72,22.72,0,0,0-2.42-4.57l3-3.82a.33.33,0,0,0,0-.42l-5.06-5.06a.31.31,0,0,0-.42,0l-3.86,3.06a22.66,22.66,0,0,0-8.38-3.41l-.59-5a.31.31,0,0,0-.31-.28h-7.16a.32.32,0,0,0-.32.28l-.58,5a22.79,22.79,0,0,0-4.77,1.5l-3.34-3.77a.31.31,0,0,0-.43-.05l-5.87,4.11a.32.32,0,0,0-.1.41l2.41,4.45a22.88,22.88,0,0,0-3,4l-4.92-1.17a.31.31,0,0,0-.37.2L106,207.33a.31.31,0,0,0,.16.4l4.51,2.25a23.15,23.15,0,0,0-.29,3.62c0,.43,0,.88,0,1.4l-4.67,1.84a.32.32,0,0,0-.19.38l1.85,6.92a.31.31,0,0,0,.35.24l4.9-.73a23,23,0,0,0,2.71,4.31l-2.72,4.11a.34.34,0,0,0,.06.43l5.49,4.6a.33.33,0,0,0,.42,0l3.53-3.35a22.67,22.67,0,0,0,4.76,2l.13,4.84a.31.31,0,0,0,.29.3l7.13.59h0a.32.32,0,0,0,.33-.27l1-4.7a22.75,22.75,0,0,0,5.1-1.1l2.85,3.83a.31.31,0,0,0,.41.08l6.2-3.58a.32.32,0,0,0,.13-.4L148.57,231a23.49,23.49,0,0,0,3.53-3.86l4.51,1.5a.32.32,0,0,0,.39-.17l3-6.46a.32.32,0,0,0-.13-.4l-4.05-2.5a23.12,23.12,0,0,0,.66-5.18l4.59-1.37a.31.31,0,0,0,.23-.36Zm-12.69,8.45a14,14,0,1,1-14-14v0a14,14,0,0,1,14,14Z" style="fill:#306EE8;stroke:#263238;stroke-linecap:round;stroke-linejoin:round"></path></g><g id="freepik--Shadow--inject-253"><ellipse cx="248.07" cy="406.4" rx="192.12" ry="39.56" style="fill:#306EE8"></ellipse><ellipse cx="248.07" cy="406.4" rx="192.12" ry="39.56" style="fill:#fff;opacity:0.5"></ellipse></g><g id="freepik--robot-hand--inject-253"><circle cx="395.87" cy="221.04" r="46.03" style="fill:#263238"></circle><polygon points="458.75 253.2 442.62 297.4 371.38 280.65 362.19 276.38 362.26 276.22 389.6 214.43 402.25 221.52 458.75 253.2" style="fill:#fff"></polygon><path d="M402.25,221.52,375.2,278.37c-6.35.28-10.39-.68-12.94-2.15l27.34-61.79Z" style="fill:#306EE8"></path><polygon points="458.75 253.2 442.62 297.4 371.38 280.64 362.19 276.37 389.6 214.43 458.75 253.2" style="fill:none;stroke:#263238;stroke-linecap:round;stroke-linejoin:round"></polygon><path d="M380.05,243.9s14,25.79,35.84,30.08,36.93-16.59,36.93-16.59l-58.67-27.73Z" style="fill:#306EE8"></path><path d="M183.85,254.15l14.8-17.2-7.85-3.29L189.24,237Z" style="fill:#fff"></path><polygon points="234.59 266.07 224.84 281.96 239.99 271.11 242.35 268.56 235.1 263.68 234.59 266.07" style="fill:#fff"></polygon><path d="M366,268.83l1.47-4.33-2.21,9.36,10,4.51s17.91-4.13,35.3,2.48-12.89,21.35-12.89,21.35l-22.41,7.47-24.84-.81,4-18.78S357.55,273,366,268.83Z" style="fill:#263238"></path><path d="M439.72,389.15c-4.37,10.47-9.53,20.36-20.45,25.19-10,4.42-30.87,7.69-47.54,4.46a47.74,47.74,0,0,1-8.65-2.45c-11.36-4.49-31.4-18.7-44.39-30.66-6.8-6.26-11.66-11.9-12.35-15.22-1.38-6.65,8.87-30.09,20-50.35A230.36,230.36,0,0,1,341,296.43c14.08-19.32,24.33-27,24.33-27s-14.27,20.2-5.4,26.23,27.35-14.48,46.26-15c8.46-.22,18.61,3.4,27.24,7.46a153.37,153.37,0,0,1,19,10.73C456.66,328.9,451.37,361.24,439.72,389.15Z" style="fill:#fff"></path><path d="M398,306c-1.16,2-2.25,4-3.28,6.07a270.81,270.81,0,0,0-28.43,100.54" style="fill:none;stroke:#263238;stroke-linecap:round;stroke-linejoin:round"></path><path d="M417.88,286.82c-5.66,2-10.22,5.9-14,10.58" style="fill:none;stroke:#263238;stroke-linecap:round;stroke-linejoin:round"></path><path d="M439.72,389.15c-4.37,10.47-9.53,20.36-20.45,25.19-10,4.42-30.87,7.69-47.54,4.46-2.57-26.72,20.66-100.42,33.87-116.42,13.56-16.42,27.75-14.28,27.75-14.28h0a153.37,153.37,0,0,1,19,10.73C456.66,328.9,451.37,361.24,439.72,389.15Z" style="fill:#306EE8"></path><path d="M280.23,170.94c-9.7-6.77-20.91-7.45-25-1.52L233,204.54l26.12,19s30.53-28.7,31.18-29.64C294.44,188,289.93,177.71,280.23,170.94Z" style="fill:#263238"></path><path d="M259.16,222.79c-3.08,4.42-11.43,3.91-18.66-1.13S229.92,209,233,204.54s11.43-3.91,18.66,1.13S262.24,218.38,259.16,222.79Z" style="fill:#fff;stroke:#263238;stroke-linecap:round;stroke-linejoin:round"></path><polyline points="238.8 236.95 241.53 232.97 225.33 221.96 222.42 225.61" style="fill:#fff;stroke:#263238;stroke-linecap:round;stroke-linejoin:round"></polyline><polyline points="234.9 265.57 224.24 282.39 240.74 270.58" style="fill:none;stroke:#263238;stroke-linecap:round;stroke-linejoin:round"></polyline><polyline points="196.98 238.84 183.38 254.7 190.02 235.36" style="fill:none;stroke:#263238;stroke-linecap:round;stroke-linejoin:round"></polyline><path d="M248,209c-5.21-3.63-11.5-3.76-13.72-.58l-2.9,2.44,2.73,2.34a15.07,15.07,0,0,0,5.85,7.31,16.54,16.54,0,0,0,6.59,2.81l2.94,2.82s3.65-4.44,3.91-4.81C255.57,218.18,253.15,212.66,248,209Z" style="fill:#263238"></path><path d="M250.51,224.42c-2.22,3.18-8.23,2.82-13.43-.81s-7.63-9.15-5.41-12.33,8.24-2.81,13.44.82S252.73,221.24,250.51,224.42Z" style="fill:#fff;stroke:#263238;stroke-linecap:round;stroke-linejoin:round"></path><path d="M244.15,218.66l-7.68,11-5.93-4.13L238,214.87a5.25,5.25,0,0,1,3.45.53A5,5,0,0,1,244.15,218.66Z" style="fill:#263238"></path><path d="M238,243.83l3.69-4.9-22.24-15.4-3.36,5.12-23.93,2.86-2.2,3.55,7,3.77c7.39-.2,14.65,2.44,21,6.11,6.06,3.52,11.44,7.91,14.62,14.28a27.61,27.61,0,0,1,1.26,2.9c.26.67.5,2.66,1,3.1l5.93,5.36,2.6-3.26Z" style="fill:#fff;stroke:#263238;stroke-linecap:round;stroke-linejoin:round"></path><polygon points="220.87 229.47 214.57 238.32 228.85 248.52 235.1 239.64 220.87 229.47" style="fill:#306EE8;stroke:#263238;stroke-linecap:round;stroke-linejoin:round"></polygon><path d="M405.36,209.72a108.78,108.78,0,0,1-9.65,17.67c-12.34,18.52-27.29,30.24-33.4,26.17L322.36,227,361,168.88l2.54-3.81L406,186a5.59,5.59,0,0,1,.95.47C411.1,189.21,410.16,198.38,405.36,209.72Z" style="fill:#fff"></path><path d="M405.36,209.72l-4.22-2.17-21.81-13.07-1.61-11.15-13.23-7.58L361,168.88l2.54-3.81L406,186a5.59,5.59,0,0,1,.95.47C411.1,189.21,410.16,198.38,405.36,209.72Z" style="fill:#306EE8"></path><path d="M345.22,242.18c11.08-7.84,37.76-30.34,40-66.43" style="fill:none;stroke:#263238;stroke-linecap:round;stroke-linejoin:round"></path><path d="M407,186.47A4.94,4.94,0,0,0,406,186l-42.46-20.93L322.36,227l39.95,26.6c6.11,4.07,21.06-7.65,33.4-26.18S413.1,190.54,407,186.47Z" style="fill:none;stroke:#263238;stroke-linecap:round;stroke-linejoin:round"></path><path d="M353.17,202.81C341.79,219.9,328,230.71,322.36,227s-1-20.65,10.4-37.74S358,161,363.67,164.74,364.56,185.72,353.17,202.81Z" style="fill:#263238"></path><path d="M357.66,184.71A73.92,73.92,0,0,1,350.11,199c-8.69,13-19.23,21.31-23.53,18.44-.56-.36-27.87-19.15-27.87-19.15l28.09-42.95.24.11,30.34,14.4a3.21,3.21,0,0,1,.67.33C360.71,172,360.37,177.6,357.66,184.71Z" style="fill:#fff"></path><path d="M357.66,184.71l-12.44-6.66-4.55-7.86L328.53,164,327,155.47l30.34,14.4a3.21,3.21,0,0,1,.67.33C360.71,172,360.37,177.6,357.66,184.71Z" style="fill:#306EE8"></path><path d="M313.71,208.28c6.24-4,27.37-18.49,27.59-45.68" style="fill:none;stroke:#263238;stroke-linecap:round;stroke-linejoin:round"></path><path d="M335,215.73l-9.08-6.17s4.2-3.81,8-7.49l9.1,6Z" style="fill:#306EE8"></path><path d="M357.66,184.71A73.92,73.92,0,0,1,350.11,199c-8.69,13-19.23,21.31-23.53,18.44-.56-.36-27.87-19.15-27.87-19.15l28.09-42.95.24.11,30.34,14.4a3.21,3.21,0,0,1,.67.33C360.71,172,360.37,177.6,357.66,184.71Z" style="fill:none;stroke:#263238;stroke-linecap:round;stroke-linejoin:round"></path><ellipse cx="312.95" cy="176.92" rx="26.19" ry="8.64" transform="translate(-7.77 339.34) rotate(-56.34)" style="fill:#263238"></ellipse><ellipse cx="311.19" cy="175.75" rx="20.98" ry="6.92" transform="matrix(0.55, -0.83, 0.83, 0.55, -7.58, 337.35)" style="fill:#fff;stroke:#263238;stroke-linecap:round;stroke-linejoin:round"></ellipse><circle cx="421.43" cy="223.11" r="39.37" style="fill:#263238"></circle><circle cx="428.97" cy="227.44" r="39.37" style="fill:#fff;stroke:#263238;stroke-linecap:round;stroke-linejoin:round"></circle><circle cx="431.72" cy="224.39" r="22.15" transform="translate(114.97 593.71) rotate(-76.84)" style="fill:#306EE8"></circle><circle cx="428.97" cy="227.44" r="21.32" style="fill:#fff;stroke:#263238;stroke-linecap:round;stroke-linejoin:round"></circle><path d="M438.67,227.44a9.7,9.7,0,1,1-9.7-9.69A9.7,9.7,0,0,1,438.67,227.44Z" style="fill:#263238"></path><path d="M321.4,344.75,326.2,356s-5.7,16.73-7.51,29.73c-6.8-6.26-11.66-11.9-12.35-15.22-1.38-6.65,8.87-30.09,20-50.35l4.67,3.12S324.22,336.52,321.4,344.75Z" style="fill:#306EE8"></path><path d="M433,227.44a9.72,9.72,0,0,1-6.87,9.29,9.7,9.7,0,0,1,0-18.56A9.69,9.69,0,0,1,433,227.44Z" style="fill:#fff;stroke:#263238;stroke-linecap:round;stroke-linejoin:round"></path><path d="M452.42,298.84s-27.37-18.68-46.28-18.2-37.39,21-46.26,15,5.4-26.23,5.4-26.23-10.25,7.72-24.33,27-36.63,64.39-34.61,74.05,39.43,39,56.74,45.88,44.37,3.22,56.19-2c10.92-4.84,16.07-14.72,20.45-25.19C451.37,361.24,456.66,328.89,452.42,298.84Z" style="fill:none;stroke:#263238;stroke-linecap:round;stroke-linejoin:round"></path><path d="M313,175.75a14.17,14.17,0,0,1-7,5.59l-24.15-14.2a7.73,7.73,0,0,1-3.66-8.95c1.55-4.77,8.12-7.82,12.21-5.45l24,15.69.24.15C315.09,170.26,315.21,172.15,313,175.75Z" style="fill:#263238"></path><path d="M294.61,161.68c.18,4.95,2.14,11.91-1.77,14.38-1.95,1.23-8.29,0-11.19-.46-7.34-1.18-13.66-5.54-13.92-13a13.45,13.45,0,0,1,13-13.92c5.53-.19,17.27-.67,19.5,4C301,154.34,294.54,159.78,294.61,161.68Z" style="fill:#263238"></path><circle cx="291.06" cy="162.61" r="13.45" transform="translate(99.21 435.29) rotate(-84.06)" style="fill:#fff;stroke:#263238;stroke-linecap:round;stroke-linejoin:round"></circle><path d="M292.48,172a1.09,1.09,0,1,1-1.12-1A1.08,1.08,0,0,1,292.48,172Z" style="fill:#263238"></path><path d="M291.83,153.78a1.08,1.08,0,0,1-1,1.13,1.09,1.09,0,1,1-.08-2.17A1.08,1.08,0,0,1,291.83,153.78Z" style="fill:#263238"></path><path d="M301.76,161.63a1.09,1.09,0,1,1-1.13-1A1.08,1.08,0,0,1,301.76,161.63Z" style="fill:#263238"></path><path d="M283.34,162.28a1.09,1.09,0,1,1-1.12-1A1.08,1.08,0,0,1,283.34,162.28Z" style="fill:#263238"></path><path d="M295.16,162.47a4.1,4.1,0,1,1-4.24-4A4.1,4.1,0,0,1,295.16,162.47Z" style="fill:#263238"></path></g></svg>