<?xml version="1.0" encoding="UTF-8"?>
<svg id="Layer_2" data-name="Layer 2" xmlns="http://www.w3.org/2000/svg" viewBox="0 0 297.41 349.96">
  <defs>
    <style>
      .cls-1 {
        fill: #eeffbe;
      }

      .cls-2 {
        fill: #14434a;
      }

      .cls-3 {
        fill: #4cd85d;
      }

      .cls-4 {
        fill: #103c4d;
      }

      .cls-5 {
        fill: #259548;
      }

      .cls-6 {
        fill: #29b55a;
      }

      .cls-7 {
        fill: #249b45;
      }

      .cls-8 {
        fill: #17544c;
      }

      .cls-9 {
        fill: #147b4a;
      }

      .cls-10 {
        fill: #80fc63;
      }

      .cls-11 {
        fill: #188d46;
      }

      .cls-12 {
        fill: #71f93b;
      }

      .cls-13 {
        fill: #15604a;
      }

      .cls-14 {
        fill: #124548;
      }

      .cls-15 {
        fill: #c1fe56;
      }

      .cls-16 {
        fill: #1d9644;
      }

      .cls-17 {
        fill: #0a6048;
      }

      .cls-18 {
        fill: #1e784c;
      }

      .cls-19 {
        fill: #17744d;
      }

      .cls-20 {
        fill: #1daa44;
      }

      .cls-21 {
        fill: #51e651;
      }

      .cls-22 {
        stroke: #147248;
      }

      .cls-22, .cls-23, .cls-24 {
        fill: none;
        stroke-linecap: round;
        stroke-linejoin: round;
        stroke-width: .9px;
      }

      .cls-25 {
        fill: #37c23d;
      }

      .cls-26 {
        fill: #7ffc5c;
      }

      .cls-27 {
        fill: #56e644;
      }

      .cls-28 {
        fill: #136c4e;
      }

      .cls-29 {
        fill: #15574d;
      }

      .cls-30 {
        fill: #43c63f;
      }

      .cls-31 {
        fill: #127f4d;
      }

      .cls-32 {
        fill: #19824b;
      }

      .cls-33 {
        fill: #39e44b;
      }

      .cls-34 {
        fill: #17804c;
      }

      .cls-35 {
        fill: #48ec62;
      }

      .cls-36 {
        fill: #30bd40;
      }

      .cls-37 {
        fill: #6ffc52;
      }

      .cls-38 {
        fill: #f0fecb;
      }

      .cls-39 {
        fill: #49e934;
      }

      .cls-40 {
        fill: #2ba143;
      }

      .cls-41 {
        fill: #7ef951;
      }

      .cls-42 {
        fill: #2aa74c;
      }

      .cls-43 {
        fill: #d7fe6f;
      }

      .cls-44 {
        fill: #91fd40;
      }

      .cls-45 {
        fill: #8cfb3e;
      }

      .cls-46 {
        fill: #0a8f51;
      }

      .cls-47 {
        fill: #2aaf44;
      }

      .cls-48 {
        fill: #c3ff6e;
      }

      .cls-49 {
        fill: #3ead7c;
      }

      .cls-50 {
        fill: #90fa47;
      }

      .cls-51 {
        fill: #0f9f46;
      }

      .cls-52 {
        fill: #c1ff5a;
      }

      .cls-53 {
        fill: #6bf23d;
      }

      .cls-54 {
        fill: #0a7e4a;
      }

      .cls-55 {
        fill: #43e357;
      }

      .cls-23 {
        stroke: #1fa144;
      }

      .cls-24 {
        stroke: #37bf42;
      }

      .cls-56 {
        fill: #4dec33;
      }

      .cls-57 {
        fill: #1f6951;
      }

      .cls-58 {
        fill: #76ef4b;
      }

      .cls-59 {
        fill: #4bd346;
      }

      .cls-60 {
        fill: #16a84a;
      }

      .cls-61 {
        fill: #1eb44f;
      }

      .cls-62 {
        fill: #d8fe71;
      }

      .cls-63 {
        fill: #12864b;
      }

      .cls-64 {
        fill: #bbfd5a;
      }

      .cls-65 {
        fill: #22864d;
      }

      .cls-66 {
        fill: #1d834a;
      }

      .cls-67 {
        fill: #12604c;
      }

      .cls-68 {
        fill: #23ca3d;
      }

      .cls-69 {
        fill: #7dfe47;
      }

      .cls-70 {
        fill: #28af47;
      }

      .cls-71 {
        fill: #38cb4c;
      }

      .cls-72 {
        fill: #1f7850;
      }

      .cls-73 {
        fill: #40f951;
      }

      .cls-74 {
        fill: #46eb35;
      }

      .cls-75 {
        fill: #e6fec0;
      }

      .cls-76 {
        fill: #fdfeef;
      }

      .cls-77 {
        fill: #133744;
      }

      .cls-78 {
        fill: #19a344;
      }

      .cls-79 {
        fill: #18694a;
      }

      .cls-80 {
        fill: #a2ff7b;
      }

      .cls-81 {
        fill: #2eba3b;
      }

      .cls-82 {
        fill: #145550;
      }

      .cls-83 {
        fill: #59fa53;
      }

      .cls-84 {
        fill: #ddfe73;
      }

      .cls-85 {
        fill: #f9ffd3;
      }

      .cls-86 {
        fill: #15694f;
      }

      .cls-87 {
        fill: #23954a;
      }

      .cls-88 {
        fill: #148b50;
      }

      .cls-89 {
        fill: #f8ffe4;
      }

      .cls-90 {
        fill: #19975b;
      }

      .cls-91 {
        fill: #84fa3b;
      }

      .cls-92 {
        fill: #fcfee2;
      }

      .cls-93 {
        fill: #5ee339;
      }

      .cls-94 {
        fill: #22cd51;
      }

      .cls-95 {
        fill: #92ff37;
      }

      .cls-96 {
        fill: #0c784d;
      }

      .cls-97 {
        fill: #107a4f;
      }

      .cls-98 {
        fill: #1e6b45;
      }

      .cls-99 {
        fill: #1e8c4c;
      }

      .cls-100 {
        fill: #bcfe4f;
      }

      .cls-101 {
        fill: #1db051;
      }

      .cls-102 {
        fill: #9aff40;
      }

      .cls-103 {
        fill: #2aa43d;
      }

      .cls-104 {
        fill: #70fa48;
      }

      .cls-105 {
        fill: #b0ff7b;
      }

      .cls-106 {
        fill: #125b4b;
      }

      .cls-107 {
        fill: #14684a;
      }

      .cls-108 {
        fill: #87f93b;
      }

      .cls-109 {
        fill: #f7feb9;
      }
    </style>
  </defs>
  <g id="Layer_1-2" data-name="Layer 1">
    <g id="Generative_Object" data-name="Generative Object">
      <g>
        <g>
          <path class="cls-79" d="M213.37,293.57c1.03,3.75-.51,8.53.43,11.63-.08,1.08-1.23,1.73-1.07,3.23.12,1.25,1.25,4.06.07,5.13l-59.26,34.68c-1.76,1.03-2.98,1.6-4.52,1.71l-.47-70.93c4.7-2.31,9.32-5.09,13.58-8.42,3.48-2.72,7.4-4.72,11.13-6.84.17.09.7-.19.73-.01.03.19.21.53.21.93l-.12,31.46c-.02,6.03-5.68,3.87-5.6,10.16.06,4.9,7.97,8.23,9.94,7.09l31.47-18.24c1.23-.71,2.19-1.49,3.48-1.59Z"/>
          <path class="cls-75" d="M109.5,188.87c2.25-.09,3.61,2.41,3.9,4.63-.6,1.19-1.66,1.32-1.9,2.25-1.8-.12-3.17-1.13-3.62-3.17-.2-.91-.75-1.74-.13-2.67.4-.6.9-.98,1.75-1.05Z"/>
          <g>
            <path class="cls-27" d="M174.93,260.53c0,.73.2,1.79-.01,2.48-.69-.09-1.2.49-1.65.75-3.74,2.12-7.65,4.12-11.13,6.84-4.26,3.32-8.89,6.11-13.58,8.42l-8.64-5.76c-.29-.39-.52-.43-.42-.58.11-.17.58-.54.96-.33l8.39,4.64,10.49-6.06c1.28-.74,1.99-1.87,2.6-2.73,4.1-2.45,8.51-4.63,12.2-7.56l.8-.1Z"/>
            <path class="cls-72" d="M174.13,260.63c-3.69,2.93-8.1,5.11-12.2,7.56-.16-.58.02-1.13.02-1.71.32.25.48-.22.54-.42.05-.18-.16-.64.05-.77l11.17-6.89c.85.92.34,1.53.42,2.22Z"/>
            <path class="cls-43" d="M212.91,136.78c-.22.03-.44-.05-.67,0-.19.04-.3.26-.23.49l-60.74,35.79c-1.42,1-1.45,2.86-2.76,3.38-.01-1.6-1.97-3.21-3.17-3.98l-6.54-4.19c.63-.57,1.18-1.06,2.03-2.18,4.28,1.7,6.56,5.17,10.59,2.79l58.76-34.79c1.05.61,2.71,1.05,2.74,2.69Z"/>
            <path class="cls-58" d="M212.91,136.78c.22-.08.44.04.44.47v24.24c.01,3.18-.6,5.11-3.52,6.86l-22.19,13.32-9.33,5.56c-1.49.89-3.12,1.78-3.19,3.85l-.4,12c-.28.39-.94-.08-1.48.25l-22.96,13.96c-.18-.25-.35-.07-.53.14-.1.11-.31.17-.31.41-.2-.11-.39-.07-.59-.07s-.36-.13-.31-.36c-.06-.63.26-1.22.25-1.84l24.83-14.34c1.31-5.31-1.79-11.65,3.44-14.77l30.99-18.5c1.63-.97,4.27-1.98,4.29-4.14l.14-26.14c0-.37-.29-.54-.49-.42-.06-.22.05-.44.23-.49.22-.05.45.03.67,0Z"/>
            <g>
              <path class="cls-108" d="M210.17,134.09l-58.76,34.79c-4.03,2.39-6.3-1.08-10.59-2.79-.85,1.11-1.39,1.61-2.03,2.18l-54.25-31.57c-.15-.59.5-1.83,1.36-2.33l33.8-19.62c1.08-1.3,2.02-3.04,2.83-4.44.34-.59.74-1.23.81-1.92.15.1.3.21.46.28,2.55,1.11,18.78,10.3,21.28,12.01s4.38,1.77,6.84.37l18.2-10.37c.88-.5,1.12.76,1.9,1.22l38.13,22.21Z"/>
              <path class="cls-30" d="M148.54,131.26c.14.79-.55,1.75.27,1.93.07,2.55-.09,5.15,2.39,6.52-2.54,1.78-4.03,3.74-7.23,1.94l-19.78-11.15c-4.29-2.41,7.66-7.49,9.46-8.09,5.32,2.96,10.42,5.53,14.89,8.85Z"/>
              <path class="cls-18" d="M148.81,133.19c-.82-.18-.13-1.13-.27-1.93,1.48-1.16,3.02-2.21,4.81-3.23l22.62-12.85c.66-.37.83,1.12.73,1.5-.12.43-.42.63-1.21,1.09l-26.68,15.42Z"/>
              <path class="cls-92" d="M181.78,130.5c.07,1.77-2.28,2.75-3.52,3-1.52.32-4.28-.74-4.31-2.55s2.23-2.74,3.64-3.05,4.11.68,4.19,2.59Z"/>
            </g>
            <path class="cls-25" d="M148.79,215.57l-.28-39.13c1.3-.52,1.33-2.38,2.76-3.38l60.74-35.79c.2-.13.49.04.49.42l-.14,26.14c-.01,2.16-2.66,3.17-4.29,4.14l-30.99,18.5c-5.24,3.12-2.14,9.47-3.44,14.77l-24.83,14.34Z"/>
            <g>
              <path class="cls-107" d="M138.79,168.27l6.54,4.19c1.2.77,3.16,2.39,3.17,3.98l.28,39.13c0,.62-.31,1.21-.25,1.84-1.41.11-2.51-.91-3.8-1.66l-19.59-11.35c-.43-.25-.8-.47-1.04-.18l.06-12.54c.01-2.74-1.3-5.75-3.69-7.17l-29.6-17.56c-2.34-1.39-4.4-2.47-6.29-3.99,0,0-.45-.05-.46-.18l.08-23.32c0-.89.53-2.02.33-2.77l54.25,31.57Z"/>
              <path class="cls-14" d="M101.45,158.34c1.39,2.49-1.29,5.15-1.54,5.27-.66.31-1.55.21-2.31-.33-1.14-.81-1.89-2.17-1.66-3.27.31-1.43.26-3.09,2.14-3.55,1.44-.36,2.74.74,3.37,1.88Z"/>
              <path class="cls-37" d="M108.62,160.53c.44-.71,1.42-.28,1.75.12.36.43.41,1.06-.14,1.57-.36.33-.9.75-1.33.29s-.8-1.14-.28-1.98Z"/>
            </g>
            <g>
              <path class="cls-40" d="M174.61,204.21l.32,56.32-.8.1c-.08-.69.43-1.31-.42-2.22l-11.17,6.89c-.21.13,0,.6-.05.77-.05.19-.21.67-.54.42l-.23-19.37c-.01-1.24,0-2.22-.83-2.8-.66-.46-2.58-.81-2.78-.04-.41,1.62-1.5,2.2-2.69,2.94l-6.09,3.82c-.48.3-.8-.84-.85-1.17l.27-30.8c0-.43.69-.61.82-.74.14-.15.24-.38-.13-.48,0-.24.22-.29.31-.41.18-.21.34-.39.53-.14,1.31,1.57,8.63-5.5,11.4-5.52.58-.68,1.68-1.04,2.64-1.6l10.29-5.97Z"/>
              <path class="cls-98" d="M174.61,204.21l-10.29,5.97c-.95.55-2.05.91-2.64,1.6-2.77.02-10.09,7.09-11.4,5.52l22.96-13.96c.55-.33,1.2.13,1.48-.25,0,.27.2.36.14.5-.06.15-.26.43-.25.62Z"/>
              <path class="cls-1" d="M161.13,241c-.66.7-1.44.56-1.81.29-.68-.5-.87-1.46-.58-2.26.33-.92.94-1.06,1.67-1.4s1.42.36,1.67,1.24c.15.54-.16,1.31-.94,2.13Z"/>
            </g>
            <g>
              <path class="cls-8" d="M148.54,217.41c-.05.23.11.36.31.36s.4-.04.59.07c.37.11.27.33.13.48-.12.13-.81.31-.82.74l-.27,30.8c-3.17.55-2.48-3.01-7.43-2.14-1.44.25-3.28,1.45-3.33,3.44l-.37,14.3c-4.61-.92-10-5.73-13.22-6.23l-.02-55.01c.24-.29.62-.07,1.04.18l19.59,11.35c1.3.75,2.39,1.77,3.8,1.66Z"/>
              <path class="cls-77" d="M139.32,245.71c0,.33-.78,1.06-.97.9s-.75-.41-.74-.93l.31-22.38c.52-.15.87.06.91.33.04.31.39,1.03.39,1.32l.1,20.76Z"/>
            </g>
          </g>
        </g>
        <g>
          <path class="cls-59" d="M5.4,89.57c-.86,2.81-1.09,5.76-1.07,8.95l.2,22.78.2,24.37c-.19-.29-.41.04-.76.22l-.28,11.16c0,.36.07.66.14.81s.55.11.64.04c.23.15.24.32.05.51-.65-.08-1.33,1.12-1.59,1.9l24.71,14.85c1.41.85,2.83,2.87,2.83,4.64,0,10.76-.02,21.22-.2,31.9l-.43,25.49c-.01.75-.55,1.03-.91,1.09-.51.09-1.22-.37-1.22-1.1l-.02-24.6c0-.87-.07-1.84-.08-3.01l-.26-27.74c-.02-2.18-.53-3.93-2.53-5.13l-19.98-12.03c-1.5-.91-2.8-2.39-4.43-3.13.05-.36-.31-.37-.33-.96v-69.63c0-1.91.6-2.79,1.14-4.06,1.62.32,2.81,1.88,4.19,2.7Z"/>
          <path class="cls-50" d="M122.43,107.81l-.44-.29c-.2,1.2-1.74-.12-2.38.06l-36.71,21.56c-1.57.92-2.59,1.81-3.29,3.76l-5.27-3.15c-.29-.17-.81-.59-.73-.84s.15-.9.67-1.21l37.87-21.8c.54-.31,1.15-.57,1.19-.94.05-.4.17-1.24-.19-1.54-.44,1.08-1.44.07-2.04.41l-37.42,21.53c-1.06.61-1.41,2.11-2.49,2.32l-3.67-1.85c.21-.42-.46-.44-.47-.79-.06-1.19,1.21-1.99,2.35-2.62l27-14.83c3.79-2.08,7.21-4.17,11.27-5.92,1.22.01,2.39-.3,2.86-1.32l-.39-.24.39.24c3.84,2.33,7.66,4.71,11.44,7.14l.44.29Z"/>
          <path class="cls-29" d="M122.43,107.81l.92.57c.15.1.3.21.46.28-.16-.07-.31-.18-.46-.28-.06.69-.46,1.33-.81,1.92-1.37.25-3.11-.46-4.51.36l-32.42,19.04c-1.99,1.17-4.1,2.02-5.53,3.88l-.58,17.72-6.06-3.42c-.37-.21-.74-.34-1.11-.26-.22.04-.44.11-.38.44-.75-.14-1.59-.53-2.15-.95,2.95-.81-3.15-2.29-2.79-3.06-.31-5.97-.56-11.95-.08-18.01.4-.05.57-.11.63-.18l3.67,1.85c1.09-.21,1.43-1.7,2.49-2.32l37.42-21.53c.6-.34,1.59.67,2.04-.41.36.3.24,1.14.19,1.54-.05.36-.66.63-1.19.94l-37.87,21.8c-.52.3-.59.95-.67,1.21s.44.67.73.84l5.27,3.15c.7-1.96,1.72-2.84,3.29-3.76l36.71-21.56c.64-.18,2.19,1.14,2.38-.06l.44.29Z"/>
          <path class="cls-19" d="M27.67,212.58c-.28.34-.33-.01-.52-.15.36.27-1.98-15.23-4.08-15.14l-.29-13.47c-.07-3.17-2.08-5.21-4.31-7.26-.3-.27.13-1.9-.27-2.09-.37-.17-1.03-.66-1.56-.26-1.26,3.19-1.32,11.39-1.34,14.84-3.42-1.85-6.92-3.68-10.21-6.1-1.36-1.08-.91-17.34-.28-18.28l19.98,12.03c2,1.21,2.51,2.95,2.53,5.13l.26,27.74c.01,1.17.08,2.14.08,3.01Z"/>
          <path class="cls-57" d="M110.15,100.14l.39.24c-.46,1.01-1.64,1.33-2.86,1.32-4.05,1.75-7.48,3.83-11.27,5.92l-27,14.83c-1.14.63-2.41,1.43-2.35,2.62-.77.2-1.51-.18-2.27-.11.21-.36-.38-.44-.34-.77.59-1.55,2.03-2.55,3.63-3.48l36.38-21.21c.97-.62-.3-2.13.22-2.66.2.2.54.33.78.47l4.68,2.84Z"/>
          <path class="cls-63" d="M102.93,266.89c-.25.54-.55.99-.53,1.61.02.65.74.35,1.08.59.16.11.83-.17.92,0,1.54,3.1,7.04,8.72.59,14.2-2.24,1.9-4.99,3.04-7.64,1.42s-3.31-4.46-5-7.09l-.96-1.49c-.2-.32-.12-1.04.43-1.17,1.47.91,2.79,1.28,2.97,3.74.17,2.32,2.6,4.34,4.47,4.77,2.82.64,4.81-1.28,6.02-3.4,1.32-2.32-.05-4.9-1.9-6.82-2.33-2.42-5.89-1.52-8.33.44-.97.61-1.78-.76-2.38-1.03.51-1.9,3.52-1.57,4.62-2.4,1.71-1.89,3.1-3.34,5.64-3.36Z"/>
          <path class="cls-83" d="M113.78,256.16c-.44,1.48-1.25,2.81-3.2,3.42.92,6.48-3.92,6.4-7.08,9.49-.35-.24-1.06.06-1.08-.59-.02-.61.28-1.07.53-1.61,9.31-5.04,4.47-6.12,6.05-9.88.36-.86,1.29-1.57,2.01-1.84.98-.37,1.87.72,2.78.99Z"/>
          <path class="cls-60" d="M113.77,251.12c-.14,1.74.51,3.34,0,5.04-.91-.27-1.8-1.36-2.78-.99-.72.27-1.65.98-2.01,1.84-1.03.8-2.51-4.89.98-6.96,1.01-.6,2.68.07,3.81,1.07Z"/>
          <g>
            <path class="cls-4" d="M122.54,110.3c-.82,1.4-1.75,3.14-2.83,4.44l-33.8,19.62c-.86.5-1.51,1.74-1.36,2.33.19.75-.33,1.88-.33,2.77l-.08,23.32c0,.13.46.18.46.18-.54,1.06.12,2.69,1.24,3.35-2.08.18-9.67.18-11.5-1.83-2.05-2.26-4.95-1.41-7.26-2.64l-25.25-13.43c-1.1-.59-2.63-1.65-3.61-1.15-2.01,1.04-.54,3.57-.52,5.26.04,3.29.26,6.79,1.34,9.9-.73,1.12-.59,2.59-.61,4.1l-.25,23.67c-.04,3.48.15,6.56.18,10.08l.24,38.66c.02,3.04,1.68,5.02,4.02,6.45,4.64,2.83,9.1,5.85,13.96,8.43l5.96,3.16,18.5,11.3c.98,3.02.76,6.06.97,9.24.03.42,1,.5,1.01.11.08-2.77-.16-5.45.11-8.01l8.71,5.34c-.55.14-.63.85-.43,1.17l.96,1.49c1.69,2.63,2.3,5.43,5,7.09s5.4.48,7.64-1.42c6.46-5.48.95-11.1-.59-14.2-.09-.18-.76.11-.92,0,3.16-3.09,8-3.02,7.08-9.49,1.95-.61,2.77-1.95,3.2-3.42.51-1.7-.15-3.31,0-5.04.4-4.77.06-9.72-.01-14.72l-.2-14.9c-.02-1.75.2-3.28.23-5.06l.3-17.54c-1.21.72.87-2.6-.08-3.09-.16-.08-.41-.05-.62.01.38-.44.88-.99,1.37-1.36l2.6-1.97c2-1.52,3.48-2.58,3.3-4.84,1.59.98,2.03,2.83,2.03,5.07l.03,105.67c0,3.01,5.55,3.64,5.45,7.5s-5.75,6.68-7.57,5.61l-34.59-20.37c-.58-.34-1.06-.28-1.21-.48-.18-.23-1.1.67-.63.95l33.78,20.13c2.71,1.62,5.46,1.7,8.1-.27,1.6-1.19,2.89-2.76,3-4.33.4-5.49-2.5-4.93-5.04-8.26l.1-39.65c3.22.49,8.61,5.31,13.22,6.23l.37-14.3c.05-1.99,1.89-3.18,3.33-3.44,4.95-.87,4.26,2.7,7.43,2.14.05.33.37,1.47.85,1.17l6.09-3.82c1.19-.75,2.28-1.33,2.69-2.94.2-.77,2.11-.42,2.78.04.84.59.82,1.56.83,2.8l.23,19.37c0,.58-.17,1.13-.02,1.71-.61.86-1.32,1.99-2.6,2.73l-10.49,6.06-8.39-4.64c-.38-.21-.85.16-.96.33-.1.15.14.19.42.58l8.64,5.76.47,70.93c-1.51.1-2.91-.32-4.49-1.25l-61.23-35.96c.45-2.33.43-4.06.06-5.99-1.17.37-1.74.86-2.6.82-.63-.03-1.23-.8-1.22-1.55.05-6.36.44-12.68.1-19.25l-13.18-7.6c-.62-.36-1.14-.26-1.15-.21-.05.29-.14.95.24,1.18l10.56,6.47c3.35,2.05,1.97,10.49,1.72,13.92-.01.14-.1.25-.34.15l-10.47-5.89c-2.71,1.5-4.97,3.08-8.26,3.41l-52.96-31.25C1.99,264.72-.02,260.94,0,256.5l.24-57.2c1.75.03,14.02,8.7,15.37,8.27.34-.11.45-.76.83-1.33-5.2-2.94-10.24-6.27-15.71-8.7.21-.38,0-.82.64-1.22l6.03-3.8.15-5.28c.55-1.49,4.66,2.78,7.07,3.24,1.02.2,1.51.71,2.58,1.06-.2-1.25-1.07-2.04-1.91-2.5.01-3.45.08-11.65,1.34-14.84.52-.4,1.19.09,1.56.26.39.19-.03,1.82.27,2.09,2.23,2.04,4.25,4.09,4.31,7.26l.29,13.47c2.1-.09,4.43,15.41,4.08,15.14.19.14.24.5.52.15l.02,24.6c0,.74.72,1.19,1.22,1.1.37-.06.9-.35.91-1.09l.43-25.49c.18-10.68.2-21.15.2-31.9,0-1.78-1.42-3.8-2.83-4.64l-24.71-14.85c.26-.78.94-1.98,1.59-1.9,2.12.25,8.09,5.42,11.53,6.19l.11-31.79c.01-3.04,3.56-8.24,7.1-6.17l37.85,22.12c.87.51,1.54.29,1.91,0,.54-.45.87-1.28.88-2l.32-20.74c0-.58.15-.95.59-1.03.76-.08,1.5.3,2.27.11.01.35.68.37.47.79-.05.07-.23.13-.63.18-.47,6.06-.23,12.04.08,18.01-.29.04-.37.1-.48.24-.75.96,2.81,3.15,3.27,2.82.56.42,1.4.82,2.15.95.03.64.85,1.24,1.51,1.52,3.25,1.4,5.95,4.83,6.05,1.73l.58-17.72c1.44-1.86,3.54-2.71,5.53-3.88l32.42-19.04c1.4-.82,3.14-.11,4.51-.36Z"/>
            <g>
              <g>
                <path class="cls-3" d="M124.11,204.22l.02,55.01-.1,39.65c2.54,3.33,5.44,2.78,5.04,8.26-.11,1.57-1.4,3.14-3,4.33-2.64,1.97-5.39,1.88-8.1.27l-33.78-20.13c-.47-.28.45-1.18.63-.95.15.19.63.13,1.21.48l34.59,20.37c1.81,1.07,7.47-1.73,7.57-5.61s-5.45-4.48-5.45-7.5l-.03-105.67c0-2.24-.44-4.09-2.03-5.07-.42-.36-.82-1.25-1.58-1.7l-33.28-19.63c-1.11-.66-1.78-2.29-1.24-3.35,1.89,1.51,3.95,2.6,6.29,3.99l29.6,17.56c2.4,1.42,3.7,4.43,3.69,7.17l-.06,12.54Z"/>
                <g>
                  <path class="cls-53" d="M148.44,272.11l.05-18.75c2.14-.44,3.35-2.41,5.63-1.68-.36,5.88.39,11.46-.47,17.65-.23,1.63-3.7,3.4-5.2,2.78Z"/>
                  <path class="cls-70" d="M148.49,253.36l-.05,18.75c-1.62-.66-3.33-1.42-4.6-2.9l.11-17.67c1.85-.35,3.2.98,4.54,1.82Z"/>
                </g>
                <path class="cls-26" d="M137.99,302.63c-.64,0-1.31-.87-1.33-1.34-.02-.49.08-1.57.7-1.83.88-.37,1.71.41,1.98,1,.41.88.16,2.19-1.35,2.17Z"/>
              </g>
              <g>
                <path class="cls-49" d="M79.54,306.01c-.69-.11-1.26.82-2.03.49.07-1.96.97-4.22-.02-5.82.24.1.33,0,.34-.15.24-3.43,1.63-11.87-1.72-13.92l-10.56-6.47c-.38-.23-.28-.89-.24-1.18,0-.05.53-.15,1.15.21l13.18,7.6c.34,6.56-.05,12.89-.1,19.25Z"/>
                <path class="cls-101" d="M.24,199.3c0-.73.13-1.12.5-1.76,5.47,2.43,10.51,5.76,15.71,8.7-.39.56-.49,1.21-.83,1.33-1.35.44-13.63-8.24-15.37-8.27Z"/>
                <path class="cls-90" d="M50.94,270.65c2.82,1.69,5.36,2.61,7.6,4.54.05.06-.62,1.43-1.01,1.2l-38.13-22.55c-2.53-1.5-3.87-4.56-3.87-7.19l-.02-29.25c0-1.33.63-2.57,1.29-3.18,1.28-1.18,5.87-1.35,7.72-1.2-.27,4.81-7.25-.7-7.28,3.46l-.17,28.78c-.02,2.96.92,5.59,3.6,7.2l30.27,18.19Z"/>
                <path class="cls-97" d="M63.42,256.51c.25.09.57-.15.93.06l14.98,8.77c.73.43,1.7.12,2.4.33.04,1.42.82,2.67,1.39,3.94-.27,2.56-.02,5.24-.11,8.01-.01.4-.98.32-1.01-.11-.21-3.18,0-6.22-.97-9.24l-18.5-11.3c-.01-.37.59-.57.89-.46Z"/>
                <path class="cls-46" d="M79.5,151.3c-.1,3.1-2.8-.32-6.05-1.73-.65-.28-1.48-.88-1.51-1.52-.06-.33.16-.39.38-.44.37-.07.75.05,1.11.26l6.06,3.42Z"/>
                <path class="cls-73" d="M30.56,269.73c-1.41.14-2.19-2.24-1.22-3.09s1.71.05,2.23.73c.46.61.47,2.2-1.02,2.35Z"/>
                <path class="cls-105" d="M27.45,169.11c.44-1.1,1.59-.6,2.12-.28.46.28.49,1.27.09,1.82-.3.4-.69.86-1.36.52-.55-.29-1.21-1.14-.85-2.06Z"/>
                <path class="cls-88" d="M69.79,147.1c-.46.33-4.02-1.87-3.27-2.82.11-.14.18-.2.48-.24-.36.77,5.74,2.26,2.79,3.06Z"/>
                <path class="cls-10" d="M27.78,151.42c.79-.46,1.31.38,1.5.73.26.49-.06,1.1-.39,1.33-.58.4-1.22.21-1.35-.2-.16-.52-.46-1.45.24-1.86Z"/>
                <path class="cls-54" d="M6.37,229.09c-.55.52-1.37.19-1.5-.2-.24-.69-.82-1.57.13-1.97.56-.24,1,.33,1.27.56.36.31.67,1.06.1,1.61Z"/>
              </g>
            </g>
          </g>
          <g>
            <path class="cls-44" d="M68.79,52.65c5.38,2.46,10.01,6.41,15.38,9.34l14.4,7.88-17.98,10.49c-.77.45-1.19,1.17-1.29,1.71-.45,2.53,5.87,4.12,6.52,5.65l-16.41,9.63-5.25-2.66c.32-1.33,1.27-1.24.96-2.33-1.47,1.07-2.17,1.32-3.72,1.88,2.69,1.75,5.25,3.37,8.33,4.87l12.99-7.06c1.33-.72,3.12-2.35,3.51-3.48.67-.19,1.26.11,1.97.49l9.42,5.04c1.1-.19,2.14-.87,3.15.35.92,1.11,2.89,1.34,3.9,2.37.2.2.54.33.78.47-.24-.15-.58-.27-.78-.47-.52.53.75,2.04-.22,2.66l-36.38,21.21c-1.6.93-3.04,1.93-3.63,3.48L5.4,89.57c-1.39-.81-2.57-2.37-4.19-2.7.54-1.26.79-2.67,2.5-3.67l57.93-33.84,7.16,3.28Z"/>
            <path class="cls-65" d="M86.25,88.57c-.39,1.13-2.18,2.76-3.51,3.48l-12.99,7.06c-3.08-1.5-5.63-3.12-8.33-4.87,1.55-.55,2.25-.81,3.72-1.88.3,1.08-.64,1-.96,2.33l5.25,2.66,16.41-9.63c.15-.07.54.14.42.23-.15.11.04.48,0,.62Z"/>
            <path class="cls-32" d="M64.2,89.12c.82.55,1.09,1.38,1.15,2.28l-5.08,2.26c-2.23-1.35-4.6-2.08-6.15-4.15l-28.22-16.86c-.36-.22-.47-.76-.33-.94.13-.16.59-.12,1.1-.49l27.78,16.63c4.45-2.52,5.02-1.92,9.74,1.26Z"/>
            <path class="cls-99" d="M29.91,84.77c-.02,1.85-2.21,2.35-3.22,2.28-1.35-.09-3.12-.87-3.14-2.51s1.81-2.33,3.13-2.43c1.08-.08,3.26.81,3.24,2.65Z"/>
          </g>
          <g>
            <path class="cls-106" d="M85.82,166.31l33.28,19.63c.76.45,1.16,1.34,1.58,1.7.18,2.26-1.3,3.33-3.3,4.84l-2.6,1.97c.24-.28-.02-.4-.48-.65.48-2.73-1.55-5.72-4.49-5.76-.31,0,0,.94-.3.82-.85.07-1.35.45-1.75,1.05-.62.93-.07,1.76.13,2.67.45,2.03,1.83,3.04,3.62,3.17-.21.51.4.68.73.65s.88-.26,1.16-.58c.21-.07.46-.09.62-.01.95.49-1.13,3.81.08,3.09l-.3,17.54c-.03,1.77-.26,3.3-.23,5.06l.2,14.9c.07,5,.41,9.95.01,14.72-1.13-1-2.79-1.67-3.81-1.07-3.49,2.07-2.02,7.76-.98,6.96-1.57,3.76,3.27,4.84-6.05,9.88-2.54.02-3.93,1.47-5.64,3.36-1.1.83-4.11.5-4.62,2.4-1.99-.88-5.72-2.9-7.49-4.27s-2.01-8.93-2.01-11.41l-.03-33.27c1.75-1.93,2.57-3.71,1.04-5.73-1.21-1.59-4.01-2.85-5.58-.7s.1,5.15,2.55,6.55l-.05,35.29-14.71-7.87c.47-3.67-1.86-7.84-5.47-8.22-1.84-.19-3.48-.1-4.49.79-1.28,1.14-1.19,2.81-1.24,4.67l-.03,1.09c0,.35.26.84.77.68.18.06.22.2.02.47l-1.08.43c1.14-.45-13.78-6.27-13.77-11.28l.09-38.68c2.42-1.2,3.17-3.06,3.43-5.18.28-2.33-1.66-3.77-3.21-5.21l-.15-21.54c0-.73.66-1.54,1.17-1.73.33-.12.71-.26,1.34.11l49.8,29.57c1.06.63,1.59-1.48,1.45-2.09s-.56-1.47-1.54-2.05l-51.12-30.62c-1.39-.83-2.33-.71-3.31-.03-1.08-3.11-1.3-6.61-1.34-9.9.62-.66,1.43-1.52,1.54-2.44.12-1.05-.88-1.8-1.02-2.82.98-.5,2.51.56,3.61,1.15l25.25,13.43c2.31,1.23,5.22.38,7.26,2.64,1.82,2.01,9.42,2.01,11.5,1.83Z"/>
            <path class="cls-55" d="M114.77,194.46c-.5.38-1,.92-1.37,1.36-.27.32-.82.55-1.16.58s-.94-.14-.73-.65c.23-.93,1.3-1.06,1.9-2.25-.3-2.23-1.65-4.73-3.9-4.63.3.11,0-.83.3-.82,2.94.04,4.97,3.03,4.49,5.76.46.25.72.37.48.65Z"/>
            <path class="cls-6" d="M37.69,152.51c-.02-1.69-1.49-4.22.52-5.26.14,1.01,1.13,1.76,1.02,2.82-.1.92-.92,1.78-1.54,2.44Z"/>
            <path class="cls-94" d="M75.56,225.15c-4.94,3.39-10.31,6.15-15.71,9.26-1.9,1.09-8.65-5.62-9.21-7.11-.76-4.32-.25-8.73-.05-13.05.23-4.9-.45-9.58.16-14.39.27-2.13-.67-4.32.76-6.26l.39,33.62c3.12,2.39,7.22,8.68,9.95,4.76,4.69-1.96,8.36-5.41,13.71-6.83Z"/>
          </g>
          <path class="cls-80" d="M55.94,250.72c.2-.26.16-.41-.02-.47-.3-1.92-.46-3.7,1.33-5.12,1.17-.93,3.89-.68,5.08.11,1.77,1.18,2.63,2.83,2.84,5.04.19,1.96-.8,4.58-3.1,4.62-2.86.05-4.6-2.36-6.13-4.19Z"/>
          <g>
            <path class="cls-9" d="M64.46,124.18c-.04.33.55.41.34.77-.44.08-.58.45-.59,1.03l-.32,20.74c-.01.72-.34,1.54-.88,2-.36.3-1.04.51-1.91,0l-37.85-22.12c-3.53-2.07-7.09,3.14-7.1,6.17l-.11,31.79c-3.43-.77-9.41-5.93-11.53-6.19.19-.19.19-.36-.05-.51.31-4.03.29-8.18.26-12.22l-.2-24.37-.2-22.78c-.03-3.19.21-6.14,1.07-8.95l59.06,34.61Z"/>
            <path class="cls-104" d="M4.73,145.66c.03,4.05.05,8.19-.26,12.22-.1.07-.57.1-.64-.04s-.15-.45-.14-.81l.28-11.16c.35-.19.57-.51.76-.22Z"/>
            <path class="cls-41" d="M34.5,120.39c-.64.77-1.05,1.02-1.32,1.19-.54.33-1.06-.08-1.2-.45-.19-.49-.17-1.43.55-1.73.67-.28,1.84.48,1.97.99Z"/>
          </g>
          <path class="cls-82" d="M81.73,265.67c-.71-.21-1.67.1-2.4-.33l-14.98-8.77c-.36-.21-.68.03-.93-.06,1.09-.9,1.53-2.45,2.92-3.21l14.51,8.44c.24,1.37.85,2.72.88,3.93Z"/>
          <g>
            <path class="cls-35" d="M55.94,250.72c1.53,1.83,3.27,4.23,6.13,4.19,2.3-.04,3.29-2.66,3.1-4.62-.22-2.22-1.08-3.86-2.84-5.04-1.18-.79-3.9-1.04-5.08-.11-1.79,1.42-1.63,3.19-1.33,5.12-.51.15-.78-.33-.77-.68l.03-1.09c.05-1.86-.03-3.53,1.24-4.67,1-.89,2.65-.98,4.49-.79,3.61.38,5.94,4.55,5.47,8.22l14.71,7.87.05-35.29c-2.45-1.4-4.04-4.51-2.55-6.55,1.58-2.15,4.37-.9,5.58.7,1.53,2.02.71,3.8-1.04,5.73l.03,33.27c0,2.48.21,10.03,2.01,11.41s5.51,3.38,7.49,4.27c.6.27,1.41,1.64,2.38,1.03,2.45-1.96,6-2.86,8.33-.44,1.85,1.92,3.22,4.5,1.9,6.82-1.21,2.12-3.2,4.05-6.02,3.4-1.87-.43-4.3-2.45-4.47-4.77-.18-2.46-1.5-2.84-2.97-3.74l-8.71-5.34c-.57-1.26-1.35-2.52-1.39-3.94-.03-1.21-.64-2.56-.88-3.93l-14.51-8.44c-1.39.76-1.83,2.31-2.92,3.21-.3-.11-.9.09-.89.46l-5.96-3.16c-4.86-2.58-9.32-5.6-13.96-8.43-2.34-1.43-4-3.41-4.02-6.45l-.24-38.66c-.02-3.52-.21-6.6-.18-10.08l.25-23.67c.02-1.52-.12-2.98.61-4.1.98-.69,1.92-.81,3.31.03l51.12,30.62c.97.58,1.4,1.43,1.54,2.05s-.39,2.72-1.45,2.09l-49.8-29.57c-.63-.37-1.01-.24-1.34-.11-.51.19-1.18,1-1.17,1.73l.15,21.54c1.55,1.44,3.49,2.88,3.21,5.21-.25,2.12-1.01,3.98-3.43,5.18l-.09,38.68c-.01,5.02,14.9,10.83,13.77,11.28l1.08-.43Z"/>
            <path class="cls-89" d="M102.85,274.52c1.4,1.36,1.99,2.52,1.77,4.3-.16,1.27-1.29,2.61-3.02,3.11-1.82.53-3.68-.47-4.67-1.58-1.37-1.54-1.84-3.7-.89-5.58,1.25-2.46,4.79-2.22,6.81-.25Z"/>
          </g>
        </g>
        <g>
          <path class="cls-13" d="M214.68,38.08c.47-.14.61.49.87.49-.2,1.14-.99,1.83-2.1,2.46l-31.08,17.67c-.93.53-.77.87-.97,1.51-.28.89-.08,1.35.83,1.9l8.7,5.29c2.02,1.23.54,7.03,2.03,6-.34.76-.24,1.76-.39,2.55l-39.59-22.03c-1.3-.72-2.43-2.28-4.43-2.32l-27.47,15.81c-.75-.06-1.31.82-2.36.59-2.42.73.52-10.08-2.5-8.73.04-.48.56-.59.8-.92s.45.04.94-.13l28.67-16.59c1.37-.7,2.63-.74,3.83-.05l28.7,16.58,35.53-20.08Z"/>
          <path class="cls-91" d="M228.1,45.77c-.71.46-1.64.33-2.64.9l-27.45,15.6c.3.3,1-.06,1.16.21s.2.38.16.89c-2.06,1.15-4.22,2.23-6.15,3.54-3.73-2.5-7.68-4.84-11.79-6.68.2-.63.04-.98.97-1.51l31.08-17.67c1.12-.64,1.91-1.32,2.1-2.46.64-.04,1.53.34,2.31.78l9.12,5.22c.58.33,1.06.6,1.13,1.2Z"/>
          <path class="cls-93" d="M115.57,59.45c-.19.55-.26,1.12-.37,1.69-2.75,1.89-5.7,3.41-8.56,5.13-.16.1-.27.33-.45.36-.69-.21-.93-1.07-1.82-1.58l-28.02-16.03c-.41-.24-.63-.61-.74-.86l6.52-3.76c.34-1.37.43-2.68.61-3.95l.71-.03c.31-.01.15.47.43.63l31.68,18.39Z"/>
          <path class="cls-5" d="M117.01,58.35c-.25.33-.77.44-.8.92-.01.17-.55.16-.63.17l-31.68-18.39c-.28-.17-.12-.64-.43-.63l-.71.03c.11-.78-.16-1.72.33-2.31l32.82,18.97c.37.59,1.09.66,1.11,1.24Z"/>
          <path class="cls-100" d="M75.62,48.16c.11.25.33.63.74.86l28.02,16.03c.89.51,1.13,1.36,1.82,1.58.18-.03.29-.26.45-.36-.16.1-.27.33-.45.36-.58.1-.65,1.04-1.35.81l-16.62-9.53-17.97-10.87c-.3-.18.09-.78-.3-.77-.18,0-.38.39-.72.09.98-2.25,5.04,2.19,6.38,1.79Z"/>
          <path class="cls-95" d="M192.55,75.96l6.44,4.04c.1.59-.85.49-.5.91-.36-.07-.66.26-.94.44-.75-1.3-2.27-.74-3.48-1.41-13.76-7.69-26.86-15.52-40.91-22.17-.71-.34-1.76,0-1.92.4-.16.38-.04,1.16.56,1.55,5.44,3.65,11.17,6.69,16.85,10.05,2.44,1.45,3.63,3.3,3.46,6.3-.52,9.25-5.55,15.29-.4,17.43l-20.9,12.16c-.81.47-1.58.73-1.74,1.28-.18.63-.24,1.64,0,2.23-.51.2-1.65.14-2.45-.34l-30.97-18.43c.46-1.04,1.73-1.49,2.82-2.14l17.38-10.49c.78-.47,1.02-1.34.93-1.97-.28-1.9-5.21-2.94-7.01-4.96-1.19-1.34.25-3.38,1.63-4.37,4-2.88,8.2-4.89,12.27-7.46,3.09-1.95,6.09-3.69,9.32-5.06l39.59,22.03Z"/>
          <path class="cls-34" d="M121.06,67.42c.25.86,1.13,1.45,1.25,2.09.22,1.17-.55,2.1-1.33,2.8-1.85,1.66-14.71,11.98-12.81,13.79,2.22,2.11,5.17,2.91,7.46,4.28l30.97,18.43c.8.48,1.94.54,2.45.34.38-.15,1.04-.03,1.76-.44l36.43-21.1c3.59-2.08,6.97-4.1,10.3-6.27.28-.18.58-.51.94-.44,1.13,1.31,1.45,3.21.73,4.9l-50.65,29.81-50.86-29.78c-.25-2.04,0-4,.77-5.79l16.76-9.6c1.36-.78,2.61-1.43,3.47-2.44,1.05.24,1.61-.65,2.36-.59Z"/>
          <path class="cls-78" d="M193.18,66.9c.64.42.23,2.16-.09,2.74-.73,1.31.33,2.7-.14,3.77-1.49,1.03,0-4.77-2.03-6l-8.7-5.29c-.91-.55-1.12-1.02-.83-1.9,4.12,1.85,8.06,4.19,11.79,6.68Z"/>
          <g>
            <path class="cls-102" d="M214.68,38.08l-35.53,20.08-28.7-16.58c-1.2-.69-2.45-.65-3.83.05l-28.67,16.59c-.5.17-.7-.2-.94.13-.03-.58-.74-.65-1.11-1.24l-32.82-18.97c.32-.38.08-1.19,1.17-1.82L145.19,1.04c2.31-1.34,4.52-1.41,6.89-.04l62.58,36.09c.51.29-.33.98.01,1Z"/>
            <path class="cls-109" d="M108.03,45.7c.73-.9,1.94-.65,2.47-.06.36.4.66,1.19.14,1.74-.46.49-1.46.58-1.99.45-.72-.17-1.39-1.18-.62-2.13Z"/>
          </g>
          <path class="cls-36" d="M152.96,53.93c-3.22,1.37-6.23,3.11-9.32,5.06-4.07,2.57-8.27,4.59-12.27,7.46-1.38.99-2.82,3.03-1.63,4.37,1.79,2.02,6.72,3.06,7.01,4.96.09.63-.15,1.5-.93,1.97l-17.38,10.49c-1.09.66-2.36,1.11-2.82,2.14-2.29-1.37-5.25-2.17-7.46-4.28-1.91-1.81,10.96-12.14,12.81-13.79.79-.7,1.55-1.63,1.33-2.8-.12-.64-1-1.23-1.25-2.09l27.47-15.81c1.99.04,3.13,1.6,4.43,2.32Z"/>
          <path class="cls-84" d="M197.55,81.35c-3.33,2.17-6.71,4.19-10.3,6.27l-36.43,21.1c-.72.41-1.38.29-1.76.44-.23-.58-.17-1.59,0-2.23.16-.55.93-.81,1.74-1.28l20.9-12.16c-5.15-2.14-.12-8.18.4-17.43.17-3-1.02-4.85-3.46-6.3-5.68-3.36-11.41-6.4-16.85-10.05-.59-.4-.71-1.18-.56-1.55.17-.4,1.21-.74,1.92-.4,14.05,6.64,27.15,14.48,40.91,22.17,1.21.68,2.73.11,3.48,1.41Z"/>
        </g>
        <g>
          <g>
            <path class="cls-62" d="M296.59,87.28c-1.3.19-2.14.81-3.65,1.71l-72.99,43.44c-.71.42-.16,2.43-1.46,1.82-1.25-2.04-3.13-3.2-5.38-4.5l-32.17-18.56c.34-.51-.16-1.29.39-1.95,4.77,2.12,8.71,4.72,13.17,7.34l22.91,13.48,74.8-44.46c.99-.59,1.43-1.22,2.22-1.55,1.41.35,1.81,1.96,2.17,3.22Z"/>
            <path class="cls-20" d="M212.91,86.8c.08-.53-.48-.47-.98-.34l-12.85-7.39c-.2-.69-.79-1.08-1.2-1.65.64-2.51.12-4.87,1-6.94,6.09,2.41,11.5,6.44,17.5,9.64.88.47,1.55,1.19,1.67,1.96.16.97-.52,1.83-1.51,2.44l-3.63,2.28Z"/>
            <g>
              <path class="cls-45" d="M294.42,84.06c-.79.34-1.23.96-2.22,1.55l-74.8,44.46-22.91-13.48c-4.46-2.62-8.39-5.22-13.17-7.34-.55.65-.05,1.43-.39,1.95l-1.8-.99c.22-.93-.75-1.2-1.29-2.09-.36-.6.77-1.49,1.43-1.87l33.63-19.45,3.63-2.28c.98-.62,1.66-1.47,1.51-2.44-.12-.77-.79-1.49-1.67-1.96-6-3.2-11.41-7.23-17.5-9.64.41-.97.81-.77,1.78-1.34l28.77-16.56,6.52-3.27,57.03,33.31c.8.47,1.17,1,1.45,1.43Z"/>
              <path class="cls-87" d="M217.41,73.46c4.64-1.76,8.73-7.22,13.27-1.45-2.88,2.09-5.62,3.6-8.73,4.96-5.6-2.7-10.81-5.66-16.02-8.99.24-1.08,1.54-.8,2.17-.4l9.32,5.88Z"/>
              <path class="cls-16" d="M236.72,75.18c3.58,2.18-4.75,5.28-6.33,5.98-2.12-.05-4.26-2.15-6.11-3.26,2.78-2.48,5.79-3.36,8.84-4.91l3.6,2.19Z"/>
              <path class="cls-76" d="M208.05,111.05c.28,2.21-2.05,3.81-3.55,4.03-2.22.33-4.66-1.24-4.78-3.5s2.03-3.77,3.93-3.89c1.72-.11,4.11,1.04,4.4,3.36Z"/>
              <path class="cls-66" d="M273.81,84.3c.16,1.9-1.7,2.61-2.68,2.79-1.44.27-3.47-.34-3.8-2.12-.29-1.58,1.66-2.73,2.95-2.93,1.06-.17,3.37.47,3.52,2.26Z"/>
            </g>
            <g>
              <path class="cls-103" d="M297.31,133.6c-2.49-.17-8.1,7.68-10.06,9.98-2.58,3.02-5.05,8.05-5.73,8.12-.3.03-.76-.43-.76-.97v-19.35c.02-2.04-1.46-3.65-2.91-4.45-3.29-1.84-10.51,3.64-13.26,5.79l-44.38,26.6c-.58.57-1.01.78-1.45-.02-.49-.2-.59-.39-.17-.67.51-3.82-.27-7.46-.23-11.26l.13-13.11c1.3.61.75-1.4,1.46-1.82l72.99-43.44c1.52-.9,2.36-1.52,3.65-1.71.29,1.02.79,1.76.79,3.17l-.07,43.15Z"/>
              <path class="cls-52" d="M228.86,144.8c-1.43-.1-1.52-1.64-1.35-2.39.24-1.04,1.18-2.14,2.47-1.65,1.05.4,1.39,1.49,1.08,2.38-.22.64-.83,1.76-2.21,1.66Z"/>
              <path class="cls-12" d="M258.13,126.25c-.38.52-.67.86-1.13,1.12-.3.17-1.01.28-1.22-.45s-.21-1.41-.05-1.96c.16-.51,1.25-.6,1.87-.35.46.19.95,1.05.52,1.64Z"/>
            </g>
            <g>
              <path class="cls-17" d="M297.31,133.6l.04,45.01c0,2.16-.61,3.88-2.42,5.01l-5.58,3.48c-2.8.71-5.42,2.55-7.9,4.56-1.29,1.05-2.44.56-3.63,1.05-3.45,1.42-6.38,3.61-9.49,5.2-.54-.6-.65-1.19-.65-2.17l.13-33.64c-.24-.24-.81-.05-.95-.1l-.19-20.68c-.03-3.8-3.1-4.58-3.4-6.12-.18-.92,2.64-1.35,1.32-2.49,2.75-2.15,9.97-7.63,13.26-5.79,1.44.81,2.92,2.42,2.92,4.45v19.35c-.01.55.45,1,.75.97.68-.07,3.15-5.1,5.73-8.12,1.96-2.3,7.57-10.15,10.06-9.98Z"/>
              <path class="cls-7" d="M268.33,197.91c-.28.15-.82.34-1.15.25-1.46-.39-.55-15.55-.41-18.18.33-6.13.14-12.09.09-17.99.14.05.71-.13.95.1l-.13,33.64c0,.98.1,1.57.65,2.17Z"/>
              <path class="cls-21" d="M272.35,161.65c.76-.22,1.32.43,1.56.8.47.74-.04,1.09-.53,1.35-.75.41-1.08.27-1.31-.1-.37-.61-.74-1.76.28-2.05Z"/>
            </g>
          </g>
          <g>
            <path class="cls-42" d="M174.92,263c-.35,1.15.06,2.3.06,3.62l.05,27.79c.02,9.34-5.55,5.97-5.7,11.43-.1,3.4,6.17,6.99,8.54,5.64l23.17-13.2c.25.17.51.21.62-.09.11-.27-.18-.63-.1-.78,2.46-2.8,9.74-3.87,8.97-8.47.23-.8.69-.17.86.34.38.9-.05,1.78.27,2.87.38-.2.48-.65.98-.52.38.1.55,1.27.73,1.92-1.3.1-2.25.88-3.48,1.59l-31.47,18.24c-1.97,1.14-9.88-2.2-9.94-7.09-.08-6.29,5.58-4.13,5.6-10.16l.12-31.46c0-.4-.18-.74-.21-.93-.03-.18-.56.1-.73.01.45-.26.96-.84,1.65-.75Z"/>
            <path class="cls-38" d="M210.25,288.51c-.07.16.13.4.29.44.77,4.59-6.51,5.67-8.97,8.47-.89-.27-1.82-.57-2.45-1.24-2.43-2.61,5.11-5.35,8.51-7.55.97-.62,1.8-.63,2.62-.12Z"/>
            <g>
              <path class="cls-2" d="M228.55,47.07c.13.14.63.07.65.33.15,1.86-.18,3.55.22,5.19l-28.77,16.56c-.98.56-1.37.36-1.78,1.34-.88,2.07-.36,4.42-1,6.94.41.57,1,.96,1.2,1.65l12.85,7.39c.5-.13,1.06-.19.98.34l-33.63,19.45c-.66.38-1.79,1.27-1.43,1.87.54.89,1.51,1.16,1.29,2.09l1.8.99,32.17,18.56c2.25,1.3,4.13,2.46,5.38,4.5l-.13,13.11c-.04,3.8.74,7.44.23,11.26-.42.28-.32.46.17.67.44.8.88.59,1.45.02l44.38-26.6c1.32,1.14-1.5,1.57-1.32,2.49.3,1.53,3.36,2.32,3.4,6.12l.19,20.68c.05,5.9.25,11.86-.09,17.99-.14,2.63-1.06,17.79.41,18.18.33.09.87-.11,1.15-.25,3.1-1.59,6.03-3.77,9.49-5.2,1.19-.49,2.34,0,3.63-1.05,2.48-2.01,5.1-3.85,7.9-4.56-.11,1.64.16,3.33-.28,4.92-.03-.06-2.24.11-2.36.45-.1.28-.09.91.38,1.15l8.64,4.41-14.35,8-14.92,8.66.2,17.53c0,.35.38.98.52,1.17.05.07.93-.5.93-.81v-16.47c9.9-6.49,19.66-10.97,28.94-17.18l.36,57.57c.02,3.77-1.36,7.77-4.88,9.86l-53.76,31.77c-2.77-.3-4.62-1.4-7.09-2.74l-12.34,7.14c-.44.25-.6-11.9-.25-13.54l16.73-9.97c.49-.29.63-.85.55-1.28-.07-.33-.93-.5-1.45-.19l-18.06,10.49-.55,16.67c-.75.47-1.75.17-2.49.48-.94-3.1.6-7.88-.43-11.63-.18-.65-.35-1.82-.73-1.92-.5-.13-.59.32-.98.52-.32-1.1.12-1.97-.27-2.87-.17-.51-.63-1.14-.86-.34-.16-.04-.36-.28-.29-.44,2.11-4.97-15.61,2.76-12.25,7.78.66.98,1.75,1.53,3.04,1.99l-23.17,13.2c-2.37,1.35-8.64-2.24-8.54-5.64.15-5.46,5.72-2.09,5.7-11.43l-.05-27.79c0-1.32-.41-2.47-.06-3.62.21-.69.02-1.75.01-2.48l-.32-56.32c0-.19.19-.48.25-.62.06-.14-.15-.23-.14-.5l.4-12c.07-2.07,1.7-2.96,3.19-3.85l9.33-5.56,22.19-13.32c2.92-1.75,3.53-3.68,3.53-6.86v-24.24c-.01-.43-.23-.54-.45-.47-.03-1.64-1.69-2.08-2.74-2.69l-38.13-22.21c-.79-.46-1.03-1.72-1.9-1.22l-18.2,10.37c-2.46,1.4-4.41,1.29-6.84-.37s-18.73-10.9-21.28-12.01c-.16-.07-.31-.18-.46-.28l-.92-.57-.44-.29c-3.78-2.44-7.6-4.81-11.44-7.14l-.39-.24-4.68-2.84c-.24-.15-.58-.27-.78-.47-1.02-1.03-2.99-1.26-3.9-2.37-1.01-1.22-2.05-.54-3.15-.35l-9.42-5.04c-.71-.38-1.3-.68-1.97-.49.05-.14-.14-.51,0-.62.12-.09-.27-.3-.42-.23-.65-1.52-6.97-3.12-6.52-5.65.09-.54.52-1.26,1.29-1.71l17.98-10.49-14.4-7.88c-5.37-2.94-10-6.88-15.38-9.34-.17-.18.01-.39.01-.57,1.07-.39,1.12-1.71,2.23-2.38,4.88,2.22,9.32,4.6,13.65,7.35,1.14.73,2.52.64,3.54.86l16.62,9.53c.71.23.78-.71,1.35-.81.18-.03.29-.26.45-.36,2.85-1.72,5.81-3.24,8.56-5.13.12-.56.19-1.14.37-1.69.08-.02.62,0,.63-.17,3.02-1.34.07,9.46,2.5,8.73-.86,1.01-2.11,1.66-3.47,2.44l-16.76,9.6c-.76,1.79-1.02,3.75-.77,5.79l50.86,29.78,50.65-29.81c.72-1.69.4-3.59-.73-4.9-.35-.42.6-.33.5-.91l-6.44-4.04c.15-.79.06-1.79.39-2.55.48-1.07-.59-2.46.14-3.77.32-.58.73-2.32.09-2.74,1.93-1.31,4.08-2.39,6.15-3.54l29.23-16.3Z"/>
              <g>
                <g>
                  <path class="cls-15" d="M228.55,47.07l-29.23,16.3c.05-.51,0-.63-.16-.89s-.86.09-1.16-.21l27.45-15.6c1-.57,1.92-.44,2.64-.9.25.05.72.26.48.71-.07.14-.26.31-.02.59Z"/>
                  <path class="cls-11" d="M88.22,57.91c-1.02-.22-2.4-.14-3.54-.86-4.33-2.75-8.77-5.13-13.65-7.35-1.1.67-1.15,2-2.23,2.38,0-1.92-.34-3.93.43-5.71.34.3.54-.08.72-.09.39-.02,0,.58.3.77l17.97,10.87Z"/>
                </g>
                <g>
                  <path class="cls-69" d="M225.47,165.02c-.3.72-.64,1.05-.91,1.18-.46.21-1.15.08-1.38-.22-.36-.48-.4-1.1,0-1.7.31-.46,1.02-.75,1.54-.56.39.14,1.15.35.75,1.3Z"/>
                  <g>
                    <path class="cls-71" d="M297.05,198.95c-9.28,6.2-19.04,10.68-28.96,17.18v16.47c.01.31-.86.88-.91.81-.14-.19-.52-.83-.52-1.17l-.2-17.53,14.92-8.66,14.35-8,.88-.44c.27.48.44.67.45,1.34Z"/>
                    <path class="cls-81" d="M289.07,192.03c1.24,2.24,6.3,3.36,7.53,5.58l-.88.44-8.64-4.41c-.46-.24-.47-.87-.38-1.15.12-.35,2.33-.51,2.36-.45Z"/>
                    <g>
                      <path class="cls-74" d="M259.58,165.5l.05,52.41c.05.19-.78.05-.78-.23v-36.73c-1.05-.18-3.29-.26-3.48-.1-.17.15.16.56-.59,1.01.37.87.14,2.68-.91,3.02-.78.25-2.01-.39-2.28.91.66.21,1.28-.17,1.81.19-.02,1.02-1.9-.28-2.19.24l-15.3,27.08c-10.63,18.82-10.52,9.02-16.55,16.92-2.94,3.85-7.05,6.95-9.25,11.42.16.78-1.01.48-1.32.85-.05-7.51-.38-15.14.16-22.78.11-1.62-.64-2.03-.68-3.47l-.22-8.39-.17-10.78c0-.38-.4-1.02-.81-.94l48.96-29.15c1.28-.76,2.52-1.09,3.56-1.5Z"/>
                      <path class="cls-67" d="M257.48,243.89c.93.47.04,1.83-.63,2.84l-68.41,41.09c-1.53,1.67-2.1,3.6-3.68,5.08-.68.63-3.13-.24-3.44-1.19l-.35-23.11c0-.3.29-1.16.39-1.49.05-.18.04-.15.44-.19,1.02-.07,1.63,1.02,2.67,1.39,1.22,1.2,2.65,1.76,3.87,1.92-.37,3.21-.67,12.95.27,13.93,1,1.04,4.15-2.24,6.74-3.78l36.92-21.96,25.22-14.54Z"/>
                      <path class="cls-85" d="M259.22,162.43c.74,1.09.36,2.13.36,3.07-1.05.41-2.28.73-3.56,1.5l-48.96,29.15c-.26-.1-.71.05-.5.4-3.96,1.91-7.64,4.49-11.7,6.9-1.52.9-2.61,2.38-2.68,4.08l-.35,8.04c-1.06.04-1.92-.09-2.66.09l-.15-10.42c-.01-.92-.36-1.75-.57-2.61,1.13-1.27,2.45-1.82,4.27-2.9l62.38-36.83c1.08-.27,1.18-1.19,2.14-1.18.69,0,1.23.56,1.97.73Z"/>
                      <path class="cls-96" d="M210.25,288.51c-.82-.51-1.65-.51-2.62.12-3.4,2.19-10.95,4.93-8.51,7.55.63.67,1.55.97,2.45,1.24-.09.15.2.51.1.78-.11.3-.37.26-.62.09-1.29-.47-2.38-1.02-3.04-1.99-3.36-5.02,14.36-12.75,12.25-7.78Z"/>
                      <path class="cls-33" d="M266.7,204.32c-.51-1.09-.61-3.02.61-3.06.82-.03,1.08,1.05.92,1.48-.19.5-.39,1.32-1.53,1.58Z"/>
                      <path class="cls-39" d="M206.57,196.55s.4.07.41.25c.34,6.04-.16,12.11-.84,18.13-.82.03-1.74,1.04-1.35,1.52.31.37.67.76,1.48,1.33l.08,27.5c0,2.31-.6,4.16-1.82,6.04l-9.24,14.25c-1.05,1.62-2.24,3.46-3.97,4.12-1.26.48-1.33.14-1.35-.97l-.79-53.06c.74-.18,1.61-.06,2.66-.09l.35-8.04c.07-1.69,1.16-3.18,2.68-4.08,4.06-2.41,7.74-4.98,11.7-6.9Z"/>
                      <g>
                        <path class="cls-51" d="M208.79,242.51c0,.95-.62,4.51.93,5.85.69.59,1.72.87,2.76.34l6.53-3.32,9.84-5.21c3.34-1.77,6.78-3.07,10.17-5.03l19.51-11.26c.86,6.46-.05,12.63-.16,18.72l-.87,1.29-25.22,14.54-36.92,21.96c-2.6,1.54-5.74,4.82-6.74,3.78-.94-.98-.64-10.72-.27-13.93-1.22-.16-2.65-.72-3.87-1.92-1.04-.37-1.66-1.46-2.67-1.39-.15-.26-.69-.44-.69-1l.21-68.45c.87-.62,6.95,5.65,7.15,5.13.21.86.55,1.69.57,2.61l.15,10.42.79,53.06c.02,1.11.09,1.45,1.35.97,1.73-.66,2.92-2.5,3.97-4.12l9.24-14.25c1.22-1.89,1.83-3.73,1.82-6.04l-.08-27.5c-.8-.57-1.17-.95-1.48-1.33-.39-.48.53-1.49,1.35-1.52.68-6.02,1.18-12.1.84-18.13,0-.17-.38-.23-.41-.25-.21-.35.23-.5.5-.4.41-.08.8.56.81.94l.17,10.78.22,8.39c.04,1.43.79,1.84.68,3.47-.54,7.63-.21,15.27-.16,22.78Z"/>
                        <path class="cls-28" d="M227.52,246.96c.28.77-2.14,4.7-2.88,3.22-.74-1.21.78-3.46,1.82-3.88.71-.29.95.35,1.06.66Z"/>
                      </g>
                      <g>
                        <path class="cls-68" d="M259.63,217.91v16.1c0,1.33.05,9.23-1.28,8.59.11-6.09,1.02-12.26.16-18.72l-19.51,11.26c-3.39,1.96-6.83,3.25-10.17,5.03l-9.84,5.21-6.53,3.32c-1.04.53-2.07.25-2.76-.34-1.55-1.34-.92-4.9-.93-5.85.31-.37,1.48-.07,1.32-.85,2.21-4.47,6.32-7.57,9.25-11.42,6.02-7.9,5.92,1.9,16.55-16.92l15.3-27.08c.29-.51,2.17.78,2.19-.24-.53-.36-1.15.02-1.81-.19.27-1.3,1.5-.66,2.28-.91,1.05-.34,1.28-2.15.91-3.02.75-.45.42-.86.59-1.01.18-.17,2.42-.09,3.47.1v36.73c0,.27.83.41.78.23Z"/>
                        <path class="cls-31" d="M221.57,233.14c.75.96-.98,2.7-1.44,2.79-.62.11-1.03-.26-1.24-.58-.49-.72.84-2.77,1.42-2.81.36-.03.88.12,1.27.61Z"/>
                      </g>
                      <g>
                        <path class="cls-56" d="M259.22,162.43c-.74-.17-1.28-.73-1.97-.73-.97,0-1.07.91-2.14,1.18l-62.38,36.83c-1.83,1.08-3.14,1.63-4.27,2.9-.2.52-6.28-5.74-7.15-5.13,0-2.41-.29-3.65,2.24-5.17l69.48-41.58c.89.54.94,1.68,1.99,2.56l1.86-2.26c.55-.66-.34-1.81-.81-2.18.96-1.11,2.24-1.82,3.85-2.38.54,5.53-.43,10.69-.7,15.95Z"/>
                        <path class="cls-48" d="M256.06,148.86c.47.37,1.36,1.52.81,2.18l-1.86,2.26c-1.04-.89-1.1-2.02-1.99-2.56.97-.58,1.66-2.23,3.04-1.88Z"/>
                        <path class="cls-47" d="M244.7,164c-.62,1.33-4.14,3.82-5.56,2.63-2.14-1.79-.65-3.24,1.1-6.31,2.07.71,3.28,2.06,4.46,3.69Z"/>
                      </g>
                    </g>
                  </g>
                </g>
              </g>
            </g>
          </g>
        </g>
      </g>
      <g>
        <path class="cls-61" d="M281.79,237.13c.51,5.13,1.62,13.49-3.31,16.8-1.05.63-3.91,2.33-5,2.98-4.34,2.58-28.47,16.95-33.33,19.84-.21.13-.49.06-.62-.16-.13-.21-.06-.49.16-.62l26.67-15.87,6.67-3.97c1.1-.66,3.94-2.34,5-2.98,4.45-3.05,3.35-11.18,2.88-15.91.02-.84.07-2.58.09-3.2.42.84.65,2.09.8,3.08h0Z"/>
        <polygon class="cls-64" points="190.82 205.2 191.76 268.68 191.79 270.49 188.19 270.54 188.16 268.74 187.22 205.25 187.19 203.45 190.8 203.4 190.82 205.2 190.82 205.2"/>
        <line class="cls-23" x1="222.36" y1="166.95" x2="180.49" y2="192.17"/>
        <path class="cls-24" d="M178.69,110.22h.45l1.8.99,32.17,18.56c2.25,1.3,4.13,2.46,5.38,4.5l-.13,13.11c-.04,3.8.74,7.44.23,11.26-.42.28-.32.46.17.67"/>
        <path class="cls-22" d="M115.65,61.14h-.45c-2.75,1.89-5.7,3.41-8.56,5.13-.16.1-.27.33-.45.36-.58.1-.65,1.04-1.35.81"/>
        <path class="cls-86" d="M101.66,93.74c.52.62,2.03,1.04,2.93,1.6.41.2,1.02.82.97.73,5.7,3.33,11.42,7.03,17.04,10.51.65.38,1.33.9,2,1.21,3.77,1.88,7.37,3.96,11.03,6.01,2.9,1.65,5.78,3.29,8.66,5.03,1.01.6,2.81,1.96,4,2.03,1.46.19,2.65-.52,3.97-1.29,0,0,17.33-9.88,17.33-9.88.59-.35,1.77-1.04,2.24-1.32.16.82.35,1.58,0,2.22.77.11.64.27.13.66-.1.08-.08.2-.17.27-.27.2-.83.03-1.08.12-1.49.76-18.74,10.87-19.73,11.09-1.8.73-4.12.38-5.72-.64,0,0-2.13-1.34-2.13-1.34-6.37-3.77-12.88-7.53-19.46-10.92-.65-.28-1.65-.98-2.27-1.36-5.74-3.66-11.88-7.3-17.59-10.95-1.25-.95-2.59-.92-3.87-2.35-1.24-.76-2.29-1.4-2.28-1.4.27-.88-.32-1.66.38-2.18.77.45,2.66,1.57,3.63,2.14h0Z"/>
      </g>
    </g>
  </g>
</svg>