<?xml version="1.0" encoding="UTF-8"?>
<svg id="Layer_2" data-name="Layer 2" xmlns="http://www.w3.org/2000/svg" viewBox="0 0 338.33 313.76">
  <defs>
    <style>
      .cls-1 {
        fill: #de5d01;
      }

      .cls-2 {
        fill: #fde000;
      }

      .cls-3 {
        fill: #c84406;
      }

      .cls-4 {
        fill: #faa200;
      }

      .cls-5 {
        fill: #ed9b11;
      }

      .cls-6 {
        fill: #fee200;
      }

      .cls-7 {
        fill: #fec100;
      }

      .cls-8 {
        fill: #e7c73e;
      }

      .cls-9 {
        fill: #db4602;
      }

      .cls-10 {
        fill: #381c33;
      }

      .cls-11 {
        fill: #c73704;
      }

      .cls-12 {
        fill: #db5c01;
      }

      .cls-13 {
        fill: #fcfc8e;
      }

      .cls-14 {
        fill: #faa001;
      }

      .cls-15 {
        fill: #f89b01;
      }

      .cls-16 {
        fill: #fdb600;
      }

      .cls-17 {
        fill: #e77600;
      }

      .cls-18 {
        fill: #911313;
      }

      .cls-19 {
        fill: #f4e41a;
      }

      .cls-20 {
        fill: #fff932;
      }

      .cls-21 {
        fill: #dd4b01;
      }

      .cls-22 {
        fill: #fde515;
      }

      .cls-23 {
        fill: #fedd00;
      }

      .cls-24 {
        fill: #da4604;
      }

      .cls-25 {
        fill: #d75500;
      }

      .cls-26 {
        fill: #fdbb00;
      }

      .cls-27 {
        fill: #efb119;
      }

      .cls-28 {
        fill: #ec8100;
      }

      .cls-29 {
        fill: #fafc6f;
      }

      .cls-30 {
        fill: #ca4102;
      }

      .cls-31 {
        fill: #f9f99b;
      }

      .cls-32 {
        fill: #e7812e;
      }

      .cls-33 {
        fill: #bc2305;
      }

      .cls-34 {
        fill: #fa9b00;
      }

      .cls-35 {
        fill: #fda800;
      }

      .cls-36 {
        fill: #b02409;
      }

      .cls-37 {
        fill: #ee7600;
      }

      .cls-38 {
        fill: #fdb900;
      }

      .cls-39 {
        fill: #faeb31;
      }

      .cls-40 {
        fill: #f89c00;
      }

      .cls-41 {
        fill: #e45e02;
      }

      .cls-42 {
        fill: #fdc000;
      }

      .cls-43 {
        fill: #9f1609;
      }

      .cls-44 {
        fill: #fecd00;
      }

      .cls-45 {
        fill: #fbdb0d;
      }

      .cls-46 {
        fill: #fdbf02;
      }

      .cls-47 {
        fill: #cf3806;
      }

      .cls-48 {
        fill: #fde20b;
      }

      .cls-49 {
        fill: #faca14;
      }

      .cls-50 {
        fill: #fca400;
      }

      .cls-51 {
        fill: #e67300;
      }

      .cls-52 {
        fill: #c33102;
      }

      .cls-53 {
        fill: #dc5f03;
      }

      .cls-54 {
        fill: #f69a0a;
      }

      .cls-55 {
        fill: #b0280b;
      }

      .cls-56 {
        fill: #dd5807;
      }

      .cls-57 {
        fill: #765a46;
      }

      .cls-58 {
        fill: #f9fde9;
      }

      .cls-59 {
        fill: #f8da16;
      }

      .cls-60 {
        fill: #ce4002;
      }

      .cls-61 {
        fill: #f9f140;
      }

      .cls-62 {
        fill: #fdcb03;
      }

      .cls-63 {
        fill: #fa9700;
      }

      .cls-64 {
        fill: #e94905;
      }

      .cls-65 {
        fill: #e46f00;
      }

      .cls-66 {
        fill: #fbd21e;
      }

      .cls-67 {
        fill: #df6700;
      }

      .cls-68 {
        fill: #f3fa53;
      }

      .cls-69 {
        fill: #b3240a;
      }

      .cls-70 {
        fill: #fef912;
      }

      .cls-71 {
        fill: #fbfbcd;
      }

      .cls-72 {
        fill: #d74204;
      }

      .cls-73 {
        fill: #fed900;
      }

      .cls-74 {
        fill: #fbac00;
      }

      .cls-75 {
        fill: #fed000;
      }

      .cls-76 {
        fill: #fed602;
      }

      .cls-77 {
        fill: #fdb800;
      }

      .cls-78 {
        fill: #fed700;
      }

      .cls-79 {
        fill: #65241d;
      }
    </style>
  </defs>
  <g id="Layer_1-2" data-name="Layer 1">
    <g id="Generative_Object" data-name="Generative Object">
      <g>
        <path class="cls-42" d="M244.35,119.16l-1.45,2.05c-.51-.54-.83-.25-.18.21l-1.55,3.34-.97-.04c.65.61.64,1.27-.39.78.16.36.29.43.39.53s.01.55-.22.6c-.14.03-.29-.64-.66-.23.35-.01.48.86.33.98s-1.02-.64-.31.22l-2.04,4.45c-.25.08-.51-.15-.44-.42l.19-1.1c-.76.35-1.04-.38-1.44-.57-.29-.9-1-1.85-1.66-2.49-.07-.65-.14-1.03-.83-1.25.18-.47-1.91-3.33-2.08-3.33.27-.76-.43-.92-.83-1.25.04-.67-.7-1.7-1.25-2.08.1-.8-.31-.88-.83-1.25.09-.69-.74-1.66-1.25-2.08.04-.69-.22-1-.83-1.25.17-.48-1.91-3.32-2.08-3.33.37-.8-.59-.88-.83-1.25l-8.31-13.72c-.05-.12.03-.29,0-.42l1.66,1.66c.15.73.38,1.89,1.25,2.08-.06.8.29.87.83,1.25.2,1.21,1.06,2.64,2.08,3.33.1.61.1,1.08.83,1.25-.06.64.53,2.03,1.25,2.08-.15.87.42.81.83,1.25.32.35-.05,1.2.83,1.25-.12.63.57,2.02,1.25,2.08-.13.74.41.93.83,1.25.33.25-.06,1.38.83,1.25-.25.46.18.74.42.83-.2.72.42.94.83,1.25,0,.62.65,1.82,1.25,2.08-.16.79.44.92.83,1.25.32.26-.06,1.37.83,1.25-.29.48.21.71.42.83-.27.72.66.87.83,1.25.18.41.2,1.11.83,1.25.4.09-.11,1.48.83,1.25-.42.62.47.58.42.83-.13.59.44,1.01.83,1.25.09.64.42,1.46,1.16,1.57-.17-1.01-.83-1.27-1.16-1.57-.3-.28.05-1.35-.83-1.25-.02-.22.05-.42,0-.62-.04-.17-.22-.26-.42-.21.55-.82-.77-.84-.83-1.25-.08-.54-.26-1.06-.83-1.25-.39-.12.11-1.46-.83-1.25-.02-.23.05-.43,0-.62s-.22-.24-.42-.21c.51-.82-.74-.85-.83-1.25-.12-.55-.16-.96-.83-1.25.13-.65-.75-1.7-1.25-2.08,0-.52-.16-1.19-.83-1.25-.02-.22.05-.42,0-.62-.04-.19-.22-.24-.42-.21.44-.79-.64-.88-.83-1.25-.21-.39-.03-1.18-.83-1.25.11-.63-.57-2.04-1.25-2.08.16-.84-.44-.82-.83-1.25-.32-.35.05-1.19-.83-1.25.12-.69-.58-1.92-1.25-2.08.07-.77-.3-.88-.83-1.25-.2-1.21-1.07-2.63-2.08-3.33-.1-.61-.1-1.09-.83-1.25.05-.7-.81-1.64-1.25-2.08-.24-1.18-1.03-2.66-2.08-3.33-.16-.65-.38-.94-.83-1.25-.15-1.2-1.09-2.65-2.08-3.33-.14-.75-.39-1.87-1.25-2.08.05-.64-.2-1.08-.83-1.25,0-.75-.49-1.87-1.25-2.08-.01-.53-.15-1.21-.83-1.25.08-.77-3.06-5.76-4.16-6.65-.16-1.21-1.09-2.64-2.08-3.33-.09-.92-2.54-5.04-3.33-5.4.09-.93-.74-1.63-1.25-2.46l-5.09-8.26c-.38-.61-.51-1.19-1.14-1.33-.01-.72-.48-1.92-1.25-2.08,0-.9-3.14-5.91-4.16-6.65-.01-.76-.48-1.85-1.25-2.08.03-.92-.57-1.64-1.25-2.08-.23-1.18-1.03-2.66-2.08-3.33-.15-.77-.38-1.83-1.25-2.08-.02-.78-.47-1.83-1.25-2.08-.08-.76-.43-1.86-1.25-2.08,0-.57-.16-1.16-.83-1.25.16-.51-.14-.7-.42-.83-.15-.69-.38-1.93-1.25-2.08.12-.58-.25-1.14-.83-1.25-.02-.22.05-.42,0-.62s-.22-.24-.42-.21c.46-.79-.66-.87-.83-1.25-.2-.42-.04-1.14-.83-1.25.38-.89-1.16-1.67-1.16-2.4l-.2-20.29c0-.58-.58-1.33-.35-1.92.06-.23.19-.23.32-.05.13.96.8,1.7,1.39,2.65l14.6,23.29,58.55,93.08Z"/>
        <path class="cls-23" d="M168.75,24.8l-.04,32.09c-.02.17.04.42-.07.6l-26.22,42.87-24.92,40.78c-.14-.02-.25-.13-.37.02-.34-.23-.68.36-.93.37l-9.45.09c-.13,0-.3-.05-.42,0,.12-.94-.81-1.61-1.22-2.44l-3.46-7c.52-.31.49.4.97.2-1.79-1.07,2.22-3.81,2.46-6.14.9-.75,2.01-2.07,2.08-3.33,1.26-.99,2.08-2.63,2.49-4.16.72-.32,1.11-.91,1.25-1.66.53-.02,2.41-3.31,2.49-4.16.98-.8,1.87-2.04,2.08-3.33,1-.77,1.87-2.06,2.08-3.33,1.02-.76,1.84-2.07,2.08-3.33,1-.75,1.87-2.08,2.08-3.33.66-.43,1.3-1.17,1.25-2.08.51-.13,1.06-.66.83-1.25.19-.03.37.01.42-.21.04-.19-.02-.39,0-.62.68-.1.82-.68.83-1.25.67-.15,1.37-1.39,1.25-2.08.88-.06.51-.9.83-1.25.41-.44.98-.38.83-1.25.82-.06,1.16-1.43,1.25-2.08.75-.25,1.25-1.3,1.25-2.08.66-.17.83-.62.83-1.25.76-.2,1.24-1.33,1.25-2.08.66-.18.83-.61.83-1.25.77-.2,1.23-1.33,1.25-2.08.47-.13,1.11-.67.83-1.25.19-.02.37,0,.42-.21.04-.19-.02-.39,0-.62.86.09.55-.94.83-1.25.32-.35,1.15-.46.83-1.25.76-.04,1.24-1.44,1.25-2.08.67-.11.82-.66.83-1.25.82-.21,1.17-1.33,1.25-2.08.82-.25,1.15-1.3,1.25-2.08.67-.21,1.37-1.34,1.25-2.08.88-.07.51-.89.83-1.25.41-.44.98-.38.83-1.25.76-.05,1.24-1.44,1.25-2.08.63-.17.88-.61.83-1.25.73-.2,1.29-1.34,1.25-2.08.99-.68,1.93-2.13,2.08-3.33.6.04.72-.68.97-1.07l1.95-3.13c.52-.83,1.23-1.54,1.24-2.45.63-.45,1.32-1.15,1.25-2.08.66-.18.83-.61.83-1.25.82-.21,1.16-1.32,1.25-2.08.73-.24,1.28-1.31,1.25-2.08.62-.16.9-.61.83-1.25.84-.43,3.39-4.76,3.33-5.4.78-.4,4.49-6.52,4.57-7.48.9.1-.09-.95.88-.83.18.12.01.29.01.42Z"/>
        <path class="cls-44" d="M170.39,25.15c.56,2,2.23,3.56,3.15,5.64.29.33.62.22.55-.17-.02-.13,0-.28,0-.42.66.18.43,1.24,1.25,1.25.02.23-.05.43,0,.62.05.22.23.19.42.21-.19.61.3,1.1.83,1.25.01.78.48,1.84,1.25,2.08.09.77.43,1.85,1.25,2.08.03.93.53,1.63,1.25,2.08.23,1.19,1.04,2.65,2.08,3.33.15.78.38,1.83,1.25,2.08-.03.95.59,1.6,1.25,2.08.02.91.73,1.61,1.25,2.45l1.77,2.87c.38.62.47,1.18,1.14,1.32,0,.73.48,1.9,1.25,2.08.01.91.69,1.63,1.22,2.49l5.09,8.24c.4.65.6,1.06,1.17,1.32-.06.67,2.35,4.73,3.33,5.4.12,1.26,1.14,2.56,2.08,3.33.12.9.69,1.58,1.24,2.46l1.95,3.12c.28.44.36,1.04.97,1.07-.06.64.21,1.08.83,1.25.02.75.48,1.87,1.25,2.08,0,.63.17,1.09.83,1.25-.07.92.61,1.64,1.25,2.08.22,1.22,1.05,2.61,2.08,3.33.1.79.19.85.83,1.25l.42,1.66c.03.13-.05.3,0,.42,1.89,4.8,5.37,9.21,8.31,13.72.27.45.01,1.16.83,1.25-.2.43,1.94,3.37,2.08,3.33-.26.76.43.92.83,1.25-.04.67.7,1.7,1.25,2.08-.1.8.31.88.83,1.25-.09.69.74,1.66,1.25,2.08-.04.69.22,1,.83,1.25-.17.48,1.91,3.33,2.08,3.33-.29.79.47.89.83,1.25.1.85.88,2.13,1.66,2.49.21.66.35,1.46,1.25,1.66-.07.27.19.5.44.42,1.2-.39,4.63,6.7,5.79,7.48-.04.13.02.28,0,.42-.19.75-.45-.01-.83,0,.38-.91-.88-.83-.83-1.25.08-.65-.65-.88-.83-1.25-.2-.42-.34-1.02-.83-1.25-.37-.17-.1-1.25-.83-1.25-.39-.03.07-1.46-.83-1.25.04-.4-.06-.78-.4-1.07-1-.87-2.06,1.88-2.27,2.3-.58-.58-.83-.23-.17.23-.72,1.59-1.56,3.22-2.45,4.92-.18.35-1.28.73-.7,1.05-.27.07-.22.18-.01.31-3.21-.02-6.51.36-9.8.16-2.11-3.71-4.09-7.52-6.93-11.2l6.1,10.37c-.14,0-.28-.02-.42,0s-.29-.04-.42,0c.14-.56-.26-1.16-.83-1.25.21-.56-.25-.64-.42-.83-.01-.58-.17-1.09-.83-1.25-.01-.78-.49-1.84-1.25-2.08-.09-.74-.42-1.88-1.25-2.08-.01-.51-.15-1.24-.83-1.25-.09-1.22-.94-2.15-1.69-3.38l-31.15-51.08c-2.49-2.69,4.47,4.22.81.22l-.4-.44c-.13-.14-.35-.3-.41.22-3.88-6.36-8.64-12.39-12.02-19.12l-.14-1.19c-.03-.22.11-.39-.31-.6v-31.9c.3-.14.56.12.45.38Z"/>
        <g>
          <path class="cls-20" d="M167.45,23.96c-.72.51-.99,1.85-1.66,2.49-.04.12.06.31,0,.42-.77.13-1.25,1.07-1.25,1.66v.42c-.77.13-.89,1.07-1.25,1.66-.06.11.04.29,0,.42-.9.2-1.03,1.01-1.25,1.66-.46.29-2.63,3.77-2.49,4.16-.39.44-1.01.38-.83,1.25-.54.43-1.28,1.37-1.25,2.08-.36.29-1.07.55-.83,1.25-.26.1-.6.34-.42.83-.67.03-.83.76-.83,1.25-.48.4-1.38,1.41-1.25,2.08-.76.34-.49.63-.83,1.25-.65.68-4.27,5.82-3.74,6.65.07.1-.04.3,0,.42-.03,1.16-1.33,1.7-1.25,2.91-.64.44-1.32,1.16-1.25,2.08-.66.18-.83.61-.83,1.25-.67.18-1.37,1.36-1.25,2.08-.88.06-.51.9-.83,1.25-.41.44-.97.38-.83,1.25-.82.06-1.17,1.44-1.25,2.08-.81.25-1.16,1.29-1.25,2.08-.76.23-1.24,1.31-1.25,2.08-.66.17-.83.61-.83,1.25-.29.05-.6.27-.83.42l.42-1.66c.58-.04.97-.71.83-1.25.19.06.38-.05.42-.21.05-.2-.02-.4,0-.62.66-.06.75-.75,1.17-1.56-.61.17-1.3.82-1.17,1.56-.19-.06-.38.05-.42.21-.05.2.02.4,0,.62-.56.1-.71.75-.83,1.25-.82.06-.72.93-.97,1.43-.74,1.51-2.13,2.51-2.36,3.97-.46.37-1.01.44-.83,1.25-.67.34-1.11,1.42-1.25,2.08-.24.15-1.3.65-.68,1.11.53.25.57-.79.68-1.11.35-.61,1.43-1.23,1.25-2.08.68-.35.71-.5.83-1.25,1.25-1,1.52-2.89,2.91-3.74-.14.55-.67,1.04-.42,1.66-.89.04-.49.97-.83,1.25-.41.33-.93.62-.83,1.25.04.26-.74.18-.42.83-.68.09-.82.68-.83,1.25-.76.21-1.24,1.32-1.25,2.08-.66.17-.83.61-.83,1.25-.76.2-1.24,1.33-1.25,2.08-.66.17-.83.61-.83,1.25-.83.21-1.15,1.33-1.25,2.08-.66.22-1.37,1.34-1.25,2.08-.88.07-.51.89-.83,1.25-.4.44-.98.38-.83,1.25-.77.05-1.23,1.44-1.25,2.08-.67.15-.79.67-.83,1.25-.11.23-.64.25-.42.83-.65.09-.86.68-.83,1.25-.85.22-1.12,1.32-1.25,2.08-1.04.68-1.85,2.13-2.08,3.33-1,.75-1.87,2.07-2.08,3.33-1,.74-1.88,2.08-2.08,3.33-.95.73-1.95,2.08-2.08,3.33-1.19.97-2.21,2.62-2.49,4.16-.99.04-.89,1.24-1.25,1.66-.68.81-2.43,2.9-2.49,4.16-.95.74-1.95,2.08-2.08,3.33-1.4,1.16-2.11,2.98-3.34,4.59-.28.37.41,1.35-.4,1.23l-7.07-12.89,40.27-64.38c.63-1,1.35-1.59,1.3-2.55.6-.04,7.21-10.5,7.07-11.22.63-.06.9-.7.83-1.25,1.35-1.59,6.62-9.32,7.07-11.22.96-.68,1.96-2.13,2.08-3.33.67-.38.66-.63.83-1.25.11-.4,1.14-.47.83-1.25.34-.41,1.6-.8,1.25-1.66.58-.29.82-1.08.83-1.66,2.74-3.04,4.74-6.8,6.7-10.39.13-.25.34-.53.34-.82.48.06,2.9-3.66,2.94-4.59.57-.19.96-.6.83-1.25.96-.08-.1-.9.83-.83l-.05,20.4c0,.75-.97,1.3-.79,2.04Z"/>
          <path class="cls-58" d="M163.29,32.69c-.83.42-3.39,4.76-3.33,5.4-.6.31-.86.5-.83,1.25-.82.22-1.16,1.32-1.25,2.08-.75.25-1.25,1.3-1.25,2.08-.63.16-.88.61-.83,1.25-.77.2-1.24,1.33-1.25,2.08-1.01.73-4.01,5.53-4.16,6.65-.38-.03-.46.46-.83.42-.04-.12.07-.31,0-.42l3.74-6.65c.41-.43,1-.39.83-1.25.6-.27,1.24-1.46,1.25-2.08.38-.33,1.12-.49.83-1.25.19,0,.37,0,.42-.21.04-.19-.02-.39,0-.62.65-.1.86-.67.83-1.25.49-.38,1.38-1.43,1.25-2.08.4-.32,1.1-.49.83-1.25,1.04-1.18,1.99-2.65,2.49-4.16.6-.39,1-.89,1.25-1.66.04-.12-.06-.31,0-.42.77-.13,1.25-1.07,1.25-1.66v-.42c.77-.13.89-1.07,1.25-1.66.06-.11-.04-.3,0-.42l1.25-.83c-.43,1.73-3.85,6.01-3.74,7.07Z"/>
        </g>
        <path class="cls-60" d="M169.53,58.88c-.1-.07-.75.28-.79.56l-.1,34.57c-.6,1.4-1.4,2.6-2.16,3.87l-25.68,42.86c-.1.14-.16.21-.03.36l-22.79.07,24.86-40.41,25.75-41.96c.2-.33,0-.61.31-.76.19-.09.46-.03.63.19.1.13-.12.45,0,.65Z"/>
        <path class="cls-79" d="M196.96,140.36c-.26.29-.71-.92-.79-.21-.02.21.34.33.39.43.13.28.49.14.4-.23l.83.42c-2.25.37-5.11.75-7.36.23-1.99-3.87-4.01-7.04-6.08-10.54l-14.83-25.2c-.14-.24-.28-.24-.42,0l-20.96,35.94-7.39-.1c-.14-.15-.07-.22.03-.36,9.34-13.56,18.2-27.75,26.19-42.4l2.3-4.21,27.68,46.22Z"/>
        <g>
          <path class="cls-63" d="M215.25,132.04c.05.63.14,1.08.83,1.25.02.78.48,1.83,1.25,2.08.09.74.42,1.89,1.25,2.08,0,.58.16,1.15.83,1.25.02.23-.05.43,0,.62.05.23.23.19.42.21-.2.56.3,1.16.83,1.25-2.85.97-6.36.14-9.47.43-.13-.72-.14-1.69-.92-1.67-.13-.53-.45-.57-.42-.83.09-.63-.4-.98-.83-1.25,0-.62-.65-1.84-1.25-2.08.09-.59-.49-.84-.83-1.25-1.54-3.04-3.42-5.98-5.4-8.73.33-.81-.53-.87-.83-1.25-.54-1.19-5.13-9.15-5.82-9.15h-.42c-1.63-1.1-1.86-3.32-3.33-4.57.15-.56-.27-1.16-.83-1.25.24-.55-.27-.66-.42-.83.21-.68-.55-.88-.83-1.25-1.58-3.03-3.34-6.04-5.4-8.73-.2-.39-.02-1.28-.83-1.25.27-.53-.26-.67-.42-.83.23-.69-.59-.89-.83-1.25.07-.79-.58-1.53-1.07-2.21-1.74-2.45-2.79-5.11-4.67-7.35,1.66,3.47,3.7,6.53,5.74,9.56-.06.58.2,1.14.83,1.25.02.23-.05.43,0,.62.05.2.22.22.42.21-.4.77.57.91.83,1.25,1.58,3.02,3.33,6.04,5.4,8.73.21.4.02,1.27.83,1.25.02.22-.04.42,0,.62.05.22.23.19.42.21-.33.74.47.94.83,1.25-.15.54,3.93,6.71,4.57,7.48-.14.89.48.77.83,1.25-.19.49,5.86,9.76,6.65,10.81-.34.82.55.87.83,1.25.94,2.35,3.32,5.49,4.57,7.48.2.36.02,1.3.83,1.25-.05.14,0,.4,0,.61,0,.15.21.27.41.22,0,.68-11.53.62-12.06,0-.06-1.22-1.01-2.17-1.7-3.32l-14.19-23.59-12.22-20.12c-.46.05-.57-.1-.57-.36h.42c.17.07.44-.04.44-.43l-.09-24.97c-.79,1.17-.13,2.35-.34,3.37h-.42c0-4.17-.37-8.44.42-12.47,15.42,23.67,29.8,48.1,44.93,72.19.36.58.22.96.8.97Z"/>
          <rect class="cls-66" x="169.11" y="71.35" width=".42" height="22.03"/>
          <path class="cls-59" d="M200.7,124.15c.27.58.5.78.83,1.25-.2.49,4.59,7.76,5.4,8.73.31.6.04.93.83,1.25-.09.61.72,1.75,1.25,2.08,0,.53.16,1.17.83,1.25.02.22-.05.42,0,.62s.22.22.42.21l.42,1.66c-.12-.04-.29-.01-.42,0,.06-.27-.14-.48-.42-.42v-.61c0-.17-.21-.23-.42-.22.25-.66-.41-1.04-.83-1.25-1.05-2.61-2.88-5.23-4.57-7.48-.26-.64-.46-.76-.83-1.25.2-.49-5.86-9.75-6.65-10.81.32-.81-.52-.87-.83-1.25.17-1.14-1.51-1.71-1.25-2.91h.42c1.96,3.05,3.58,6.34,5.82,9.15Z"/>
        </g>
        <path class="cls-41" d="M249.34,127.47c-4.31-.19-4.73.71-9.15.42-.81,1.36,4.99-9.56,4.16-8.73h.42c-.1,1.25,4.58,6.9,4.57,8.31Z"/>
        <path class="cls-43" d="M238.12,133.71c-.47.78.76.84.83,1.25.09.5.35,1.05.83,1.25,0,.59.38.95.83,1.25.35.22,0,1.29.83,1.25.18.28.05,1.33.83,1.25-.26.62.8,1.66,1.25,2.08-.08.25.1.59,0,.83-.64.08-1.01.79-1.25,1.25l-1.63,3.15c-.09.85-.58.56-.45-.24-.01-.14.03-.28,0-.42.28.06.47-.14.42-.42-.03-.13-.02-.3,0-.42.77-.21.62-1.38.97-1.94.43-.68,1.59-1.2,1.02-2.24-3.48.2-7.12-.12-10.49-.14-.21-.13-.26-.24.01-.31.36.16.88-.24,1.11-.69l3.09-6.05c.2-.4.26-.8.75-1.1.3-.18.69.31,1.04.42Z"/>
      </g>
      <g>
        <path class="cls-52" d="M243.1,139.94c.02-.13-.04-.29,0-.42.2-.65-.45-1.04-.83-1.61l-4.25-6.37,2.18-3.67c-1.74,1,10.57-.09,9.15-.42.24-.06.37.1.43.24.18.39-.37.6-.53.91l-4,7.65c-.7,1.34-1.21,2.68-2.13,3.68Z"/>
        <path class="cls-22" d="M89.75,129.55c-.11,1.62,1.25,3.06,2.01,4.55l2.45,4.76c.15.29-.02.85.25,1.05.2.15.36.58.74.37.14-.08.25-.12.36.02-.04.42-.44.83-.85.88-.37-.05-.82-.44-.83-.83,0-.27-.11-.48-.42-.42v-.42c0-.28-.14-.48-.42-.42.02-.12.02-.31,0-.42-.49-.55-.49-1.77-1.25-2.08-.02-.94-.54-1.62-1.25-2.08-.19-1.05-.71-2.41-1.66-2.91-.05-.1,0-.3,0-.42,0-.57-.28-1.42-.83-1.66-.14-.02-.28.04-.42,0v-.83c.23.07.34-.1.42-.22.13-.2.2-.43.05-.59.13,0,.25-.01.38-.05.14.86.97,1.25,1.27,1.69Z"/>
        <path class="cls-9" d="M99.27,133.71c-.43.19-.83.71-.83,1.25-1.18,1.07-2.2,2.49-2.85,4.45.37-.72,1.28-1.29,1.61-1.95v.42c-.23.71-.91,1.3-.83,2.08-.32.08-.47.4-.81.36-.12-.15-.22-.1-.36-.02-.99-2.88-3.83-8.34-5.45-10.73.04-.6-.38-.84-.4-1.66,4.45-.13,5.37.09,9.35.59.79.56,1.47,2.22,1.7,3.27.08.63-1.46,1.14-1.12,1.96Z"/>
        <path class="cls-29" d="M244.77,142.85c-.38-.19-.97-.57-1.25-.83.12-.41-.19-1.08.06-1.56l6.66-12.23c.15-.14.22-.05.36.02-.18.57.12.98.8,1.42l-2.81,5.37-3.06,5.36c-.46.8-1.14,1.49-.77,2.45Z"/>
        <g>
          <path class="cls-31" d="M88.05,129.55c0,.57.28,1.42.83,1.66,0,.12-.05.32,0,.42.67.84.72,2.3,1.66,2.91.15.84.4,1.74,1.25,2.08.02.78.48,1.83,1.25,2.08.02.11.02.3,0,.42-.05.28.13.48.42.42v.42c0,.28.14.48.42.42,0,.4.46.79.83.83,0,.86-.54,1.72-1.25,2.08v-.42c.11-.44.49-.61.46-1.06,0,.06-3.46-6.14-3.78-6.01-.04-.11.07-.33,0-.42-.49-.6-.49-1.71-1.25-2.08-.24-1.2-.86-2.41-1.66-3.33.09-.19.07-.51.42-.42.13.04.28-.02.42,0Z"/>
          <path class="cls-76" d="M88.88,133.29c.15.76.38,1.84,1.25,2.08.07.09-.04.3,0,.42.75,2.17,2.4,3.91,3.43,6.22.09.21-.5.51-.52.64s.26.28.41.21v.42c.33,0-1.51,3.48-2.12,2.15.46.37.56.91.16,1.32-.22.22-.43.14-.68.14,1.42-.79-5.14,9.71-4.44,6.44.27.31.83.98.09,1.31s-.41-.13-.59.39c-1.21,3.5-3.93,6.41-5.74,9.87-.84-.54-.97-.27-.24.28l-31.32,50-19.12,31.15c-1.23,2.01-2.31,3.87-2.91,5.87-.81.19-.47.94.33.9,1-.05,1.83-.42,2.63-.87l17.07-9.5,6.92-3.91c.56-.32,1.33-.59,1.33-1.17.41.05.84,0,1.25,0h11.64c.57.7,2.34.7,2.91,0h3.33c-.05.05-.03.3.13.41h58.07c1.24.85,2.99.33,4.48,1.08.5.25.89,1.54.42,2.12l-7.53,9.13c-.52.63-1.08,1.15-1.11,1.85,0,.05,0,.36.1.36l20.27.02c-.08-.48-.44-.58-.51-.88-.05-.18-.24-.23.02-.37.76.47,1.37,1.84,2.16,2.09.37.67.24,1.88,1.25,2.08.08.68.43,1.97,1.25,2.08-.15.87.43.8.83,1.25.33.36-.04,1.15.83,1.25l.42,1.66h-.42c.1-.03-2.82-4.8-2.91-4.16-.05-.12.03-.29,0-.42l-2.12-3.72c-2.52-.18-4.91.26-7.29-.2-1.47-.28-3.15-.49-4.55-.05-2.01.63-3.95,0-5.76-.03-.73-.01-1.73.82-2.46-.1-.15-.19-.28.24-.26.36-.3.34-.69-.42-.99-.42l-98.98.06c-.84,0-2.64.29-3.41.53l-21.67,13.57c-1.29.81-2.15,1.65-3.4,2.05.02-.93.62-1.55,1.27-2.6l54.36-87.61,30.83-49.04c.37,1.35.54,2.79,1.66,3.33Z"/>
        </g>
        <path class="cls-75" d="M338,268.79c.05.07.06.16.01.23-.83.14-1.45-.57-2.19-1.03l-11.65-7.13-11.6-7.48c-1.13.36-2.63-.33-3.59-.33l-66.49.1c-3.2,0-6.13.23-9.33.13l-21.66-.69h98.1c.86-.25,1.43.61,2.54.42-.1-1.59-.88-2.82-1.71-4.2l-17.79-29.15-18.89-30.41c.7-.5.45-.84-.15-.26l-4.86-7.48c.68-.71.51-1-.16-.4l-12.33-19.57c1.02-1.12-.36-.44-.35-.72.02-.43-9.97-14.86-11.14-17.96.75.5,1.03.35.22-.45l4.03-6.94,2.69-5.09,41.62,66.56,44.67,71.86Z"/>
        <path class="cls-72" d="M101.35,132.04c.03,1.64,3.22,7.26,4.59,9.46l-10.07.14c.22,1.71,1.28,3.1,2.11,4.55l5.45,9.55c.02.14-.03.28,0,.42l-3.04,4.58c-.1-.05-.21-.02-.31-.02l-4.96-17.86c.03-.13-.02-.28,0-.42.21-.33,0-1.03.74-1.37.51-.23.55-.72.51-1.12.67-.18,1.37-1.36,1.25-2.08.84,0,.58-.92.83-1.25s1.22-.48.83-1.25c.28.04.48-.13.42-.42.72-.2,1.18-1.13,1.22-2.09l-1.22,1.26c0-.14.01-.28,0-.42-.08-.84.79-1.79,1.66-1.66Z"/>
        <path class="cls-8" d="M99.69,134.12v.83c-.24-.08-.54.17-.42.42-.89-.12-.51.99-.83,1.25-.36.29-.97.47-.83,1.25h-.42v-.42l1.25-2.49c.37-.33,1.14-.48.83-1.25h.42c.01.14,0,.28,0,.42Z"/>
        <path class="cls-17" d="M95.12,142.85c-.18.8.18,1.56.43,2.49l3.73,14.13c.16.61.12,1.24.8,1.25.11,0,.21-.03.31.02l-12.82,21.14-29.31,48.75c-1.31,2.19-2.49,4.07-3.47,6.17-.05.11,0,.29,0,.42v.42c-.71-.09-8.94,4.89-10.5,5.75l-16.07,8.82c-.4.22-.69.41-1.06.41-.29,0-.68.05-.64-.43,1.75-1.88,2.6-4.41,4.07-6.79l22.04-35.68,14.72-23.55,27.76-43.72c-.02.14.03.28,0,.42Z"/>
        <path class="cls-28" d="M283.84,237.63c-.04-.18,0-.36-.15-.53-.16-.18-.22-.48-.24-.72-.08-.91-.65-1.59-1.25-2.59l-35.83-59.62-7.4-12.28c.13-.12.11-.33.31-.39.28.15.53,0,.42-.37l3.23-14.3c.3-1.34.07-2.73.59-3.99.62-.08.67.73.93,1.13l10.37,16.26,17.47,27.84,20.59,33.04,17.63,28.93c.55.9,1.06,1.65,1.02,2.71-.77-.66-1.33-.42-1.79-.68l-22.83-12.96c-1.02-.58-2.03-1.26-3.06-1.49Z"/>
        <path class="cls-78" d="M111.75,185.67c.02.31-.3.4-.08.73-.12-.08-.23-.05-.34.02.11-1.27-.86.69-.83,1.33-.7.22-1.03,1.42-1.25,2.08-.73.52-1.33,2.04-1.48,3.17-.27,1.94,1.45,3.76,1.48,5.88-.47.2-.46-.25-.42-.53.02-.16-.24-.26-.41-.21-.01-.13.04-.29,0-.42-.34-1.12-.5-2.42-1.25-3.33-.14-.02-.28-.02-.42,0l-11.64,18.3c-.47.21-1.13.67-1.19,1.23.1.11.08.24.03.36-.36.87-.81.62-.31.87.14.07.37-.55.63-.38v.42l-.83.83c-.82-.58-.84.82-1.25.83-.62.01-.93.32-1.25.83-.21.35-1.26.03-1.25.83-.28.22-1.28.07-1.25.85-.36.12-1.08.31-1.19.81-1.87.76-4.16,1.6-5.92,2.86-1.43,1.02-3.21,1.2-4.11,2.55-.32.09-.6-.33-.4-.6.09-.12.22-.36.37-.63l9.28-15.73,17.68-29.24,2.85-4.56c.74,4.19,2.11,7.93,4.72,10.85Z"/>
        <path class="cls-69" d="M108.38,176.11c-.14.16-.09.38.03.61.07.13.22.25.42.22-.06.92.71,1.64,1.25,2.47l4.29,6.55,5.72,9.31,18.36,30.68c-4.31.22-8.22-.15-12.36-.17l-47.14-.25c-.44,0-.53.33-.46.47-.42,0-.81-.18-1.25,0v-.42l9.71-4.67,44.61.14c.21,0,.47.73.74.41.11-.13.21-.26.22-.45.86-.52-.3-1.69-.78-2.49l-15.39-25.82c-1.5-2.52-2.81-5-4.62-7.02-.1-1.51-4.16-6.55-4.06-10.01.4-.19.36.47.7.45Z"/>
        <path class="cls-50" d="M132.53,221c-.38.04-.71.11-.98-.41h-44.21c-.15-.11-.14-.38-.06-.42.12-.49.83-.68,1.19-.81.36-.33,1.12-.29,1.25-.85.82.57.84-.8,1.25-.83.63-.04,1-.27,1.25-.83.16-.38,1.43.1,1.25-.83.38.06.65.07,1.03-.39.12-.14.41-.4-.2-.44v-.42c.3-.03.93-.46.83-.83.85.54.83-.84,1.25-.83.47,0,.91-.48,1.25-.83.29-.3,1.11-.21,1.25-.83.09-.4,1.28-.13,1.25-.83.64.23.85-.72,1.25-.83.53-.16.97-.25,1.25-.83.18-.37,1.26,0,1.25-.83.53.11.88-.64,1.25-.83.54-.28.9-.11,1.25-.83,1.5-.43,2.48-1.74,4.29-2.41.29-.15-.52-1.01.22-.94.05.7.27,1.06.9,1.27.4.57.81,1.29,1.65,1.63-.44-.76-.98-1.31-1.65-1.63.15-.6-.3-1.2-.9-1.27-.21-3.16-2.98-9.06-2.68-9.97l1.09-3.31c.65-.46,1.3-1.14,1.25-2.08.53-.17.61-.89.83-1.33.11-.07.23-.1.34-.02l10.18,16.46c-.74.53-.47.86.18.26l10.51,17.89Z"/>
        <path class="cls-14" d="M108.42,197.72c.04.13-.01.28,0,.42.08.7.36,1.34.68,2.01.09-1.32.73-1.48.47-.24-.23.33.7.36.56.88-.07.26,0,.68-.38.69-.1-.29.14-1.04,0,0-.18.45.59,1.53.32,1.92-.99,1.44-3.08,1.73-3.72,3.05-.63.18-.94.38-1.25.83-.23.34-1.2.17-1.25.83-.03.42-1.52-.12-1.25.83-.37.29-1.12.28-1.25.83-.82-.64-.84.91-1.25.83-.76-.14-.84.55-1.25.83-.37.25-1.06.25-1.25.83-.13.39-1.26.12-1.25.83,0,.4-1.51-.12-1.25.83-.26-.17-.78.67-1.16.34.05-.12.07-.25-.03-.36.62-.12.86-.84,1.19-1.23,3.88-4.69,6.79-10.17,10.4-15.38.66-.96,1.43-1.86,1.24-2.92.14-.02.28-.02.42,0,.1,1.15.36,2.57,1.25,3.33Z"/>
        <g>
          <path class="cls-10" d="M239.36,149.09c-.39.99-1.14,1.83-1.25,2.91-.74.72-1.39,1.93-1.66,2.91-.38.36-1.02.53-.83,1.25-.2.15-.74.52-.39,1.02.19.27.53.61.79,1.03l9.3,15.34,37.09,61.68c.35.58.45,1.15,1.04,1.16.02.24.08.54.24.72-.56.38-.95-.26-1.46-.26l-21.84-.2-13.32.02c.76,0-36.87-.52-32.46-.02-7.26-.81-13.27.21-20.46.2l-22.97,38.15c-.87,1.45-1.72,2.72-1.59,4.22-.27,0-.54-.11-.47-.42.06-1.18-.51-2.21-1.22-3.4l-22.3-37.39c-.96-1.61-2.61-2.03-4.07-1.36-1,.46-2.19,0-3.17.16-.31-1-1.6.07-2.51-.66l5.94-.34c-.19-1.43-1.56-1.44-2.04-1.99-1.69-1.95-5.18-2.73-5.8-3.7-.85-1.33-1.84-.98-2.93-1.39-1.49-.55-2.56-1.89-4.33-1.89h-34.06c.04-.07.02-.19-.09-.41h-15.65c-.14-.4.18-.48.36-.42.44-.18.83,0,1.25,0l47.6.18c4.11.02,8.13.53,12.09.09,1.04-.12.42-1.2.17-1.61l-18.33-30.6-5.45-8.78c-1.82-2.93-3.61-5.9-5.74-8.33.01-.18.03-.39,0-.61s-.25-.22-.45-.21c-.33.02-.3-.65-.7-.45.22-.25-.15-.59-.12-1.01.02-.29-.73-.28-.99-.19-.24.08-.34.53-.58.92l-13.34,21.92-6.59,10.95c-3.5,5.82-6.99,11.48-10.08,17.33-.32-.07-.4.15-.42.42-.91-.06-1.64.72-2.5,1.21l-15.38,8.8c-.99.57-1.82,1.45-2.91,1.21,0-.13-.05-.3,0-.42,1.01-.32,1.25-1.39,1.85-2.39l31.48-52.34,7.39-12.21,6.69-10.81c.59-.96,1.45-1.82,1.22-2.9-.03-.13.02-.28,0-.42l11.7,19.93,17.42,29.52,17.11,28.66,18.68,30.7c.35.58.4.97.97.98s.61-.42.95-.97l10.78-17.47,8.35-13.76,34.16-57.57,10.04-17.08c.72-1.23,1.48-2.44,1.6-3.76.27-.46,1.04-.36.83-1.25.88-.2,1.09-1.34,1.25-2.08.98-.48.99-3.06,2.08-2.49Z"/>
          <path class="cls-73" d="M232.63,176.88c-.39-.21-.43.26-.64.44-.81.66-.26,1.82-.94,2.54-.64.67-1.16,1.56-1.25,2.49-3.17,4.1.56,6.99,1.11,10.89.14.96-.41,2.21-.73,3.24l-2.07,6.63c-.11.35.03.75.21.84.15.08.39-.01.64,0,.33.83,1.23,1.38,2.08,1.66,0,.14-.01.28,0,.42s-.04.29,0,.42c-.6-.45-1.41-.93-2.08-1.25-.32-.16-.58-1.45-1.28-.8l-5.75,5.33c-3.52,3.26-8.59,6.26-11.67,9.18-.58-.14-1.15.26-1.25.83-.02.13.02.28,0,.42-.38-.04-.78.07-.83.42-.98.09-2.08.71-2.49,1.66-.94.05-1.63.83-2.08,1.66h-.42v-.83c.63-.12.93-.8,1.25-1.25,1.08.18,1.07-.75,1.64-1.69l14.9-24.56,6.38-10.27c1.18-1.9,2.21-3.88,2.85-5.88.48.09.46-.41.35-.88.81-.95,1.01-2.03.92-3.22.68-.37.96.25,1.03.73l.12.81Z"/>
          <path class="cls-3" d="M230.22,179.43c-1.56,1.33-2.07,3.65-3.22,5.49l-6.26,10.01-13.38,21.87c-1.1,1.79-1.83,3.51-2.91,5.03-.63-.11-.91.95-1.25,1.25-.29.26-1.15.34-.76,1.29.36-.11.42-.55.76-.46-.03.48.43.51.42,0,.88.03,1.73-.87,2.08-1.66.96-.05,1.95-.92,2.49-1.66.34-.47,1.08.39,1.4.39l27.07-.12c1.37,0,2.51-.54,3.99.13.96.43,2.06-.25,3.01-.21l8.78.44c2.28.11,3.96,2.24,6.05,2.69.7.38,1.54,1.34,2.49,1.25.27-.03.56,0,.83,0,2.27.74-6.52.19-8.83.64-2.79.55-5.56.04-8.41-.05-9.67-.31-19.44-.27-29.09-.02-2.26.06-4.39.61-6.64.05-2.57-.63-5.31.11-8.12-.29.12-.35.46-.73.83-.75-.02.51.56.69,0,0,3.62-6.89,7.81-13.52,12.13-20.34l3.68-5.79,4.09-7.2,6.2-10,2.98-5.21c.1.21.23.22.37.03.02,2.18-1,1.48-.76,3.19Z"/>
          <path class="cls-4" d="M232.63,176.88c1.79,12.64,15.16,24.15,22.52,36.57l4.67,7.88c.76,1.29,1.3,2.64,1.98,3.83-.28,0-.56-.03-.83,0,.31-.64-2.12-1.21-2.49-1.25-1.13-1.59-3.41-1.7-4.81-2.95.3-.16.19-.28-.02-.45-.04-.04-.07-.13,0,0l-.5-.39c-.16-.12-.2-.51-.49-.3-.17.13-.25.05-.42-.02.04-.6-.63-.75-1.08-1.05l-13.02-8.6c-.68-.45-1.05-.69-1.69-.79-.47-1.02-1.85-1.84-2.91-2.08-.26-.48-.54-1.05-1.25-.83-.05-.78-.75-.67-1.25-.83-.3-.91-1.47-1.02-2.08-1.66-.28-.3-.41-.77-.44-1.07.01.08,2.8-7.81,2.75-9.49.03-1.07-.62-3.03-1.1-4.05.12-.14.03-.39.28-.42,1.28-4.27.98-8.08,1.53-11.63.21-.17.25-.64.64-.44Z"/>
          <path class="cls-49" d="M230.46,188.94c-.25.03-.16.28-.28.42-2.72-5.73-.35-5.23-.2-6.54.02-.18.48-.44-.18-.47.09-.94.61-1.82,1.25-2.49-.06.36.33.47.44.65-.37-.61-.55,6.68-1.29,7.67-.07.32-.09.88.26.77Z"/>
          <path class="cls-16" d="M228.97,205.21c-.62-.22,2.43,2.38,2.08,1.25-.04-.13.01-.28,0-.42.46.15.72.58,1.25.42.05.75.73.71,1.25.83.52.96,1.81,1.9,2.91,2.08.42.92,1.36,1.34,2.31,1.84,2.39,1.27,4.28,3.13,6.39,4.4-.11.37.16.7.02,1.01-.12.28-.7.05-.82.23-1.45,2.06-3.62,2.81-6.26,2.82l-26.16.1c.06-.44-.29-.43-.62-.43s-.68-.01-.62.43h-.83l.42-.83c1.14.05,1.92-.96,2.86-1.66l6.71-4.97,2.5-2.14c2.01-1.72,3.68-3.7,5.61-5.32.34.44.65.43,1.02.38Z"/>
          <path class="cls-45" d="M252.25,219.81c.17.07.24.15.42.02-.05.32.24.42.49.3l.5.39c.21.16.32.28.02.45-.35.26-.8-.22-1.16-.23l-8.88-.36c-.92-.04-2.04.61-2.99.2-1.49-.64-2.62-.13-3.99-.13l-27.11.15c-.14,0-.4-.4-.53-.42.02-.14-.02-.28,0-.42h2.91l26.16-.1c2.64,0,4.82-.76,6.26-2.82.12-.18.7.06.82-.23.14-.32-.13-.64-.02-1.01,2.36,1.41,4.58,3.13,7.1,4.21Z"/>
        </g>
        <path class="cls-57" d="M92.62,226.82h34.06c1.77,0,2.83,1.35,4.33,1.9,1.09.4,2.08.05,2.93,1.39.62.98,4.1,1.75,5.8,3.7.48.55,1.85.56,2.04,1.99l-5.94.34c.9.74,2.2-.34,2.51.66-1.24.21-2.59-.15-3.93-.24-6.47-.43-12.91.02-19.54.04l-57.18.2c-.48.39,7.46-5.13,7.64-3.97-.16-.48.22-.83.55-1.07.53-.37,1.48.04,1.58-.44.04-.18.4-.3.54-.2.43.31.57-.01.05-.46l6.18-3.53c.54-.31,1.29-.56,1.33-1.15.28.02.48-.12.42-.42.47-.06.47.34.42,1.2l16.21.05Z"/>
        <g>
          <path class="cls-74" d="M170.74,122.48c.04-.3-.31-.66-.01-1.05.14-.19-.57-.26-.79-.19v-13.31c0-.41-.23-.39-.42-.41-.34-.03-.35.15-.42.42-1.1,4.47.28,10.26-.83,14.55-1.04-.18-1.63,1.17-1.66,2.08-.61.18-.78.71-1.17,1.33l-8.01,12.82c-.45.71-1.08,1.26-.79,2.06-2.31-.1-5.02.94-7.48.42-.06-.38.1-.8.4-1.32l18.77-32.24c.47-.8.75-1.59.78-2.36.14-.24.28-.24.42,0,.24,1.28.91,2.3,1.63,3.55l18.83,32.31-7.09.05-7.59-12.01c-1.51-2.39-2.9-4.68-4.57-6.68Z"/>
          <path class="cls-71" d="M170.77,140.82c.29.06.5.32.81.35.28.03.57.01.86.01h.42c-.07.17.04.43.4.43l8.66-.06c.11,0,.09-.32.08-.37l.54.47c5.15,4.47,18.7.54,27.73-.47.12-.01.3-.04.42,0,3.2,1.02,6.81.04,10.29.49.2-.49.08-.72.1-.91.14-.02.28,0,.42,0,.13.22-.19.72.21.83.2.05.44,0,.62,0v.42c-.14,0-.28,0-.42,0-.17,0-.39-.03-.61,0-.14.02-.28.21-.22.42h-7.48s.02-.39-.09-.39l-15.7-.03c-.41,0-.84-.05-1.25,0l-24.33-.12c-.94,0-2.1-1.02-3.13.28,1.11.88.04,2.39.22,3.31.41,2.05.21,3.86.22,5.68h-.42c0-.23.05-.43,0-.62-.04-.16-.22-.27-.42-.21-.05-.12,0-.29,0-.42v-5.4c0-.33.44-1.06.04-1.25-.1-.49,0-.93-.06-1.63-.95.06-1.9-.41-2.65.36l-17.28.02c-.38,0-.48.23-.42.42h-23.69l-6.61-.02c-.29,0-.58.06-.87,0-.15-.03-.27,0-.42,0l-10.39.02h-9.56c2.91-1.26,6.45.42,9.56-.83.12-.05.29,0,.42,0-.04.03-.02.39.09.39l9.35-.03c.22,0,.42-.7.74-.37.11.11.29-.27.19-.44.12-.14.24-.03.37-.02,10.13,1.15,20.62.07,31.11.54.17,0,.3-.54.54-.49,0,.05-.03.4.13.4l16.08-.05c2.42,0,3.43-2.36,3.56-3.86.45-5,.02-10,.19-15.1,0-.11-.38-.1-.43-.09l.36-.52.06-14.03c.07-.27.07-.44.42-.42l.04,31.86c0,.31.71.7.4,1.2-.12.2.59.2.81.24Z"/>
          <path class="cls-2" d="M170.74,122.48c-.08.69.13.97.53,1.59l9.9,15.48c.38.6.95,1.03.83,1.64h-9.56c.07-.34-.26-.54-.61-.42-.19.07-.43.17-.24.41-.31-.03-.51-.29-.81-.35-.06-.41-.52-.95-.79-1.45l-.04-18.13c.22-.06.93,0,.79.19-.3.4.05.75.01,1.05Z"/>
          <path class="cls-70" d="M156.64,140.77l8.91-13.98c.5-.78,1.04-1.41,1.07-2.24.87-.25,1.1-1.5,1.66-2.08.12.02.31,0,.42,0l-.1,15.21-1.47,2.81c-1.91,1.54-10.5.28-10.49.28Z"/>
          <path class="cls-62" d="M168.74,143.27c.4.18-.04.92-.04,1.25-.6-.03-.4.57-.42,1.03-.01.28-.06.68.42.63v2.91c-.33-.08-.54.26-.42.61.05.14.2.28.42.22,0,.13-.05.3,0,.42.22.54-.31.78-.42,1.25-.89.62-2.03,2.28-2.08,3.33-.61.38-1.02.9-1.24,1.67-1.39-.13-.64-2.35-.5-3.33.47-3.42-7.75-1.26-11.53-2.32-.68-.73-1.6.28-2.25.09-3.52-1.03-5.89.86-7.97-.04-1.52-.65-5.72.75-11.12-.06-3.23-.48-19.24.77-20.93.15l-1.82-.67c.09.4.47.43.4.75-.03.13.02.28,0,.42,1.52.97,9.24,3.79,10.81,4.57l6.65,3.33c-.01.14.02.28,0,.42-.05.29.21.31.42.42l.83.42c.1.05.28,0,.42,0-.07.31.26.54.55.49.19.14.18.26-.03.36-.06,1.17.84,2.19,1.53,3.34l15.88,26.46c.39.64.6,1.2,1.19,1.35-.04.95.6,1.61,1.25,2.08-.01.68,1.95,4.11,2.49,4.16.07.26-.04.56,0,.83.02.13-.04.29,0,.42-.67-.12-.31-1.19-1.25-1.2,1.54,2.63,2.9,5.11,4.57,7.43.36.49.12.87.83,1.25,0,1.14,1.29,1.96,1.66,2.91.27.69.14.83.83,1.25.07,1.1,1.16,2.01,1.66,2.91.21.37.02,1.3.83,1.25-.32.62.4.58.42.83-.05.59.3.95.83,1.25-.01.63.67,1.75,1.25,2.08.07.78.44,1.83,1.25,2.08.04.76.46,1.86,1.25,2.08,0,.57.16,1.16.83,1.25-.16.5.16.72.42.83-.26,1.29,1.94,2.5,1.95,3.66l.13,22.11c-.62.35-1.96-3.71-2.91-3.74.13-.56-.25-1.16-.83-1.25.25-.59-.33-.59-.42-.83-.05-.58-.16-1.09-.83-1.25-.01-.76-.48-1.86-1.25-2.08-.01-.56-.15-1.16-.83-1.25.21-.55-.27-.66-.42-.83.25-.68-.58-.91-.83-1.25-.3-.4.03-1.16-.83-1.25.1-.7-.56-1.92-1.25-2.08,0-.92-.68-1.61-1.23-2.51l-12.6-20.92c.73-.53.46-.85-.18-.25l-31.08-51.67c-.35-.58-.49-1.07-1.05-1.14.08-.63-.22-1.09-.83-1.25.1-.61-.37-1.13-.7-1.69-.24.68.25,1.58.7,1.69-.09.56.22,1.17.83,1.25-.1.74,3.12,5.61,3.74,6.65-3.44.92-.21,6.46-.38,8.31l-17.15-29.01c-.71-1.19-1.4-2.27-1.59-3.41h9.56c-.07.18.04.44.4.42h9.91c.11-.24.12-.37.09-.44.14,0,.27-.03.42,0-.08.35.27.56.62.43.2-.07.42-.2.25-.44l6.61.02c-.08.33.26.54.61.42.14-.05.28-.2.22-.42h22.86l17.73-.09c.44,0,1.68-.92,2-.34l.69,1.26Z"/>
          <g>
            <path class="cls-26" d="M196.55,142.02c.41-.05.84,0,1.25,0-.04.03-.02.39.09.39l15.7.03h6.65c-.02.5.44.5.42,0h.42c.32,0,.71-.16.95.42l10.19-.04c.11,0,.12-.34.09-.38h9.56c-.92,1.54-2.75,2.08-4.3,3.17l-7.33,5.15c-1.29-.31-2.5.3-4.05.3l-38.35.1c-1.48,0-1.7-1.59-3.33-1.65-.31-1.06-2.04-1.35-2.91-1.66-.16-.28-.32-.42-.83-.42-.23-.76-1.31-1.25-2.08-1.25-.17-.6-.61-.93-1.25-.83-.14-.51-.95-.82-1.7-.76.46.43,1.15.85,1.7.76.18.66.61.83,1.25.83.21.76,1.32,1.25,2.08,1.25.05.17-.02.38.22.42.2.03.4-.02.62,0,.51.85,1.86,1.62,2.91,1.66.2.7.89.5,1.45,1.58l-15.58.09c-.92-1.7-.05-3.59-.62-5.68-.25-.94.82-2.42-.16-3.36,1.23-.6,2.03.3,2.62.29,8.17-.21,16.42.56,24.34-.39Z"/>
            <path class="cls-13" d="M241.86,142.44h-19.55c-.36.03-.47-.24-.4-.42.14,0,.28,0,.42,0,6.67.27,13.4-.55,19.54.42Z"/>
          </g>
          <path class="cls-12" d="M240.61,145.76c-.02.11-.03.28,0,.42-.28-.06-.47.14-.42.42.03.14-.01.28,0,.42-1.45,2.44-2.24,1.54-2.91,4.57-.6.3-1.43,1.28-1.25,2.08-.7.16-.78.63-.83,1.25l-12.05,20.42-34.17,57.58-8.36,13.76c-3.43,5.65-6.61,11.26-10.39,16.42-.1.04-.19.05-.29,0l.02-10.28c1.26-1.14,4.6-6.47,4.55-7.27.57-.03.85-.78,1.19-1.34l18.36-29.81,12.9-21.21c.54-.88,1.21-1.6,1.22-2.51.83-.21,1.15-1.33,1.25-2.08.47-.1,3.56-4.92,3.74-6.24.77-.16,1.24-1.36,1.25-2.08.66-.17.83-.62.83-1.25.83-.21,1.15-1.33,1.25-2.08.76-.24,1.24-1.3,1.25-2.08.71-.14.75-.7.83-1.25.04-.27.69-.19.42-.83.65-.09.86-.68.83-1.25.8-.22,1.19-1.32,1.25-2.08.52-.33,1.35-1.46,1.25-2.08.44-.32,1.07-.49.83-1.25.5-.37,1.39-1.44,1.25-2.08.81-.11.55-.76.83-1.25,2.23-2.9,3.89-6.21,5.94-9.36-.61-.4-.59.12-.54.42.03.16-.24.26-.41.21.03-.1.04-.31,0-.42-.17-.52.27-.79.42-1.25.12-.04.29.03.42,0,.32,1.62,1.23-1.91,1.26-1.85-.07-.13-.19-.29-.43-.23l9.04-6.34-.31,1.76Z"/>
          <path class="cls-24" d="M239.28,161.51c-.2.05-.18.27-.31.39-1.13-1.88-2.66-3.62-3.35-5.74.77-.05.69-.74.83-1.25.79-.73,1.56-1.84,1.66-2.91.66-.64,2.11-1.99,1.25-2.91-3.15,3.21,5.18-5.83.41-1.05.43-.43.32.1.6.68l1.79-3.5c.19-.38.07-.78.1-1.11,1.14,1.49.02,3.53-.38,5.38l-2.61,12.03Z"/>
          <path class="cls-7" d="M164.97,156.58c.74.01,1.21-1.13,1.24-1.67,1.07-.67,1.82-2.14,2.08-3.33.05-.03.37-.03.37.08l.04,7.42c0,.36.23.47.42.4v.42h-40.17c-.38-.49-.55-.29-.8,0s-.2.53-.18.83l-.83-.42c.06-.27-.14-.48-.42-.42.02-.14-.01-.28,0-.42.46.23.94-.24,1.4-.27l6.12-.35c-2.08-.52-4.28-.11-6.59-.02-2.59.1-4.85-2.47-7.58-2.68-.77-1.07-9.19-4.38-10.81-4.57.02-.14-.03-.28,0-.42,2.65.65,11.83.52,14.8.22,7.46-.77,9.06.84,15.35.02,1.15-.15,2.12-.5,3.31,0,2.02.87,4.83-1.01,7.89.03.61.21,1.7-.68,2.33-.51,3.77,1.05,12-1.1,11.53,2.32-.13.97-.89,3.19.5,3.33Z"/>
          <path class="cls-6" d="M169.53,151.17l.16,15.8c.29-.12.04.88.24.95,1.79.31,3.44,1.43,4.93,2.55,2,1.5,5.02,2.6,5.94,5.27.25.72-.27,2.35.55,3.27.49.56,1.29,1.15,2.33,1.22-4.19,4.68-9.47,9.72-13.74,13.76l-.3-9.55-.03-11.65c.58-.35.62-1.82-.07-2.08h-.42v-19.54h.42Z"/>
          <path class="cls-46" d="M172.02,154.91c-.12.92.54.75.83,1.25.25.43.2,1.04.83,1.25.39.13.02,1.29.83,1.25.17.22.35.93.83.83.37-.08.92,0,1.25-.09,2.76.21,5.54.09,8.31.09h12.06l13.63.03c.11,0,.13.35.09.39h-34.5c-.21,0-.42.1-.43.3,0,.13-.05.42.02.53l10.23,16.29c-.37,1.86-1.56,2.35-2.33,3.21-1.04-.06-1.84-.66-2.33-1.22-.82-.93-.3-2.55-.55-3.27-.92-2.68-3.93-3.78-5.94-5.27-1.49-1.12-3.14-2.24-4.93-2.55-.2-.07.05-1.06-.24-.95.6-4.73.09-9.71.26-14.55h.42c.1.99.69,2.12,1.66,2.49Z"/>
          <g>
            <path class="cls-1" d="M231.88,150.33c-.2.66-.21,1.67-.83,2.08-.13.03-.29-.04-.42,0-.7.25-1.3.94-1.25,1.66-.24.1-.66.37-.42.83-.81-.04-.63.86-.83,1.25-.71,1.38-2.2,2.58-2.49,4.16-.82.12-.59.74-.83,1.25l-8.31,12.89c-2.68.36-5.46-.1-8.28-.1h-4.11c.15-.25-.03-.49-.08-.73.55-.27.85-.72.83-1.25-.01-.27.74-.18.42-.83.65-.09.86-.68.83-1.25.54-.45,1.29-1.36,1.25-2.08.41-.32,1.1-.49.83-1.25.51.02.69-.56,0,0h-.42v-1.25c.2-.03.4-.02.42-.22.02-.24.03-.44,0-.61.75-.11.93-1.1,1.25-1.66h.42c-.18.77-.69,1.66-1.07,2.51,1.05-1.5,2.74-3.2,2.74-5.01v-.42c.25-.02.47.06.63,0,.22-.08.27-.34.21-.61-.03-.15-.25-.22-.42-.22.04-.54-.44-.42-.83-.42h-14.13l-11.55.03c-.11,0-.12.35-.09.39h-.42c.22-.82-7.23-.4-8.31-.09-.32.09-.87,0-1.25.09-.04-.39-.44-.79-.83-.83.14-.58-.26-1.15-.83-1.25.14-.58-.26-1.15-.83-1.25.17-.66-.3-1.04-.83-1.25.11-.89-1.06-2.05-1.66-2.49h-.42c.02-.46-.25-1.23.42-1.25,4.88.84,10.12.07,15.21.26l2.01.07,38.7-.04c1.35,0,2.91-.3,3.95-.71.49-.2,1.13-.32,1.66-.42Z"/>
            <path class="cls-5" d="M230.22,154.08l-4.99,8.73c-.34.45-1.03.37-.83,1.25-.69.1-.46,1.37-1.25,1.25-.02-.14,0-.28,0-.42.74-.84,1.2-2.34,1.66-3.33.36-.56.68-.42.83-1.25.11.17,3.01-4.04,2.49-4.16.21-.33,1.23-.49.83-1.25.2,0,.37-.01.42-.21s-.02-.39,0-.62l.83-.42c.04.11.03.31,0,.42Z"/>
            <path class="cls-54" d="M211.1,159.06c-.05.2.05.37.21.42.19.05.39-.02.62,0l-.42.83h-.42c.06-.3-.14-.42-.42-.42.04-.03.02-.39-.09-.39l-13.63-.03v-.42h14.13Z"/>
          </g>
          <path class="cls-21" d="M186.57,160.37c-.07.33.2.31.42.36.36.59.48,1.53,1.25,1.66.16.5.05,1.2.83,1.25-.07.32.15.39.42.42-.17.65.3,1.05.83,1.25.21.2.35.92.83.87.23-.02,6.11-.24,5.64.43-.28,0-.26.12-.24.36-.73-.06-.95.33-1.25.83-.36.17-1.01.09-1.49.81-.33.48.51.58.66,1.27-.58-.14-1.15.26-1.25.83-.3,0-.69-.12-.83.21-.07.18-.02.45,0,.62-1.73,1.23-4.05,4.18-5.38,5.91.16.28-.12.52-.39.35.15-1.11-.67-1.95-1.3-2.92l-8.66-13.42c-.17-.26.04-.63-.27-.73-.17-.05-.41.01-.64,0-.07-.11-.03-.4-.02-.53.01-.2.23-.3.43-.3-.07.17.04.44.4.44l9.99.04Z"/>
          <path class="cls-33" d="M191.97,160.31c-.07.19.04.42.41.42h14.97s-.42.83-.42.83c.08.29-.17.45-.42.42-1.03.16-2.04.75-2.91,1.25-.39.22-1.28,0-1.25.83-.7-.17-1.53.07-1.66.83-.12,0-.3.02-.42,0-.28-.05-.48.13-.42.42h-.42c-.28,0-.48.14-.42.42-.12-.02-.3-.04-.42,0-.64.21-1.17.74-1.84.88.47-.66-5.41-.45-5.64-.43.07-.47-.56-.73-.83-.87.05-.53-.2-1.19-.83-1.25.07-.27-.15-.48-.42-.42.14-.58-.26-1.15-.83-1.25-.2-.62-.6-1.52-1.25-1.66-.22-.05-.49-.03-.42-.36l5.4-.06Z"/>
          <path class="cls-55" d="M211.1,160.31h.42v.42c0,1.05-1.07,1.83-1.66,2.49h-.42c.02-.1.03-.31,0-.42.57-.08.97-.68.83-1.25.08.3.82-.66.81-.67-.28-.27-.52-.23-.64-.15-.22.15-.21.51-.17.82h-.42v-.42c-.43-.76-1.69-.42-2.49-.42h-14.97c-.37,0-.48-.23-.41-.42h19.12Z"/>
          <path class="cls-35" d="M137.52,165.72c.11.71.71.74,1.25.83.27.04.2.69.83.42.09.68.68.82,1.25.83.21.89,1.34,1.07,2.08,1.25.1.46.46.47.88.86l5.36,4.96c.36.62.95,1.46,1.69,1.61.14.72.15,1.28,1.26,1.78,0-.52-.16-.95.38-.89-.02.32-.25.75.15.84.21.05.41.39.68.41.1.35.4.82.83.83v.83c0,.14.01.28,0,.42h-.42c.14-.58-.26-1.15-.83-1.25-.04-.36-.31-.7-.83-.82.14.52.47.78.83.82-.14.58.26,1.15.83,1.25-.07.32.15.38.42.42-.14.58.26,1.14.83,1.25-.07.33.17.37.42.42-.14.63.42,1.07.81,1.69l12.49,19.92v22.83c.01.18.26.19.32.08,0,.27.16.59-.1.77-.12.09-.54-.76-.59-.83-.09-.18-.02-.38-.05-.6-.02-.14-.21-.27-.42-.22.14-.56-.26-1.16-.83-1.25.31-.64-.45-.58-.42-.83.14-.62-.5-.89-.83-1.25.13-.4-1.98-3.75-2.49-4.16-.17-.46-.04-1.23-.83-1.25.12-.36.05-.9-.42-.83.14-.56-.26-1.16-.83-1.25.18-.54-.19-.67-.42-.83-.17-.71-.37-1.89-1.25-2.08-.01-.57-.15-1.16-.83-1.25.17-.53-.18-.68-.42-.83-.02-.52-.15-1.19-.83-1.25.27-.63-.34-.57-.42-.83-.12-.43-.08-1.24-.83-1.25.22-.58-.28-.61-.42-.83-.08-.49-.12-1.2-.83-1.25.3-.64-.41-.57-.42-.83-.01-.6-.21-.99-.83-1.25-.2-1.03-.7-2.44-1.66-2.91-.12-.53-.08-1.18-.83-1.25-.4-1.5-1.21-3.23-2.49-4.16.02-.74-.5-1.89-1.25-2.08.04-.91-.7-1.62-1.24-2.52l-14.97-24.87c-.84-1.4-1.38-2.81-2.4-3.76.22-.1.22-.22.03-.36.38-.06.68.08,1.11.33l5.03,2.95c.8.47,1.53,1.33,2.45,1.22Z"/>
          <path class="cls-47" d="M209.85,161.14v.42c-.16.44-.52.87-.42,1.25-.29.04-.63-.02-.83.25-1.05-.96-2.14.58-3.32.58.07-.19-.09-.31-.44-.64.5-.37,1.37-.39,1.67-1.03.24.03.49-.13.42-.42.98-.22,1.89-.61,2.91-.42Z"/>
          <path class="cls-37" d="M208.61,163.06c.22.71-.55,1.14-.42,1.82-.19.03-.4.02-.42.22-.02.24,0,.44,0,.61-.57.08-.97.69-.83,1.25-.51-.02-.69.56,0,0l.83-.42v.42c-.24.46-.44.72-.42,1.25-.55.43-1.28,1.37-1.25,2.08-.35.29-1.18.53-.83,1.25-.19.03-.37,0-.42.21-.04.19.02.39,0,.62-.59.11-.94.66-.83,1.25-.61.3-1.22,1.46-1.25,2.08-.8.26-1.19,1.28-1.25,2.08-.58.3-1.27,1.46-1.25,2.08-.54.36-.91.46-.83,1.25-.81.21-1.18,1.33-1.25,2.08-.62.39-1.18,1.41-1.25,2.08-.68.41-1.29,1.18-1.25,2.08-.68.15-.78.69-.83,1.25-.08.24-.67.24-.42.83-.68.09-.82.68-.83,1.25-.76.02-.6.99-1.25,1.25,0-.13-.05-.29,0-.42s-.09-.47-.2-.41c-.23.12-.37.57-.63.37.23.17-4.77-1.82-4.84-1.35-4-6.8-3.32-1.62-2.63-7.35.03-.27-.11-.62,0-.83.51-.14.92-.61,1.26-1.2-.53-.03-.52.47-.85.37v-.42c.82-.79,1.15-2.2,2.13-2.88.27.17.55-.07.39-.35,1.62-.46,2.48-2.18,3.59-3.52.7-.85,1.91-1.34,1.79-2.39.28-.2.82-.39.83-.83.62.14,1.08-.3,1.25-.83.38-.06,1.18.03,1.18-.86-.4.3-.68.63-1.15.3-.21-.15-.58-.55-.08-.84.22-.13.5-.34.89-.67.32-.27,1.31.02,1.25-.83.77.07,1.84-.54,2.08-1.25.11-.04.3-.02.42,0,.28.04.48-.13.42-.42h.42c.28,0,.48-.14.42-.42.12.02.3,0,.42,0,.44-.48,1.42-.14,1.66-.83.66.17,1.03-.33,1.25-.83.55-.39,1.2.37,1.68.42,1.17,0,2.27-1.55,3.32-.58Z"/>
          <g>
            <path class="cls-34" d="M168.68,169.44c-1.48,1.42-3.89,3.43-3.89,5.79s.47,5.98-2.38,7.31c-1.43.67-3.55.1-4.94.19-.55-.59-1.45-1.12-2.08-1.65.06-.29-.22-.32-.42-.42.19-.66-.32-1.04-.83-1.25-.16-.26-.43-.82-.83-.83.07-.56-.22-1.16-.83-1.25,0-.15,0-.3-.01-.44.24.03.77.19.79-.18.02-.29.7-1,.08-1.09-.64.15-.53,1-.88,1.26-.42-.45-1.1-.33-1.62-.44-.13-.66-1.26-1.21-1.69-1.61-.03-.06,0-.21.08-.49l-4.65-4.92c1.87.1-3.61-2.84-3.74-2.91-.11-.06-.31.07-.42,0-.13-.77-1.07-.89-1.66-1.25-.1-.06-.29.02-.42,0,.06-.22-.07-.34-.23-.42-.46-.23.31-.46.15-.76-.35-.09-.46.46-.76.35-.12-.05-.29-.02-.42,0-.17-.3.46-.46.38-.62-.1-.19-.5-.75-.74-.5-.15.15.36.39.36.5,0,.12-.3.28-.41.2h-.83c-2-.28-4.84-3.47-7.48-3.33l40.3-.51v9.23Z"/>
            <path class="cls-56" d="M136.69,164.05c-.06.28.14.46.42.42.13-.02.3-.05.42,0,.04.4.44.78.83.83.12.02.31-.06.42,0,.13.77,1.07.89,1.66,1.25.11.07.3-.06.42,0-.77.11,3.86,2.42,3.74,2.91-.67.29-1.09-.27-1.66-.42-.17-.78-1.36-1.23-2.08-1.25-.12-.5-.67-1.08-1.25-.83-.02-.19,0-.37-.21-.42-.19-.04-.39.02-.62,0-.11-.62-.66-.91-1.25-.83-.14-.9-1.47-.81-1.66-1.66h.83Z"/>
          </g>
          <path class="cls-51" d="M223.15,165.3c.03.27-.08.58,0,.83-.42.32-.96.47-.83,1.25-.6.44-1.19,1.37-1.25,2.08-.66.41-1.3,1.17-1.25,2.08-.49.13-1.09.66-.83,1.25-.19.03-.37-.01-.42.21-.04.19.02.39,0,.62-.67.1-.82.67-.83,1.25-.83.17-1.16,1.36-1.25,2.08-.75.24-1.25,1.3-1.25,2.08-.67.17-.83.61-.83,1.25-.83.21-1.15,1.33-1.25,2.08-.47.1-3.56,4.92-3.74,6.24-.77.16-1.24,1.36-1.25,2.08-.48.12-.79.55-1.06,1.06-2.23,4.22-4.99,7.93-7.3,11.82-.53-1.76-6.16-.87-7.37-1.52-.6-.33-.68-1.34-1.11-1.84-.73-.86-1.91-.34-2.71-.38l.42-1.66c.66-.17.83-.61.83-1.25.82-.22,1.17-1.32,1.25-2.08.81-.25,1.25-1.3,1.25-2.08.76-.24,1.23-1.31,1.25-2.08.53-.02,1.04-.74.83-1.25.19-.02.37,0,.42-.21.04-.2-.02-.4,0-.62.65-.11.86-.66.83-1.25.81-.18,1.18-1.35,1.25-2.08.62-.37,1.18-1.41,1.25-2.08.64-.4,1.34-1.19,1.25-2.08.65-.17.85-.61.83-1.25.61-.4,1.2-1.39,1.25-2.08.72-.37,1.22-1.31,1.25-2.08.67-.22.49-1.28,1.32-1.34h4.11c2.82,0,5.61.46,8.28.1,2.89-2.35,4.03-6.56,6.65-9.56,0,.14-.02.28,0,.42Z"/>
          <path class="cls-15" d="M115.9,166.55l25.87,43.11,15.51,25.63c.33.55.46.98,1.02,1.1,0,.65.48,2,1.25,2.08-.12.79.45.94.83,1.25.32.25-.06,1.37.83,1.25.02.22-.04.42,0,.62.05.22.23.19.42.21-.23.6.32,1.1.83,1.25.02.73.47,1.9,1.25,2.08.01.58.16,1.15.83,1.25.02.23-.05.43,0,.62.05.22.23.19.42.21-.21.5.3,1.23.83,1.25-.18.83,2.76,4.78,2.78,4.88.53,3.45-.38,6.67.43,9.67,0,.24-.12.61-.34.77l-18.57-30.32-17.11-28.67-17.46-29.9c.16-1.85-3.06-7.39.38-8.31Z"/>
          <path class="cls-48" d="M169.11,170.7h.42c-.09.69.07,1.4.07,2.08l.03,11.65.3,9.55c-2.03.15-3.08-2.54-4.93-3.8-2.89-2.17-5.19-4.93-7.52-7.44,1.39-.1,3.51.48,4.94-.19,2.85-1.33,2.37-4.86,2.38-7.31s2.41-4.37,3.89-5.79c0,1.18-.12,2.37.17,3.8.48-.82.26-1.71.26-2.54Z"/>
          <path class="cls-64" d="M154.98,180.68c-.08.27.15.48.42.42.04.04.01.21-.13.54l9.24,9.01c1.27,1.24,3.08,2.45,3.98,3.96l.42,8.13.4-7.97.41,7.97.4-7.71c.05-1.05,1.27-1.68,1.94-2.33l12.43-12.03v.42l-.42.83c-.76.21-1.13,1.02-1.58,1.75l-6.24,9.98-6.97,10.47-12.24-19.26c-.55-.87-.72-1.92-1.65-2.11.06-.27-.15-.48-.42-.42.14-.55-.26-1.18-.83-1.25.03-.13,0-.28,0-.42s0-.28,0-.42l.83.42Z"/>
          <path class="cls-35" d="M191.56,191.45c.17.47-.17.74-.41,1.26.94-.08.57-1.08,1.24-1.22-.05.12,0,.28,0,.42v.83c-.81.25-1.16,1.3-1.25,2.08-.76.24-1.25,1.31-1.25,2.08-.55.15-.7.71-.83,1.25-.8.21-1.19,1.33-1.25,2.08-.88.19-1.08,1.34-1.25,2.08-.91.43-1.56,1.91-1.66,2.91-.56.26-.94.54-.83,1.25-1.22.94-2.18,2.65-2.49,4.16-.75.17-1.26,1.36-1.25,2.08-1.3.89-2.09,2.69-2.49,4.16-.7.07-.79.7-.83,1.25-.58,0-3.53,5.67-5.4,7.83-.16-.21-.24-.1-.42,0-.29.16-.94.48-.72.9.12.22.13.4-.1.62-.11.1-.25.27-.47.22l.04-22.87v-.42l1.97-3.05,11.13-17.48c.3-.47.5-1.07,1.03-1.1-.69,5.73-1.37.55,2.63,7.35.07-.47,5.08,1.52,4.84,1.35Z"/>
          <path class="cls-68" d="M152.07,200.22c.22.98.67,2.5,1.66,2.91.1.54.09,1.17.83,1.25.02.23-.05.43,0,.62.05.22.23.2.42.21-.25.53.33,1.17.83,1.25.02.23-.05.43,0,.62.05.21.22.21.42.21-.21.55.3,1.16.83,1.25.02.23-.05.43,0,.62.05.22.23.2.42.21-.23.54.32,1.17.83,1.25.02.23-.05.43,0,.62.05.22.23.19.42.21-.19.59.3,1.13.83,1.25.02.79.48,1.83,1.25,2.08.02.23-.05.43,0,.62.05.23.23.19.42.21-.19.56.29,1.15.83,1.25.02.23-.05.43,0,.62.05.21.22.21.42.21-.25.76.41.92.83,1.25.55,1.49,1.41,3,2.49,4.16-.19.56.29,1.15.83,1.25.02.23-.05.43,0,.62.05.23.23.19.42.21-.26.53.33,1.17.83,1.25.02.24-.06.45,0,.62.07.19.27.27.47.2.04.08.47.92.59.83.26-.19.1-.51.1-.77l.12-22.07c0-.38-.27-.49-.44-.42v-.42h1.25v.42c-.18-.07-.43.04-.43.42l.03,22.34c0,.11.31.1.35.11.22.04.35-.12.47-.22.24-.22.22-.4.1-.62.37-.1.72-.51.72-.9.17-.1.26-.21.42,0-.79.91-.81,3.25-2.41,3.76-1.09-.95-1.42-2.63-2.58-3.28-.02-.22.04-.42,0-.62-.05-.22-.23-.19-.42-.21.2-.61-.3-1.1-.83-1.25-.01-.77-.48-1.84-1.25-2.08-.04-.91-.51-1.66-1.25-2.08-.06-.65-.62-1.73-1.25-2.08.01-.58-.17-1.14-.83-1.25-.02-.22.05-.42,0-.62s-.22-.23-.42-.21c.34-.66-.49-1.01-.83-1.25-.26-.91-.74-2.35-1.66-2.91-.04-.65-.28-1.02-.83-1.25-.27-.88-.72-2.4-1.66-2.91,0-.64-.27-1.06-.83-1.25-.61-2.22-2.58-4-3.33-6.24-.04-.12.02-.29,0-.42.31.06.56.28.83.42Z"/>
          <path class="cls-40" d="M199.83,203.54l-8.21,13.82-15.84,25.66c-.55.89-1.32,1.59-1.26,2.51-.89.05-3.51,6.01-4.57,6.24l.03-21.78c1.46-2.08,6.94-10.73,7.04-11.89.76-.01.7-.77.83-1.25.55-.06,2.51-3.48,2.49-4.16.79-.54,1.05-1.11,1.25-2.08.6-.14,2.58-3.6,2.49-4.16.59-.45.74-.42.83-1.25.99-.45,1.44-1.9,1.66-2.91.78-.36,1.18-1.21,1.25-2.08.33-.07.48-.43.83-.42.8.04,1.98-.48,2.71.38.42.5.51,1.51,1.11,1.84,1.2.65,6.84-.24,7.37,1.52Z"/>
          <path class="cls-61" d="M169.94,251.76c-.69,3.72-.7,7.81,0,11.31.09.05.19.05.29,0,.17.79-.61,1.01-.91,2l-.66-1.32c.22-.16.34-.53.34-.77,0-3.6.58-7.34-.3-10.81l.62-22.05.63,21.64Z"/>
        </g>
        <path class="cls-32" d="M168.68,278.78c-.05.27-.22.56-.05.83-.66.27.36.8.11,1.25.1.13.1.29,0,.42-.66-.17-.58-1.37-1.29-1.25-.09-.76-.33-.87-.83-1.25-.33-.24-.07-1.22-.83-1.25-.4-.01.12-1.53-.83-1.25.27-.42-.17-.79-.42-.83.55-.72-.91-.83-.83-1.25.12-.68-.73-.85-.83-1.25-.15-.61-.36-.85-.83-1.25-.32-.26-.25-.99-.83-1.25-.38-.16-.23-1.04-.83-1.25-.39-.14-.13-.93-.83-1.25-.02-1.24-1.21-2.59-2.08-3.33-.26-1.33-2.43-4.52-2.91-4.57-.17-.67-.63-.87-.83-1.25-.26-.48,0-1.13-.83-1.25.12-.68-.57-1.95-1.25-2.08-.09-.79-.43-1.82-1.25-2.08l-8.45-15.23c1.02-.67-.21-.3-.7-.57-.27.04-.58-.08-.83,0H56.04c.28-.66,1.15-.41,1.66-.83,18.83.82,38.04.42,57.14.23,6.66-.07,13.1-.6,19.58-.04,2.35.2,4.83.53,7.07,0,1.25-.29,2.62-.34,3.53,1.2l22.44,37.62c.64,1.08,1.42,1.88,1.21,2.97Z"/>
        <path class="cls-23" d="M283.84,237.63c.17.76,1.18,1,1.92,1.43l22.96,13.16c.56-.13.96-.06.9.38h-14.55c.07-.06-.04-.54-.44-.54h-31.22c-1.35-1.1,5.85-2.13,6.61-2.61-.42-2.42.15-4.46.82-6.38.18-.51-.94-1.54-.38-2.11.9-.93,1.01-1.93.49-2.83.03-.18.11-.5-.46-.5h-72.26c.06-.11-.03-.29,0-.41.2.02,9.94-.78,15.79-.23-3.26-.31,32.77.09,33.06.09h13.32s22.06.24,22.06.24l1.4.31Z"/>
        <path class="cls-53" d="M195.3,237.63c.02.67.79.38,1.25.42-.28,1.56-5.66,10.83-6.58,12.12-.77,1.08-1.15,2.31-1.74,3.26-.99.31-1.27,1.46-1.83,2.31l-5.71,8.8.88-.3c-.04.12.07.32,0,.42-.28.38-.29,1.12-.83,1.25-.01-.11-.07-.33,0-.42.11-.13-.18-.61-.36-.33l-7.54,11.56c-.71,0-.47,1.04-.83,1.25-.57.33-.62.61-.83,1.25-.84.01-1.07,1.27-1.37,1.91l-.48.99s-1-.76-.61-.82c.1-.13.11-.29,0-.42.36.05.51-.36.36-.62-.13-.23-.47-.33-.47-.63-.16-.28,0-.56.05-.83h.43c-.07.31.2.42.47.42.42,0,.47-.36.29-.96l23.54-39.09c.4-.66.76-1.94,1.47-1.95-.06.27.14.48.42.42Z"/>
        <path class="cls-38" d="M198.21,237.21c-.03.12.06.3,0,.42-.21.41-.35.86-.8,1.47.16.36.26.07.4-.02.39-.27.38-.51.51-1.05l72.61.1c.52.9.41,1.9-.49,2.83-.55.57.56,1.6.38,2.11-.67,1.92-1.23,3.96-.82,6.38-.76.48-7.96,1.5-6.61,2.6l-51.89.55c-.44.21-.65.54-1.16.39.15-.13.12-.26-.02-.39l-19.08-.5c-.12.19-.15.49-.1.51-.28,0-.55.05-.83,0,.02-.17,0-.34-.09-.49-.21-.16-.07-.2.02-.37.91-.23,1.46-1.2,1.61-2.04-.43.27-.53.48-.71.39-.04-.13.02-.28,0-.42l5.95-11.11c.1-.18.4-.42.33-.68-.23-.81-.53.41-.87.15-.02-.67-.79-.38-1.25-.42-.27.06-.48-.14-.42-.42,1.09,0,2.24-.1,3.33,0Z"/>
        <path class="cls-77" d="M141.26,237.63c1.09,3.89,6.06,10.04,6.99,13.71-.26.14-.07.19-.02.37-.25-.18-.25.14-.42.46l-19.43.05c.03-.7.59-1.23,1.11-1.85l7.53-9.13c.48-.58.08-1.87-.42-2.12-1.49-.74-3.24-.23-4.48-1.07,2.78,0,5.72.35,8.31-.42.25-.08.57.04.83,0Z"/>
        <path class="cls-39" d="M191.14,250.1c.23.75-.59,1.04-.9,1.65-.09.17-.23.22-.02.37-.5-.03-.36.5.09.49.28.04.55,0,.83,0h19.19c.14.12.17.25.02.38-.6,1.11-2.04.15-2.98.12-2.98-.08-5.83-.34-8.63.09-3.28.5-6.62-.29-9.68.64-.71.22-1.3.96-1.25,1.66-.25.1-.65.37-.42.83-.88-.11-.52.98-.83,1.25-.34.29-1.01.55-.83,1.25-.15.18-.63.28-.42.83-.69.08-.8.69-.83,1.25-.78.41-1.55,1.61-1.66,2.49-.63.22-.84.64-.83,1.25h-.42c.07-.1-.04-.3,0-.42l6.65-10.81c.83-.26,1.02-1.31,1.67-2.14l1.24-1.6c.02.13-.04.29,0,.42Z"/>
        <path class="cls-67" d="M127.17,253.84c.11.14.07.28,0,.42-.8.16-1.12,1.05-1.63,1.72-1.94,2.59-3.55,5.23-5.62,7.7-.49.58-.67.73-.69,1.38-.75.27-4.14,4.92-3.02,4.19-.03.18-.34.45-.25.7L0,270.07c-.08-.51.41-.81.75-.85.55.7,1.22-.54,2.18-.46.65-.59,1.46-1.04,2.47-1.67l20.78-13.1c.84.07,2.31-.61,3.06-.6l97.92.45Z"/>
        <path class="cls-36" d="M115.95,269.96c-.09-.25.22-.52.25-.7.4.18,3-3.4,3.02-4.19,1.28-.47,7.05-9.1,7.93-10.81.07-.14.11-.28,0-.42.33,0,.41-.41.58-.39.43.05.39.62.57.88l10.48,15.63h-22.84Z"/>
        <path class="cls-65" d="M151.65,257.17c.03.13-.05.3,0,.42.23.53,2.37,4.16,2.91,4.16h.42c.84.51,1.49,1.56,1.66,2.49.02.13-.02.28,0,.42-.94-.56-.9-1.99-2.09-2.44,2.86,4.6,5.62,9.06,8.74,13.25-.19.74.49.86.83,1.25-.07.54,2.03,3.71,2.49,3.74.2.42.33,1.12.83,1.25-.48.79,1.12,1.17,1.13,1.76l.17,21c0,.13.32.14.37.1,0,.43-.2,3.98.42,3.33,0,1.6.15,3.25-.52,4.83.9.44.29.7-.31.58v.42c-3.44-.21-6.98.39-10.46-.23-1.98-.35-3.89-.17-5.82-.38l-3.84-.41c-1.32-.14-5.21-.39-4.33-2.07.13-.24.64-.4,1.07-.45l7.31-.86,5.89-.39c1.76-.12,5.08-.1,6.77-.2.21-.01.83.08.87-.18.02-.13-.27-.51-.4-.69l-1.79-2.37-22.79-33.23c-.67-.97-.88-1.78-2-1.78.22-1.08-.6-1.95-1.24-2.89l-8.26-12.15c-.46-.67-1.03-1.41-.47-2,.76.87,2.02.12,2.88.17,1.92.1,3.71.6,5.61.02,1.38-.42,3.06-.01,4.55.06l7.28.33c.62,1.44,1.18,2.55,2.14,3.17Z"/>
        <path class="cls-30" d="M199.87,269.22c.06.27-.32.48-.09.74-.95-.07-1.8,1.41-2.38,2.26l-24.55,36.08c-.69.18-1.01.97-1.12,1.63.67,1.28,10.83-.68,11.97,1.87-1.2.81-2.3.69-3.34.69-.22,0-.39,0-.57.39l-10.18-.09c-.34,0-.1-1.18.3-1.36l.06-27.8,4.54-6.96c.5-.77,1.34-1.59,1.24-2.46.67-.08.84-.68.83-1.25,1.18-.77,2.26-2.33,2.49-3.74.85.07.58-.92.83-1.25s1.21-.48.83-1.25c.75-.01,1.26-1.44,1.25-2.08.72,0,.76-.7.83-1.25.95-.34,1.61-1.52,1.66-2.49.46-.24,1.09-.57.83-1.25.19-.02.37,0,.42-.21.04-.19-.02-.39,0-.62.84.07.59-.92.83-1.25s1.23-.48.83-1.25c.2.03.37-.03.42-.21.05-.2-.02-.4,0-.62.65-.28,1.38-.89,1.25-1.66,7.22.44,13.86-1.34,20.79.16-1.37,2.05-2.53,3.74-3.78,5.64l-4.96,7.55c-.48.73-1.43,1.15-1.23,2.02Z"/>
        <path class="cls-18" d="M211.51,253.84v.42c1.21,2.17,4.78,7.61,6.65,9.15-.09.35.2.33.42.42v.42c-.78-.57-1.51,1.96-2.06,2.95l-1.5,2.7c-5.05,0-10.16.45-15.23.07-.23-.26.15-.47.09-.74,1.18-.43,1.58-1.73,2.25-2.73,1.46-2.22,3.04-4.1,4.38-6.45,1-1.76,2.5-3.92,3.63-5.42.19-.25-.34-.97.24-1.1.16-.04.59-.28.7,0,.06.15.04.33.45.33Z"/>
        <path class="cls-11" d="M224.4,253.5c.06.31-.18.33-.42.34-1.02.05-.62,1.08-.83,1.66-.33.11-.68.3-.87.82-.93,2.53-3.8,6.09-3.71,7.08h-.42l-5.75-8.77c-.28-.42-.51-.44-.9-.38v-.42c4.13-.89,8.57-.28,12.89-.34Z"/>
        <path class="cls-25" d="M215.02,269.89l1.5-2.7c1.15-.52,1.46-1.89,2.06-2.95,1.01.78,1.38,2.26,2.49,2.91.08.54.1,1.17.83,1.25v.62c-.01.14.28.23.54.24.13,0,.33-.18.13-.41-.13-.15-.4-.41-.67-.45.2-.7-.36-.97-.83-1.25-.2-1.32-1.25-2.87-2.49-3.33,0-.14.01-.28,0-.42,2.03-2.2,3.56-5.07,4.57-7.9.57-.19.81-1.14.83-1.66.23-.01.48-.03.42-.34,2.87-.04,5.9-.36,8.83.17,3.11.56,6.09-.11,9.27-.11l66.49-.08c.89,0,2.55.43,3.41.5l10.59,6.82,14.47,8.89c.92-.52,1.17,1.15.4.41l-122.86-.22Z"/>
        <path class="cls-19" d="M157.47,264.65c.21,1.06,1.02,2.85,2.08,3.33.01.89.53.72.83,1.25.26.44.36.94.83,1.25.34.24.25,1.03.83,1.25.39.14.18,1.14.83,1.25.4.06.12,1.29.83,1.25.42-.02-.12,1.54.83,1.25.02.22-.05.42,0,.62.04.17.22.27.42.21-.55.83.79.84.83,1.25.05.57.27,1.01.83,1.25.38.16-.1,1.41.83,1.25.13,1.04,1.21,1.79,1.98,2.55.67-1.34,1.38-2.26,1.76-3.38.88-.01.52-.92.83-1.25s1.05-.59.83-1.25l7.9-11.22c-.07.08-.01.31,0,.42.03.26-.11.61,0,.83-.91.01-.48,1.03-.83,1.25-.57.35-.71.51-.83,1.25-.43-.04-2.5,3.1-2.49,3.74-.54.35-.92.46-.83,1.25-.59.07-5.31,7.54-6.03,9.01-.53,1.09-.21,3.01-.21,4.29h-.42c0-3.38.58-4.61-1.66-5.82,0-.49-.17-1.21-.83-1.25-.63-1.34-1.52-2.65-2.49-3.74.12-.9-.47-.76-.83-1.25l-6.65-10.81c-.02-.14.02-.28,0-.42.26.08.64.25.83.42Z"/>
        <path class="cls-27" d="M169.53,307.88c-.62.65-.42-2.9-.42-3.33v-17.04h.42v20.37Z"/>
      </g>
    </g>
  </g>
</svg>