<?xml version="1.0" encoding="UTF-8"?>
<svg id="Layer_2" data-name="Layer 2" xmlns="http://www.w3.org/2000/svg" viewBox="0 0 359.93 341.61">
  <defs>
    <style>
      .cls-1 {
        fill: #ffc0c2;
      }

      .cls-2 {
        fill: #850405;
      }

      .cls-3 {
        fill: #f5afb1;
      }

      .cls-4 {
        fill: #fa0e14;
      }

      .cls-5 {
        stroke: #fe7f64;
      }

      .cls-5, .cls-6, .cls-7, .cls-8, .cls-9, .cls-10, .cls-11, .cls-12 {
        fill: none;
        stroke-linecap: round;
        stroke-linejoin: round;
        stroke-width: 1.44px;
      }

      .cls-13 {
        fill: #fe706e;
      }

      .cls-14 {
        fill: #f61815;
      }

      .cls-15 {
        fill: #d60206;
      }

      .cls-16 {
        fill: #fce66a;
      }

      .cls-17 {
        fill: #ecb9bb;
      }

      .cls-18 {
        fill: #fdb01e;
      }

      .cls-6 {
        stroke: #fd6e0b;
      }

      .cls-19 {
        fill: #fbf78b;
      }

      .cls-20 {
        fill: #f9e9cd;
      }

      .cls-21 {
        fill: #f9f3ec;
      }

      .cls-22 {
        fill: #89040a;
      }

      .cls-23 {
        fill: #faf9d8;
      }

      .cls-7 {
        stroke: #f6d3c3;
      }

      .cls-24 {
        fill: #f8f5dc;
      }

      .cls-25 {
        fill: #830005;
      }

      .cls-8 {
        stroke: #fbfcd3;
      }

      .cls-26 {
        fill: #fe6e6f;
      }

      .cls-27 {
        fill: #f50a01;
      }

      .cls-28 {
        fill: #fcf9e7;
      }

      .cls-9 {
        stroke: #ff9f79;
      }

      .cls-29 {
        fill: #fd5847;
      }

      .cls-30 {
        fill: #fe0000;
      }

      .cls-31 {
        fill: #c50206;
      }

      .cls-32 {
        fill: #faab1c;
      }

      .cls-33 {
        fill: #fd2027;
      }

      .cls-34 {
        fill: #970206;
      }

      .cls-10 {
        stroke: #fd4f47;
      }

      .cls-35 {
        fill: #ff5b5b;
      }

      .cls-36 {
        fill: #7c0105;
      }

      .cls-37 {
        fill: #ec0708;
      }

      .cls-38 {
        fill: #fbf5b4;
      }

      .cls-39 {
        fill: #fc7707;
      }

      .cls-40 {
        fill: #f10005;
      }

      .cls-41 {
        fill: #fefefe;
      }

      .cls-42 {
        fill: #ffa495;
      }

      .cls-43 {
        fill: #f9f3e6;
      }

      .cls-44 {
        fill: #b50105;
      }

      .cls-45 {
        fill: #c50103;
      }

      .cls-46 {
        fill: #f50a09;
      }

      .cls-47 {
        fill: #f9d1c9;
      }

      .cls-48 {
        fill: #560203;
      }

      .cls-11 {
        stroke: #f9cc9d;
      }

      .cls-49 {
        fill: #fd4f47;
      }

      .cls-50 {
        fill: #fa5c1a;
      }

      .cls-51 {
        fill: #a20106;
      }

      .cls-52 {
        fill: #fd3f35;
      }

      .cls-12 {
        stroke: #fdfbb0;
      }

      .cls-53 {
        fill: #fcf0ef;
      }

      .cls-54 {
        fill: #ea0207;
      }

      .cls-55 {
        fill: #690009;
      }

      .cls-56 {
        fill: #ff932f;
      }
    </style>
  </defs>
  <g id="Layer_1-2" data-name="Layer 1">
    <g id="Generative_Object" data-name="Generative Object">
      <g>
        <path class="cls-27" d="M280.32,80.93c-3.71.09-7.34.68-11.27,1.5l-19.51,4.09c-2.33.49-4.44.97-6.55.52-5.24-4.7-9.02-10.87-13.58-16.3-.6-.71-.73-1.98-1.87-2.24-.64-.15-1.61.4-2.31.38l-41.43-49.18c-1.02-1.21-1.86-2.69-3.29-3.95l-.12-14.04c0-.54.02-1.24.64-.99l99.31,80.2Z"/>
        <path class="cls-35" d="M282.37,83.86l18.82,10.68c.92.52,2.51.26,3.89.56l51.41,30.33c1,.59.46,1.73.59,2.05-4.19,1.74-8.73,2.49-12.83,4.44l-1.83-1.49c4.42-.2-10.11-4.63-7.53-2.62-.52-.22-.98-.53-1.18-1.08l-16.84-5.98c-.12.38-.75.6-.99.44-.21-.13-.22-.3-.59-.5.2-.5.27-.91-.04-1.33.3.39-4.56-1.62-4.28-.29-.5-.21-1.13-.35-1.64-.51,1.66-.98-8.48-4.49-7.61-2.71-.98-.38-2.65-.21-3.09-1.74-.74.33-1.29.13-1.31-.42-2.35-.76-4.67-1.57-7.06-2.17-1.25-2-4.25-2.5-6.52-2.72-.5-.05-.62-.15-1.09-.33-2.49-.93-5.52-1-7.61-2.39l-1.63-1.09c-3.56-2.37-8.65-3.04-13.04-4.35-1.23-.37-2.2-1.35-3.67-1.21-1.12-1.39-4.01-2.47-5.6-1.54-.93-.12-2.63-1.01-3.46-.5-.31-.03-.29-.7-.29-.97,0-.23.01-.64.43-.57.09,1.53,9.52-2.6,11.49-3.41l9.26-3.8c2.32-1.6,4.84-1.88,7.65-2.61,1.96-.51,4.2-2.95,6.2-2.14Z"/>
        <path class="cls-36" d="M85.37,79.63c-.3.41.03,1,.12,1.51.09.56.88.47,1.59.61l32.05,6.39c-2.25,2.47-3.76,5.94-7.11,8.06-.64-.07-1-.26-1.52-.09,1.7-.26-11.37-4.68-11.08-4.25l-3.12-1.09c-3.17-1.1-8.89-4.14-12.53-4.89.53-.05-6.1-4.7-5.98-3.91,2.29-1.34,4.53-3.4,7.6-2.34Z"/>
        <path class="cls-25" d="M280.32,80.93c.76-.03,1.59.47,2.06.89.63.56.26,1.55,0,2.04-2-.81-4.24,1.63-6.2,2.14-2.81.73-5.33,1.01-7.65,2.61l-9.26,3.8c-1.97.81-11.4,4.94-11.49,3.41l-4.99-6.41c-.62-.8-.51-1.88.2-2.36,2.11.45,4.23-.04,6.55-.52l19.51-4.09c3.93-.82,7.56-1.41,11.27-1.5Z"/>
        <path class="cls-54" d="M94.49,160.26c1.06.36,2.36,1.35,3.66,1.14.85-.55.71-.57,1.4.09,1.8,1.42,4.48,1.5,6.52,2.17,2.74,2.04,6.38,3.1,9.89,3.53,1.27.16,2.25,1.18,3.33,1.55l42.23,14.28c2.19.74,3.97.51,5.86,1.95,1.75,1.33,4.66,1.27,6.56,2.12,1.2.82,2.31,1.17,4.44,1.71-.43.55-.79.97-.59,1.6.87.27,1.57.86,2.18,1.53.35-.42.69-.64,1.08-.66,3.27,1.65,7.44,9.75,10.32,12.06,1.68,1.35,2.02,2.82,3.26,4.35,7.73,9.54,14.69,19.75,22.82,28.8,9.33,10.37,17.53,21.88,26.58,33.02.69.84.57,1.78.58,2.29l31.25,39.86c2.61,3.32,5.12,6.21,6.85,9.62l-.61.51h-1.63l-34.77-7.81-65.12-16.37c-2.73.02-4.73,1.2-7.26,1.51l-62.95,15.13-34.94,8.75-9.09,13.08c-1.02.33-1.12-.85-.37-1.33l8.39-14.05c.73-1.22,1.51-2.95-.21-4.93.5.57-2.14-29.45-3.35-31.51-.12-.47.63-1.48.56-1.91-.13-.77-.03-1.74-1.15-1.86l-1.09-14.67c-.04-.53-.52-1.08-.54-1.63-.23-5.07-.8-10.15-1.3-15.21l-2.5-24.99c-.05-.54.35-1.16.54-1.74-.78-.19-1.48-.88-2-1.8l-7.24-12.76c-.41-.72-.68-1.45-1.09-2.17l-11.41-20.65c-1.21.05-1.96-1.38-2.47-2.53-2.4-5.47-5.89-10.05-8.45-14.89l-16.35-30.86c-.32-.61-.53-1.33-.45-1.93.04-.3-.1-.79.44-.86l78.17,26.48Z"/>
        <path class="cls-44" d="M343.93,132.14c-.88.13.93,1.2.67,1.68l-16.48,30.98-29.43,53.07c-2.08,3.76-3.23,5.93-3.67,10.06l-3.05,28.65c-.21,1.97-.31,4.13-.64,6.07-1.28,7.55-1.74,15.19-2.6,22.74-.82,7.19-1.46,12.49-2.29,20.7-.44,4.39-1.93,9.06-1.22,13.69-.79.47-1.17.18-1.25.44-.17.57-.4,1.41-.35,1.77-.24-.27-.74-.39-.91-.73l-.61.51.61-.51c-1.73-3.4-4.24-6.29-6.85-9.62l-31.25-39.86c-.01-.51.1-1.45-.58-2.29-9.06-11.14-17.25-22.65-26.58-33.02-8.13-9.04-15.09-19.26-22.82-28.8-1.24-1.53-1.58-3-3.26-4.35-2.88-2.32-7.05-10.41-10.32-12.06-.19-.91.15-.83,1.12-.92.87-.09,1.59,0,2.12-.01l-1.03-2.34c.76-.32,1.54-.94,2.22-1.43,3.16-2.3,7.38-3.39,11.42-3.3,1.25-1.62,3.28-2.09,5.34-2.55,1.52-.34,3.04-1.7,5.3-1.54,2.68.19,7.58-2.26,12.44-3.36.45-.1.64-1.27.99-1.27.26,0,.95.64,1.41.47l11.61-4.3c2.72-1.01,5.57-3.47,8.94-2.71.22.05.72-1.24.85-1.09.13.13.24.08,1.01.58,2.98-1.78,7.5-1.91,9.75-3.8,1.45-1.81,2.36-1.5,4.47-1.67,2.99-.23,6.57-1.42,9.5-2.78l3.64-1.69c3.79-1.76,8.32-2.07,11.96-4.28,1.6-.98,3.24-.52,5.03-1.18l14.3-5.21,3.66-1.7c11.65-5.4,24.68-8.43,36.84-13.05Z"/>
        <path class="cls-30" d="M251.1,97.88c1.92.24,3.61,1.73,5.6,1.54,1.47-.14,2.44.85,3.67,1.21,4.39,1.31,9.48,1.97,13.04,4.35l1.63,1.09c2.09,1.39,5.11,1.46,7.61,2.39.46.17.59.28,1.09.33,1.65,1.68,4.26,2.15,6.52,2.72,2.39.6,4.72,1.42,7.06,2.17.02.55.57.75,1.31.42.44,1.53,2.11,1.36,3.09,1.74,2.51.98,5.03,1.91,7.61,2.71.51.16,1.14.3,1.64.51,1.42.59,2.81,1.28,4.33,1.62.37.21.39.37.59.5.24.15.87-.06.99-.44l16.84,5.98c.21.55.66.86,1.18,1.08,2.44,1.04,4.98,1.89,7.53,2.62l1.83,1.49c-.12.06-.21.17-.33.22-12.15,4.63-25.19,7.65-36.84,13.05l-3.66,1.7-14.3,5.21c-1.79.65-3.43.2-5.03,1.18-3.63,2.21-8.17,2.52-11.96,4.28l-3.64,1.69c-2.93,1.36-6.51,2.55-9.5,2.78-2.12.16-3.02-.15-4.47,1.67-2.25,1.89-6.77,2.02-9.75,3.8-.76-.5-.88-.45-1.01-.58-.14-.14-.64,1.14-.85,1.09-3.37-.75-6.22,1.71-8.94,2.71l-11.61,4.3c-.46.17-1.15-.47-1.41-.47-.35,0-.54,1.17-.99,1.27-4.86,1.1-9.76,3.54-12.44,3.36-2.26-.16-3.78,1.21-5.3,1.54-2.06.46-4.09.92-5.34,2.55-4.05-.1-8.27.99-11.42,3.3-.92.12-1.52-.4-2.19-1.41l39.47-55.1c5.48-7.65,11.79-14.89,16.75-22.97,2.15-3.5,5.71-6.43,8.14-9.71.84-.51,2.54.39,3.46.5Z"/>
        <path class="cls-14" d="M67.27,248.96c.51,5.06,1.07,10.14,1.3,15.21.03.55.5,1.1.54,1.63l1.09,14.67c.28,3.81.37,7.61.81,11.61l1.65,15.22c.49,4.51.32,9.15,1.69,13.37l-8.39,14.05c-.76.48-.65,1.66.37,1.33.23.46-.41.67-.53.9-.24.13-.61-.15-.46-.27.35-.28-.52-.72-.58-.97l-10.11-43.07c-.69-2.94-.57-5.67-2.15-8.51-1.08-1.93-1.2-5.06-1.78-6.95-.3-3.76-3.17-12.5-3.44-16.06-.25-3.33,4.7-17.68,8.91-21.4,2.7,4.49,3.2,10.54,5.16,14.24-.93-1.1,5.77-6.59,5.91-5Z"/>
        <path class="cls-31" d="M233.29,315.1l36.24,17.1c1.91.9,3.71,1.81,5.03,2.89l-12.45-1.2c-5.42-.52-9.92-1.79-15.36-2.91l-64.07-13.17c-.78-.16-.83-.67-.41-1.11,8.07-1.41,17.47-2.01,26.5-2.49l9.48-.5,9.96-.56c1.71.5,3.46,1.17,5.09,1.94Z"/>
        <path class="cls-22" d="M245.7,313.96l34.77,7.81h1.63l.61-.51c.17.33.67.45.91.73,3.85,4.38,6.76,9.53,9.89,14.45.24,1.49-18.07-.79-18.94-1.35-1.32-1.08-3.12-1.99-5.03-2.89l-36.24-17.1c.33-.37,1.25-.94,2.11-.96l10.29-.18Z"/>
        <path class="cls-34" d="M228.21,313.16l-9.96.56-9.48.5c-9.02.48-18.43,1.08-26.5,2.49,5.85-16.58,35-10.24,45.94-3.55Z"/>
        <g>
          <path class="cls-55" d="M63.66,339.82c1.15-.03,2.08-1.85,2.13-2.85.13-.23.76-.44.53-.9l9.09-13.08,34.94-8.75,62.95-15.13c2.53-.31,4.53-1.49,7.26-1.51l65.12,16.37-10.29.18c-.86.01-1.78.58-2.11.96-1.63-.77-3.38-1.44-5.09-1.94-10.94-6.69-40.09-13.03-45.94,3.55-.42.43-.37.95.41,1.11l64.07,13.17c5.45,1.12,9.94,2.39,15.36,2.91l12.45,1.2c.87.56,19.18,2.84,18.94,1.35-3.13-4.92-6.04-10.07-9.89-14.45-.05-.36.18-1.19.35-1.77.08-.26.46.03,1.25-.44-.71-4.64.78-9.31,1.22-13.69.82-8.2,1.47-13.5,2.29-20.7.86-7.55,1.31-15.19,2.6-22.74.33-1.94.43-4.1.64-6.07l3.05-28.65c.44-4.14,1.59-6.31,3.67-10.06l29.43-53.07,16.48-30.98c.26-.48-1.55-1.55-.67-1.68.12-.04.21-.16.33-.22,4.09-1.95,8.63-2.7,12.83-4.44.34-.14.78-.22,1.09-.22.58,0,2.13-.25,1.68,1.14l-35.17,108.13-28.74,104.56-116.48-8.99-114.55,8.99c-.87.03-1.46-.16-1.38-.55l.14-.73Z"/>
          <path class="cls-51" d="M156.14,329.06c-8.41.47-16.3,1.05-24.46,1.94-3.52.38-7.14.45-10.94.02,7.18-2.39,13.95-3.66,21.17-5.27l5.6-1.25,27.6-6.04c.77,4.51-1.11,8.92-6.02,9.51l-5.21.62c-2.68.32-5.42.35-7.74.48Z"/>
          <path class="cls-40" d="M313.33,228.33c4.89-13.02,1.3-14.11,8.84-15.7,3.4-.72,6.38-12.24,9.34-16.36,1.21-1.69,1.11-3.7,3.18-5.1l-6.14,18.61c-2.52,7.65-5.16,15.3-8.23,22.99-1.74,1.6-6.8-.77-7.82-2.15-.57-.77.53-1.51.82-2.29Z"/>
        </g>
        <path class="cls-48" d="M56.08,207.67c-2.18-1.66.42,1-4.04-.63-.55-.2-.27-1.42-.74-2.18-2.33-2.95-3.54-6.31-5.3-9.54l-5.72-10.49-3.75-6.08c-.34-.56.28-1.52-.25-2.12-.4-.45-3.78.33-3.61-9.21,2.56,4.84,6.05,9.42,8.45,14.89.51,1.15,1.25,2.59,2.47,2.53l11.41,20.65c.4.73.68,1.45,1.09,2.17Z"/>
        <g>
          <path class="cls-2" d="M16.31,133.77c-.54.07-.4.56-.44.86-.08.6.13,1.32.45,1.93l16.35,30.86c-.17,9.54,3.21,8.76,3.61,9.21.53.6-.09,1.57.25,2.12l3.75,6.08,5.72,10.49c1.76,3.23,2.97,6.59,5.3,9.54.47.76.19,1.98.74,2.18,4.46,1.63,1.86-1.03,4.04.63l7.24,12.76c.52.92,1.22,1.61,2,1.8-.19.58-.6,1.19-.54,1.74l2.5,24.99c-.15-1.59-6.84,3.91-5.91,5-1.96-3.69-2.46-9.75-5.16-14.24-4.21,3.72-9.16,18.07-8.91,21.4.27,3.56,3.14,12.3,3.44,16.06.58,1.89.7,5.02,1.78,6.95,1.58,2.84,1.46,5.57,2.15,8.51l10.11,43.07c.06.25.93.69.58.97-.15.12.22.4.46.27-.05,1-.99,2.83-2.13,2.85l-28.19-102.16L.04,128.45c-.22-.67.4-.94.7-.74,5.42,1.4,10.4,4.31,15.57,6.06Z"/>
          <path class="cls-15" d="M26.38,186.19c-3.94.18,4.15,12.67,2.45,15.47-1.05-1.45-1.4-3.06-1.76-4.87-.74-3.77-2.78-7.03-3.9-10.85-1.3-4.44-2.63-8.61-4.23-13.17-.39-1.12,1.38-1.47,1.44-.15.07,1.63,5.43,12.62,6,13.56Z"/>
        </g>
        <path class="cls-13" d="M173.93,187.09c-1.89-.84-4.81-.78-6.56-2.12-1.89-1.44-3.67-1.21-5.86-1.95l-42.23-14.28c-1.08-.37-2.06-1.39-3.33-1.55-3.5-.43-7.15-1.49-9.89-3.53-2.04-.68-4.72-.75-6.52-2.17-.68-.66-.54-.64-1.4-.09-1.3.21-2.6-.78-3.66-1.14-.32-.42.75-1.94-.48-1.1l-72.22-26.25,64.32,7.36,17.08-37.47c-2.57-.46-4.08.77-6.13,1.5-.19.04-.31-.34-.53-.41-.58-.16-.93.26-.85,1.16-.58-.21-.54-.55-.77-.62-.63-.17-.91.26-.86,1.16-.58-.21-.54-.56-.76-.61-.67-.17-.93.25-.84,1.16-.57-.19-.58-.48-.77-.62-.39-.27-.89.03-.81.93-3.33.23-3.29,1.77-5.43.51l28.02-9.73,44.36,61.41,19.22,27.26c.2.29-.45,1.31-.61,1.12-.3-.36-1.36-.53-1.91-.53-.37,0-.62.26-.56.61Z"/>
        <path class="cls-37" d="M110.49,96.12c-2.68.88-5.48,1.47-8.28,1.78-3.84.43-7.7,1.27-11.69,2.27l-18.14,4.54-38.44,11.7c-2.27.69-10.88,3.63-11.8,3.87-.38-.22-.24-.07-.3-.26-.12-.4-.8-.22-1.13-.69l14.63-8.5c10.6-6.16,6,1.05,23.95-4.94l13.52-4.51c3.59-1.2,7.28-2.46,11.07-3.33,5.75-1.33,11.29-2.31,16.16-5.42-.67-.06-1.5-.46-.62-.76-.29-.43,12.78,3.99,11.08,4.25Z"/>
        <g>
          <path class="cls-1" d="M102.21,97.9c-.03.93,1.28.85,1.92.86-.33.92-.66.82-1.4.22l-19.02,7.28c.42.94,1.12.35,1.7.68,2.14,1.26,2.1-.27,5.43-.51-.08-.9.43-1.2.81-.93.19.14.21.43.77.62-.08-.9.17-1.33.84-1.16.22.06.19.4.76.61-.05-.9.23-1.33.86-1.16.23.06.19.4.77.62-.08-.9.27-1.32.85-1.16.22.06.34.44.53.41,2.06-.73,3.57-1.96,6.13-1.5l-17.08,37.47-64.32-7.36,72.22,26.25c1.23-.84.16.68.48,1.1l-78.17-26.48c-5.16-1.75-10.15-4.66-15.57-6.06.33-.49.43-.82.49-1.18s.86-.91,1.08-.39c-.48,1.3,8.83-2.09,8.81-2.08,3.73-1.63,7.36-2.85,11.03-3.79.92-.24,9.53-3.18,11.8-3.87l38.44-11.7,18.14-4.54c3.99-1,7.85-1.84,11.69-2.27Z"/>
          <path class="cls-41" d="M59.38,115.83c-.99,1.31-11.15,4.65-11.4,4.54-3.11-1.36,10.52-4.83,11.4-4.54Z"/>
        </g>
        <g>
          <path class="cls-4" d="M119.13,88.15l-32.05-6.39c-.72-.14-1.5-.05-1.59-.61-.09-.51-.42-1.11-.12-1.51.31-.33.5-.82.85-1.11l58.22-46.98c.1-.84-.58-1.67-.84-2.61L178.32,1.26c2-4.49.87,15.39.65,14.72l-33.46,41.11c-8.75,10.76-17.3,21.09-26.38,31.06Z"/>
          <path class="cls-53" d="M139.69,61.38c2.5-1.62-3.56.92-4.05,2.7-.13.47-.66-.15-.78-.43-.09-.22-.03-.39.13-.96l7-10.4c.5.04.72.82,1.03.89.38.09.98.07,1.68-.22,4.38-1.79-1.43,6.08-5.02,8.41Z"/>
          <path class="cls-3" d="M166.4,17.28c-1.45.94-4.54,4.41-5.5,2.64,2.48-.97,3.18-4.15,5.5-2.64Z"/>
        </g>
        <path class="cls-21" d="M342.43,130.42c-2.55-.73-5.09-1.58-7.53-2.62-2.59-2.01,11.95,2.42,7.53,2.62Z"/>
        <path class="cls-23" d="M309.32,118.55c-2.58-.81-5.1-1.74-7.61-2.71-.86-1.78,9.28,1.74,7.61,2.71Z"/>
        <path class="cls-38" d="M290.25,111.5c-2.26-.57-4.87-1.03-6.52-2.72-.5-.05-.62-.15-1.09-.33.46.17.59.28,1.09.33,2.27.22,5.27.72,6.52,2.72Z"/>
        <path class="cls-16" d="M256.7,99.42c-1.99.19-3.68-1.3-5.6-1.54,1.59-.93,4.48.15,5.6,1.54Z"/>
        <path class="cls-24" d="M315.29,120.68c-1.52-.34-2.91-1.02-4.33-1.62-.28-1.33,4.58.68,4.28.29.32.42.24.83.04,1.33Z"/>
        <g>
          <path class="cls-50" d="M183.78,19.71l41.43,49.18c.7.02,1.66-.53,2.31-.38,1.14.26,1.28,1.53,1.87,2.24,4.57,5.43,8.35,11.6,13.58,16.3-.71.48-.82,1.57-.2,2.36l4.99,6.41c-.42-.06-.43.34-.43.57,0,.27-.01.94.29.97-2.42,3.28-5.99,6.2-8.14,9.71-.42.28-.47-.06-.72-.14-.38-.12-.79-.82-.48-1.33l2.15-3.47c1.27-2.05,3.57-5.32,2.71-8.06l-22.54-27.67-35.12-42.41c-1.21-1.46-2.65-2.24-2.75-3.87.16-.36.67-.5,1.03-.42Z"/>
          <path class="cls-56" d="M182.75,20.13c.1,1.64,1.54,2.41,2.75,3.87l35.12,42.41,22.54,27.67c.87,2.74-1.43,6-2.71,8.06l-2.15,3.47c-.31.51.1,1.21.48,1.33.25.08.3.42.72.14-4.96,8.08-11.27,15.32-16.75,22.97-.16.4-.55-.22-1.05,0l-38.09,50.81c-.57.76-.55,1.69-.8,2.09-.23.37-1.78,1.24-1.79.03l-.51-109.62-.04-54.23c1.13-.11,1.51.85,2.28,1Z"/>
        </g>
        <g>
          <path class="cls-28" d="M181.01.74c-.62-.25-.64.44-.64.99l.12,14.04c1.42,1.26,2.26,2.73,3.29,3.95-.37-.09-.87.06-1.03.42-.77-.15-1.15-1.11-2.28-1l.04,54.23.51,109.62c0,1.21,1.56.34,1.79-.03.25-.4.22-1.33.8-2.09l38.09-50.81c.51-.22.89.4,1.05,0l-39.47,55.1c.67,1.01,1.27,1.52,2.19,1.41-.68.5-1.47,1.12-2.22,1.43s-1.54-.17-1.8.97c-.16.69-1.88,1.56-.4,2.31-.4.02-.73.24-1.08.66-.61-.67-1.31-1.26-2.18-1.53-.2-.62.17-1.04.59-1.6-2.14-.55-3.24-.89-4.44-1.71-.06-.35.19-.6.56-.61.55,0,1.61.17,1.91.53.15.18.81-.84.61-1.12l-19.22-27.26-44.36-61.41-28.02,9.73c-.58-.34-1.28.26-1.7-.68l19.02-7.28c.75.59,1.07.69,1.4-.22-.64-.01-1.95.07-1.92-.86,2.79-.31,5.6-.9,8.28-1.78.52-.17.88.02,1.52.09,3.36-2.12,4.86-5.59,7.11-8.06,9.08-9.97,17.62-20.31,26.38-31.06l33.46-41.11c.22.67,1.35-19.21-.65-14.72-1.01-.01,1.96-1.24,1.93-1.26.36.14.93.14.76.74Z"/>
          <path class="cls-42" d="M178.49,146.78c-.09-.02-.33-.05-.95-.01l-52.52-59.17,36.77-47.63c5.59,3.39,10.81,5.93,16.65,8.74l.05,98.07Z"/>
          <path class="cls-52" d="M178.49,146.78l-.23,38.12c-19.09-26.38-37.03-52.47-54.28-79.8-1.9-3.01-4.03-6.06-3.97-9.33s3.27-5.86,5-8.16l52.52,59.17c.62-.03.86-.01.95.01Z"/>
        </g>
        <path class="cls-18" d="M183.24,187.99l1.03,2.34c-.53.01-1.25-.07-2.12.01-.97.1-1.3,0-1.12.92-1.48-.74.24-1.61.4-2.31.26-1.14,1.04-.65,1.8-.97Z"/>
        <path class="cls-46" d="M83.75,85.89c3.64.75,9.36,3.79,12.53,4.89-.28.04-1.05.66-1.35.5l-1.22-.68-12.71-3.95c-.88-.27-2.2,1.39-2.88-.3,1.7-.86,3.86-.82,5.62-.45Z"/>
        <path class="cls-17" d="M74.35,320.68c-1.37-4.23-1.2-8.86-1.69-13.37l-1.65-15.22c-.43-4.01-.53-7.8-.81-11.61,1.12.12,1.02,1.09,1.15,1.86.07.43-.68,1.44-.56,1.91,1.21,2.06,3.85,32.08,3.35,31.51,1.71,1.98.93,3.71.21,4.93Z"/>
      </g>
      <g>
        <path class="cls-43" d="M317.11,120.06c5.15,1.83,18.87,6.51,23.61,8.95-1.45-.3-5.28-1.15-7.25-1.62l-16.84-5.98c-.88-.31-.41-1.67.48-1.35h0Z"/>
        <path class="cls-47" d="M358.16,127.98c-.48,0-.85.18-1.36.38-3.92,1.55-8.17,2.33-11.97,4.08-.36.16-.15.07-.49.28-.19.11-1.67.63-1.9.72-11.62,4.26-23.84,7.22-35.05,12.39-.82.38-1.48-.88-.61-1.3,11.89-5.48,24.58-8.42,36.74-13.02,4.21-2.22,9.16-2.96,13.6-4.82.34-.1.65-.15,1.04-.16.45.38.72.8.97,1.38-.33.01-.66.03-.98.06h0Z"/>
        <path class="cls-8" d="M290.25,111.5c2.39.6,4.72,1.42,7.06,2.17"/>
        <path class="cls-9" d="M281.56,219.08c4.18.07,7.92,2.21,11.95,2.72"/>
        <path class="cls-12" d="M275.04,106.07c2.09,1.39,5.11,1.46,7.61,2.39.46.17.59.28,1.09.33"/>
        <path class="cls-33" d="M300.3,96.1l-18.82-10.68c-3.09-.1-6.36,2.32-9.34,1.64,0,0,10.28-5.26,10.28-5.26,5.29,3.07,21.37,12.05,26.27,15.11-3.43.34-5.75,1.1-8.39-.81h0Z"/>
        <path class="cls-19" d="M260.57,99.95c2.17.64,4.42,1.11,6.67,1.73,4.27,1.04,8.13,3.62,12.23,5.29-2.01-.4-4.59-.96-6.46-1.39-3.8-2.44-8.52-2.94-12.85-4.26-2.13-.85-4.82-1.93-7.03-2.8,2.31.4,5.34.98,7.44,1.42h0Z"/>
        <line class="cls-10" x1="280.47" y1="321.77" x2="282.1" y2="321.77"/>
        <path class="cls-49" d="M245.18,271.34l25.28,32.25,6.32,8.06c2.29,2.91,4.8,5.83,6.55,9.24.04.08,0,.02.01.02.1.09.71.41.86.64,1.78,2.03,3.37,4.23,4.85,6.48,1.62,2.44,3.23,5.12,4.79,7.59,0,0,.17.27.17.27.06.1.11.19.13.19,1.39,1.57,2.34,3.76,3.55,5.52-1.87-1.21-3.35-3.16-4.89-4.95-3-4.73-5.82-9.68-9.48-13.92-.34-.5-.69-.43-1.12-.95-1.75-3.35-4.15-6.23-6.55-9.25,0,0-6.32-8.06-6.32-8.06l-25.28-32.25c-.24-.31-.19-.76.12-1.01.31-.24.76-.19,1.01.12h0Z"/>
        <path class="cls-45" d="M230.77,69.6c4.66,5.55,8.37,11.61,13.41,16.12.51.51,1.01,1.04,1.48,1.6-.3.3-1.08.38-1.61.26-.26-.03-.58-.07-.66.14-.21.51-.06,1.39-.81,1.6-.12-.15-.64-.76-.79-.93-5.55-5.01-9.31-11.22-13.76-16.48-1.03-1.25-2.19-2.52-3.08-3.68.31-1.26,1-4.07,1.22-4.95.03-.11.04-.16.05-.21,1,1.44,3.35,4.8,4.56,6.53h0Z"/>
        <path class="cls-6" d="M194.08,207.67h.54c7.73,9.54,14.69,19.75,22.82,28.8"/>
        <path class="cls-39" d="M180.67,194.68c-.61,8.96,1.28,18.26.04,27.37-.36,2.35.3,4.51.42,7.03,0,0,.03,11.55.03,11.55-.04-.2.12,46.99,0,45.83.83,2.55.33,4.99.71,7.44.13.58.21,1.02.8,1.08.72.82,1.61,1.27,2.69,1.68-.94.12-1.83-.07-2.7-.24-.58-.02-1.27-.28-1.64-.81-.81-1.24-.68-2.7-.74-4.02,0-1.75-.07-3.39-.51-4.89-.01-8.53-.04-49.96-.07-57.55-.11-2.26-.81-4.86-.41-7.3.19-1.34.32-2.87.37-4.22.29-7.58-.93-15.25-.42-23.03-.01-.4-.04-.92-.06-1.34.62-.11,1-.2,1.49.04,0,.29,0,1.03,0,1.39h0Z"/>
        <path class="cls-32" d="M176.63,189.57c1.55-.17,2.92.81,3.86,1.87,0,0-1.08.02-1.08.02.41-.51,1.23-1.13,1.96-.84,4.62,3.01,6.51,8.55,10.45,12.14.76.58-.15,1.74-.9,1.12-3.95-3.5-5.87-8.99-10.2-11.98,0,0,.36.08.36.08-.13,0-.32.11-.57.4-.27.34-.8.35-1.08.02-.77-.87-1.73-1.51-2.66-1.4-.36-.21-.79-.65-1.08-1.27.15,0,1.02-.15.95-.16h0Z"/>
        <path class="cls-26" d="M156.5,26.21l-14.67,11.95c-.72.59-1.64-.51-.91-1.11,2.87-2.27,15.72-13.05,18.59-14.78-.63,1.71-1.64,2.89-3.01,3.94h0Z"/>
        <path class="cls-20" d="M99.99,160.93c1.76,1.34,4.16,1.34,6.3,2.06.99.45,3.15,1.45,3.86,1.78-2.7-.08-5-.56-7.63-1.21-1.15-.28-2.38-.67-3.43-1.5-1.13-.5-2.5-1.13-3.67-1.66,1.51.08,3.12.27,4.56.54h0Z"/>
        <line class="cls-7" x1="69.12" y1="265.81" x2="70.2" y2="280.48"/>
        <path class="cls-11" d="M64.77,223.97l2.5,24.99c.51,5.06,1.07,10.14,1.3,15.21"/>
        <path class="cls-29" d="M56.7,207.32c1.44,2.53,5.06,8.93,6.45,11.37.64,1.04,1.18,2.51,2.33,2.84,0,0-.3,0-.3,0,4.58-.87,9.1-2.07,13.47-3.66,1.7-.37,5.13-1.12,6.34-1.39-6.1,3.25-12.78,5.18-19.55,6.46-1.96-.16-2.7-2.15-3.54-3.54,0,0-2.15-3.79-2.15-3.79l-4.3-7.58c-.46-.81.78-1.53,1.25-.71h0Z"/>
        <line class="cls-5" x1="43.58" y1="184.85" x2="54.99" y2="205.5"/>
      </g>
    </g>
  </g>
</svg>