<svg width="500" height="500" viewBox="0 0 500 500" fill="none" xmlns="http://www.w3.org/2000/svg">
<circle cx="250.5" cy="260.5" r="195.5" fill="black"/>
<path d="M252.319 172.77L249.056 148.506L258.253 139.967L282.209 145.017L278.74 156.267L261.626 148.787L257.603 152.523L263.795 170.143L252.319 172.77ZM277.236 121.985L257.809 136.99L245.738 133.212L238.185 109.899L249.564 107.361L251.746 125.85L257.049 127.526L269.134 113.452L277.236 121.985ZM220.557 126.266L243.247 135.525L246.121 147.842L229.718 166.105L221.808 157.393L236.739 146.384L235.46 140.972L217.183 137.426L220.557 126.266Z" fill="white"/>
<path d="M388.715 361.143L372.539 351.224L371.911 341.517L386.675 329.596L391.735 337.189L378.862 343.809L379.137 348.055L392.755 352.962L388.715 361.143ZM370.401 321.308L369.905 340.327L361.726 345.73L344.02 338.854L348.067 330.774L360.244 338.515L363.847 336.15L361.307 321.998L370.401 321.308ZM345.224 357.458L361.896 348.358L370.703 352.662L373.645 371.459L364.538 371.946L365.234 357.585L361.356 355.704L350.277 364.949L345.224 357.458Z" fill="white"/>
<path d="M154.715 361.143L138.539 351.224L137.911 341.517L152.675 329.596L157.735 337.189L144.862 343.809L145.137 348.055L158.755 352.962L154.715 361.143ZM136.401 321.308L135.905 340.327L127.726 345.73L110.02 338.854L114.067 330.774L126.244 338.515L129.847 336.15L127.307 321.998L136.401 321.308ZM111.224 357.458L127.896 348.358L136.703 352.662L139.645 371.459L130.538 371.946L131.234 357.585L127.356 355.704L116.277 364.949L111.224 357.458Z" fill="white"/>
<path d="M223.478 172.811L222.714 172.889L221.965 172.975L221.244 173.073L220.566 173.193L219.942 173.338L219.384 173.515L218.901 173.728L218.501 173.981L218.189 174.276L217.969 174.615L217.842 174.999L217.807 175.427L217.86 175.897L217.996 176.407L218.207 176.953L218.483 177.531L218.814 178.135L219.188 178.759L219.59 179.397L220.007 180.041L220.423 180.686L220.826 181.324L221.199 181.948L221.53 182.552L221.807 183.13L222.018 183.676L222.154 184.186L222.207 184.656L222.171 185.084L222.044 185.468L221.824 185.807L221.513 186.102L221.112 186.355L220.63 186.568L220.072 186.745L219.448 186.89L218.769 187.009L218.049 187.108L217.3 187.193L216.536 187.271L215.772 187.35L215.023 187.435L214.302 187.534L213.624 187.653L213 187.798L212.442 187.975L211.959 188.188L211.559 188.441L211.247 188.736L211.027 189.075L210.9 189.459L210.865 189.887L210.918 190.357L211.054 190.867L211.265 191.413L211.541 191.991L211.873 192.595L212.246 193.219L212.648 193.857L213.065 194.502L213.482 195.146L213.884 195.784L214.257 196.408L214.589 197.012L214.865 197.59L215.076 198.136L215.212 198.646L215.265 199.116L215.23 199.544L215.103 199.928L214.883 200.267L214.571 200.562L214.171 200.815L213.688 201.028L213.13 201.205L212.506 201.35L211.828 201.469L211.107 201.568L210.358 201.653L209.594 201.732L208.83 201.81L208.081 201.895L207.361 201.994L206.682 202.113L206.058 202.258L205.5 202.435L205.018 202.648L204.617 202.901L204.306 203.196L204.086 203.535L203.959 203.919L203.923 204.347L203.976 204.817L204.112 205.327L204.323 205.873L204.6 206.451L204.931 207.055L205.304 207.679L205.707 208.317L206.123 208.962L206.54 209.607L206.942 210.244L207.316 210.869L207.647 211.472L207.923 212.05L208.134 212.596L208.27 213.106L208.323 213.576L208.288 214.004L208.161 214.388L207.941 214.727L207.629 215.022L207.229 215.275L206.746 215.488L206.188 215.665L205.564 215.81L204.886 215.93L204.165 216.028L203.416 216.114L202.652 216.192L201.889 216.27L201.139 216.355L200.419 216.454L199.74 216.573L199.117 216.719L198.559 216.895L198.076 217.108L197.676 217.361L197.364 217.656L197.144 217.996L197.017 218.379L196.981 218.807L197.034 219.277L197.17 219.787L197.381 220.334L197.658 220.911L197.989 221.515L198.363 222.139L198.765 222.777L199.181 223.422L199.598 224.067L200 224.705L200.374 225.329L200.705 225.933L200.982 226.51L201.193 227.056L201.328 227.566L201.381 228.037L201.346 228.464L201.219 228.848L200.999 229.187L200.687 229.483L200.287 229.735L199.804 229.948L199.246 230.125L198.622 230.271L197.944 230.39L197.224 230.489L196.474 230.574L195.711 230.652L194.947 230.73L194.198 230.815L193.477 230.914L192.799 231.033L192.175 231.179L191.617 231.356L191.134 231.569L190.734 231.821L190.422 232.117L190.202 232.456L190.075 232.84L190.04 233.267L190.093 233.738L190.229 234.248L190.439 234.794L190.716 235.371L191.047 235.975L191.421 236.599L191.823 237.237L192.24 237.882L192.656 238.527L193.059 239.165L193.432 239.789L193.763 240.393L194.04 240.97L194.251 241.516L194.387 242.026L194.44 242.497L194.404 242.925L194.277 243.308L194.057 243.648L193.746 243.943L193.345 244.195L192.863 244.408L192.304 244.585L191.681 244.731L191.002 244.85L190.282 244.949L189.533 245.034L188.769 245.112L188.005 245.19L187.256 245.275L186.535 245.374L185.857 245.494L185.233 245.639L184.675 245.816L184.192 246.029L183.792 246.282L183.48 246.577L183.26 246.916L183.133 247.3L183.098 247.728L183.151 248.198L183.287 248.708L183.498 249.254L183.774 249.832L184.106 250.435L184.479 251.059L184.881 251.697L185.298 252.342L185.715 252.987L186.117 253.625L186.49 254.249L186.821 254.853L187.098 255.431L187.309 255.977L187.445 256.487L187.498 256.957L187.463 257.385L187.335 257.769L187.115 258.108L186.804 258.403L186.404 258.656L185.921 258.869L185.363 259.046L184.739 259.191L184.061 259.31L183.34 259.409L182.591 259.494L181.827 259.572L181.063 259.65L180.314 259.736L179.593 259.835L178.915 259.954L178.291 260.099L177.733 260.276L177.25 260.489L176.85 260.742L176.539 261.037L176.319 261.376L176.191 261.76L176.156 262.188L176.209 262.658L176.345 263.168L176.556 263.714L176.833 264.292L177.164 264.896L177.537 265.52L177.939 266.158L178.356 266.802L178.773 267.447L179.175 268.085L179.548 268.709L179.88 269.313L180.156 269.891L180.367 270.437L180.503 270.947L180.556 271.417L180.521 271.845L180.394 272.229L180.174 272.568L179.862 272.863L179.462 273.116L178.979 273.329L178.421 273.506L177.797 273.651L177.119 273.77L176.398 273.869L175.649 273.954L174.885 274.032L174.121 274.111L173.372 274.196L172.652 274.295L171.973 274.414L171.35 274.559L170.792 274.736L170.309 274.949L169.909 275.202L169.597 275.497L169.377 275.836L169.25 276.22L169.214 276.648L169.267 277.118L169.403 277.628L169.614 278.174L169.891 278.752L170.222 279.356L170.596 279.98L170.998 280.618L171.414 281.263L171.831 281.907L172.233 282.545L172.607 283.169L172.938 283.773L173.215 284.351L173.426 284.897L173.561 285.407L173.614 285.877L173.579 286.305L173.452 286.689L173.232 287.028L172.92 287.323L172.52 287.576L172.037 287.789L171.479 287.966L170.855 288.111L170.177 288.23L169.456 288.329L168.707 288.414L167.943 288.493L167.18 288.571L166.43 288.656L165.71 288.755L165.032 288.874L164.408 289.019L163.85 289.196L163.367 289.409L162.967 289.662L162.655 289.957L162.435 290.296L162.308 290.68L162.273 291.108L162.326 291.578L162.461 292.088L162.672 292.634L162.949 293.212L163.28 293.816L163.654 294.44L164.056 295.078L164.473 295.723L164.889 296.368L165.291 297.005L165.665 297.63L165.996 298.233L166.273 298.811L166.484 299.357L166.62 299.867L166.673 300.337L166.637 300.765L166.51 301.149L166.29 301.488L165.978 301.783L165.578 302.036L165.095 302.249L164.537 302.426L163.914 302.571L163.235 302.691L162.515 302.79L161.765 302.875L161.002 302.953L160.238 303.031L159.489 303.116L158.768 303.215L158.09 303.334L157.466 303.48L156.908 303.656L156.425 303.869L156.025 304.122L155.713 304.417L155.493 304.757L155.366 305.14L155.331 305.568L155.384 306.039L155.52 306.549L155.731 307.095L156.007 307.672L156.339 308.276L156.712 308.9L157.114 309.538L157.531 310.183L157.948 310.828L158.35 311.466L158.723 312.09L159.054 312.694L159.331 313.271L159.542 313.817L159.678 314.327L159.731 314.798L159.695 315.225L159.568 315.609L159.348 315.948L159.037 316.244L158.637 316.496L158.154 316.709L157.596 316.886L156.972 317.032L156.293 317.151L155.573 317.25L154.824 317.335" stroke="white" stroke-width="4" stroke-miterlimit="10" stroke-linecap="round"/>
<path d="M347.468 317.056L347.885 316.411L348.287 315.773L348.66 315.149L348.992 314.545L349.268 313.968L349.479 313.422L349.615 312.912L349.668 312.441L349.633 312.014L349.506 311.63L349.286 311.29L348.974 310.995L348.574 310.743L348.091 310.53L347.533 310.353L346.909 310.207L346.231 310.088L345.511 309.989L344.761 309.904L343.998 309.826L343.234 309.747L342.485 309.662L341.764 309.563L341.086 309.444L340.462 309.299L339.904 309.122L339.421 308.909L339.021 308.656L338.709 308.361L338.489 308.021L338.362 307.638L338.327 307.21L338.38 306.74L338.516 306.23L338.727 305.683L339.003 305.106L339.335 304.502L339.708 303.878L340.11 303.24L340.527 302.595L340.944 301.95L341.346 301.313L341.72 300.689L342.051 300.085L342.328 299.507L342.539 298.961L342.674 298.451L342.728 297.981L342.692 297.553L342.565 297.169L342.345 296.83L342.033 296.535L341.633 296.282L341.15 296.069L340.592 295.892L339.969 295.747L339.29 295.627L338.57 295.528L337.821 295.443L337.057 295.365L336.293 295.287L335.544 295.202L334.823 295.103L334.145 294.983L333.521 294.838L332.963 294.661L332.48 294.448L332.08 294.195L331.768 293.9L331.548 293.561L331.421 293.177L331.386 292.749L331.439 292.279L331.575 291.769L331.786 291.223L332.063 290.645L332.394 290.041L332.767 289.417L333.17 288.779L333.586 288.135L334.003 287.49L334.405 286.852L334.779 286.228L335.11 285.624L335.387 285.046L335.598 284.5L335.734 283.99L335.787 283.52L335.751 283.092L335.624 282.708L335.404 282.369L335.093 282.074L334.693 281.821L334.21 281.608L333.652 281.431L333.028 281.286L332.35 281.167L331.629 281.068L330.88 280.983L330.116 280.904L329.352 280.826L328.603 280.741L327.882 280.642L327.204 280.523L326.58 280.377L326.022 280.2L325.539 279.987L325.139 279.735L324.828 279.439L324.608 279.1L324.481 278.716L324.445 278.288L324.498 277.818L324.634 277.308L324.845 276.762L325.122 276.185L325.453 275.581L325.827 274.957L326.229 274.319L326.646 273.674L327.062 273.029L327.465 272.391L327.838 271.767L328.169 271.163L328.446 270.586L328.657 270.04L328.793 269.53L328.846 269.059L328.811 268.632L328.684 268.248L328.464 267.909L328.152 267.613L327.752 267.361L327.269 267.148L326.711 266.971L326.087 266.825L325.409 266.706L324.688 266.607L323.939 266.522L323.175 266.444L322.411 266.365L321.662 266.28L320.942 266.181L320.263 266.062L319.64 265.917L319.082 265.74L318.599 265.527L318.199 265.274L317.887 264.979L317.667 264.64L317.54 264.256L317.505 263.828L317.558 263.358L317.693 262.848L317.904 262.302L318.181 261.724L318.512 261.12L318.886 260.496L319.288 259.858L319.705 259.213L320.122 258.569L320.524 257.931L320.897 257.307L321.229 256.703L321.505 256.125L321.716 255.579L321.852 255.069L321.905 254.599L321.87 254.171L321.743 253.787L321.523 253.448L321.211 253.153L320.811 252.9L320.328 252.687L319.77 252.51L319.146 252.365L318.468 252.245L317.747 252.146L316.998 252.061L316.234 251.983L315.471 251.905L314.721 251.82L314.001 251.721L313.323 251.601L312.699 251.456L312.141 251.279L311.658 251.066L311.258 250.813L310.946 250.518L310.726 250.179L310.599 249.795L310.564 249.367L310.617 248.897L310.753 248.387L310.964 247.841L311.24 247.263L311.572 246.659L311.945 246.035L312.347 245.398L312.764 244.753L313.181 244.108L313.583 243.47L313.956 242.846L314.288 242.242L314.564 241.665L314.775 241.118L314.911 240.608L314.964 240.138L314.929 239.71L314.802 239.327L314.582 238.987L314.27 238.692L313.87 238.439L313.387 238.226L312.829 238.049L312.206 237.904L311.527 237.785L310.807 237.686L310.057 237.601L309.294 237.522L308.53 237.444L307.781 237.359L307.06 237.26L306.382 237.141L305.758 236.995L305.2 236.818L304.717 236.605L304.317 236.353L304.005 236.057L303.785 235.718L303.658 235.334L303.623 234.907L303.676 234.436L303.812 233.926L304.023 233.38L304.3 232.803L304.631 232.199L305.004 231.575L305.407 230.937L305.823 230.292L306.24 229.647L306.642 229.009L307.016 228.385L307.347 227.781L307.624 227.204L307.835 226.658L307.97 226.148L308.024 225.678L307.988 225.25L307.861 224.866L307.641 224.527L307.329 224.231L306.929 223.979L306.446 223.766L305.888 223.589L305.265 223.443L304.586 223.324L303.866 223.225L303.117 223.14L302.353 223.062L301.589 222.984L300.84 222.898L300.119 222.799L299.441 222.68L298.817 222.535L298.259 222.358L297.776 222.145L297.376 221.892L297.064 221.597L296.845 221.258L296.717 220.874L296.682 220.446L296.735 219.976L296.871 219.466L297.082 218.92L297.359 218.342L297.69 217.738L298.064 217.114L298.466 216.476L298.882 215.831L299.299 215.187L299.701 214.549L300.075 213.925L300.406 213.321L300.683 212.743L300.894 212.197L301.03 211.687L301.083 211.217L301.047 210.789L300.92 210.405L300.7 210.066L300.389 209.771L299.989 209.518L299.506 209.305L298.948 209.128L298.324 208.983L297.646 208.863L296.925 208.764L296.176 208.679L295.412 208.601L294.648 208.523L293.899 208.438L293.179 208.339L292.5 208.22L291.876 208.074L291.318 207.897L290.836 207.684L290.435 207.431L290.124 207.136L289.904 206.797L289.777 206.413L289.741 205.985L289.794 205.515L289.93 205.005L290.141 204.459L290.418 203.881L290.749 203.278L291.123 202.653L291.525 202.016L291.942 201.371L292.358 200.726L292.761 200.088L293.134 199.464L293.465 198.86L293.742 198.283L293.953 197.737L294.089 197.227L294.142 196.756L294.107 196.328L293.98 195.945L293.76 195.605L293.448 195.31L293.048 195.057L292.565 194.844L292.007 194.667L291.383 194.522L290.705 194.403L289.984 194.304L289.235 194.219L288.471 194.14L287.707 194.062L286.958 193.977L286.238 193.878L285.559 193.759L284.936 193.613L284.378 193.437L283.895 193.223L283.495 192.971L283.183 192.676L282.963 192.336L282.836 191.953L282.801 191.525L282.854 191.054L282.989 190.544L283.2 189.998L283.477 189.421L283.808 188.817L284.182 188.193L284.584 187.555L285.001 186.91L285.418 186.265L285.82 185.627L286.193 185.003L286.525 184.4L286.801 183.822L287.012 183.276L287.148 182.766L287.201 182.296L287.166 181.868L287.039 181.484L286.819 181.145L286.507 180.85L286.107 180.597L285.624 180.384L285.066 180.207L284.442 180.061L283.764 179.942L283.043 179.843L282.294 179.758L281.53 179.68L280.767 179.602L280.017 179.516L279.297 179.417L278.619 179.298L277.995 179.153L277.437 178.976L276.954 178.763L276.554 178.51L276.242 178.215L276.022 177.876L275.895 177.492L275.86 177.064L275.913 176.594L276.049 176.084L276.26 175.538L276.536 174.96L276.868 174.356L277.241 173.732L277.643 173.094" stroke="white" stroke-width="4" stroke-miterlimit="10" stroke-linecap="round"/>
<path d="M171.46 345.657L171.861 346.542L172.262 347.405L172.663 348.225L173.064 348.982L173.465 349.657L173.866 350.234L174.267 350.698L174.668 351.037L175.069 351.245L175.47 351.314L175.871 351.245L176.272 351.037L176.673 350.698L177.074 350.234L177.475 349.657L177.876 348.982L178.277 348.225L178.678 347.405L179.079 346.542L179.48 345.657L179.882 344.772L180.283 343.909L180.684 343.089L181.085 342.332L181.486 341.657L181.887 341.08L182.288 340.617L182.689 340.277L183.09 340.07L183.491 340L183.892 340.07L184.293 340.277L184.694 340.617L185.095 341.08L185.496 341.657L185.897 342.332L186.298 343.089L186.699 343.909L187.1 344.772L187.501 345.657L187.902 346.542L188.303 347.405L188.704 348.225L189.105 348.982L189.506 349.657L189.907 350.234L190.308 350.698L190.709 351.037L191.11 351.245L191.511 351.314L191.912 351.245L192.313 351.037L192.714 350.698L193.115 350.234L193.516 349.657L193.917 348.982L194.318 348.225L194.719 347.405L195.12 346.542L195.521 345.657L195.922 344.772L196.323 343.909L196.724 343.089L197.125 342.332L197.526 341.657L197.927 341.08L198.328 340.617L198.729 340.277L199.13 340.07L199.531 340L199.932 340.07L200.333 340.277L200.734 340.617L201.135 341.08L201.536 341.657L201.937 342.332L202.338 343.089L202.739 343.909L203.14 344.772L203.541 345.657L203.942 346.542L204.343 347.405L204.744 348.225L205.145 348.982L205.546 349.657L205.947 350.234L206.348 350.698L206.749 351.037L207.15 351.245L207.551 351.314L207.952 351.245L208.353 351.037L208.754 350.698L209.155 350.234L209.556 349.657L209.957 348.982L210.358 348.225L210.759 347.405L211.16 346.542L211.561 345.657L211.962 344.772L212.363 343.909L212.764 343.089L213.165 342.332L213.566 341.657L213.967 341.08L214.368 340.617L214.769 340.277L215.17 340.07L215.571 340L215.972 340.07L216.373 340.277L216.774 340.617L217.175 341.08L217.576 341.657L217.977 342.332L218.378 343.089L218.779 343.909L219.18 344.772L219.581 345.657L219.982 346.542L220.383 347.405L220.784 348.225L221.185 348.982L221.586 349.657L221.987 350.234L222.388 350.698L222.789 351.037L223.19 351.245L223.591 351.314L223.992 351.245L224.393 351.037L224.794 350.698L225.195 350.234L225.596 349.657L225.997 348.982L226.398 348.225L226.799 347.405L227.2 346.542L227.601 345.657L228.002 344.772L228.403 343.909L228.804 343.089L229.205 342.332L229.606 341.657L230.007 341.08L230.408 340.617L230.809 340.277L231.21 340.07L231.611 340L232.012 340.07L232.413 340.277L232.814 340.617L233.215 341.08L233.616 341.657L234.017 342.332L234.418 343.089L234.819 343.909L235.22 344.772L235.621 345.657L236.022 346.542L236.423 347.405L236.824 348.225L237.225 348.982L237.626 349.657L238.027 350.234L238.428 350.698L238.829 351.037L239.23 351.245L239.631 351.314L240.032 351.245L240.433 351.037L240.834 350.698L241.235 350.234L241.636 349.657L242.037 348.982L242.438 348.225L242.839 347.405L243.24 346.542L243.641 345.657L244.042 344.772L244.443 343.909L244.844 343.089L245.245 342.332L245.646 341.657L246.047 341.08L246.448 340.617L246.849 340.277L247.25 340.07L247.651 340L248.052 340.07L248.453 340.277L248.854 340.617L249.255 341.08L249.656 341.657L250.057 342.332L250.458 343.089L250.859 343.909L251.26 344.772L251.661 345.657L252.062 346.542L252.463 347.405L252.864 348.225L253.265 348.982L253.666 349.657L254.067 350.234L254.468 350.698L254.869 351.037L255.27 351.245L255.671 351.314L256.072 351.245L256.473 351.037L256.874 350.698L257.275 350.234L257.676 349.657L258.077 348.982L258.478 348.225L258.879 347.405L259.28 346.542L259.681 345.657L260.082 344.772L260.483 343.909L260.884 343.089L261.285 342.332L261.686 341.657L262.087 341.08L262.488 340.617L262.889 340.277L263.29 340.07L263.691 340L264.092 340.07L264.493 340.277L264.894 340.617L265.295 341.08L265.696 341.657L266.097 342.332L266.498 343.089L266.899 343.909L267.3 344.772L267.701 345.657L268.102 346.542L268.503 347.405L268.904 348.225L269.305 348.982L269.706 349.657L270.107 350.234L270.508 350.698L270.909 351.037L271.31 351.245L271.711 351.314L272.112 351.245L272.513 351.037L272.914 350.698L273.315 350.234L273.716 349.657L274.117 348.982L274.518 348.225L274.919 347.405L275.32 346.542L275.721 345.657L276.122 344.772L276.523 343.909L276.924 343.089L277.325 342.332L277.726 341.657L278.127 341.08L278.528 340.617L278.929 340.277L279.33 340.07L279.731 340L280.132 340.07L280.533 340.277L280.934 340.617L281.335 341.08L281.736 341.657L282.137 342.332L282.538 343.089L282.939 343.909L283.34 344.772L283.741 345.657L284.142 346.542L284.543 347.405L284.944 348.225L285.345 348.982L285.746 349.657L286.147 350.234L286.548 350.698L286.949 351.037L287.35 351.245L287.751 351.314L288.152 351.245L288.553 351.037L288.954 350.698L289.355 350.234L289.756 349.657L290.157 348.982L290.558 348.225L290.959 347.405L291.36 346.542L291.761 345.657L292.162 344.772L292.563 343.909L292.964 343.089L293.365 342.332L293.766 341.657L294.167 341.08L294.568 340.617L294.969 340.277L295.37 340.07L295.771 340L296.172 340.07L296.573 340.277L296.974 340.617L297.375 341.08L297.776 341.657L298.177 342.332L298.578 343.089L298.979 343.909L299.38 344.772L299.781 345.657L300.182 346.542L300.583 347.405L300.984 348.225L301.385 348.982L301.786 349.657L302.187 350.234L302.588 350.698L302.989 351.037L303.39 351.245L303.791 351.314L304.192 351.245L304.593 351.037L304.994 350.698L305.395 350.234L305.796 349.657L306.197 348.982L306.598 348.225L306.999 347.405L307.4 346.542L307.801 345.657L308.202 344.772L308.603 343.909L309.004 343.089L309.405 342.332L309.806 341.657L310.207 341.08L310.608 340.617L311.009 340.277L311.41 340.07L311.811 340L312.212 340.07L312.613 340.277L313.014 340.617L313.415 341.08L313.816 341.657L314.217 342.332L314.618 343.089L315.019 343.909L315.42 344.772L315.821 345.657L316.222 346.542L316.623 347.405L317.024 348.225L317.425 348.982L317.826 349.657L318.227 350.234L318.628 350.698L319.029 351.037L319.43 351.245L319.831 351.314L320.232 351.245L320.633 351.037L321.034 350.698L321.435 350.234L321.836 349.657L322.237 348.982L322.638 348.225L323.039 347.405L323.44 346.542L323.841 345.657L324.242 344.772L324.643 343.909L325.044 343.089L325.445 342.332L325.846 341.657L326.247 341.08L326.648 340.617L327.049 340.277L327.45 340.07L327.851 340L328.252 340.07L328.653 340.277L329.054 340.617L329.455 341.08L329.856 341.657L330.257 342.332L330.658 343.089L331.059 343.909L331.46 344.772" stroke="white" stroke-width="4" stroke-miterlimit="10" stroke-linecap="round"/>
</svg>
